<svg viewBox="0 0 57 43" fill="white" xmlns="http://www.w3.org/2000/svg">
<path d="M0 7.04915C0 5.1796 0.742676 3.38662 2.06465 2.06465C3.38662 0.742676 5.1796 0 7.04915 0H49.344C51.2136 0 53.0066 0.742676 54.3285 2.06465C55.6505 3.38662 56.3932 5.1796 56.3932 7.04915V10.5737H0V7.04915ZM0 17.6229V35.2458C0 37.1153 0.742676 38.9083 2.06465 40.2303C3.38662 41.5522 5.1796 42.2949 7.04915 42.2949H49.344C51.2136 42.2949 53.0066 41.5522 54.3285 40.2303C55.6505 38.9083 56.3932 37.1153 56.3932 35.2458V17.6229H0ZM10.5737 24.672H14.0983C15.0331 24.672 15.9296 25.0434 16.5905 25.7043C17.2515 26.3653 17.6229 27.2618 17.6229 28.1966V31.7212C17.6229 32.6559 17.2515 33.5524 16.5905 34.2134C15.9296 34.8744 15.0331 35.2458 14.0983 35.2458H10.5737C9.63895 35.2458 8.74246 34.8744 8.08147 34.2134C7.42049 33.5524 7.04915 32.6559 7.04915 31.7212V28.1966C7.04915 27.2618 7.42049 26.3653 8.08147 25.7043C8.74246 25.0434 9.63895 24.672 10.5737 24.672Z" />
</svg>
