<svg viewBox="0 0 80 80" fill="#251818" xmlns="http://www.w3.org/2000/svg">
<path d="M39.8815 0C17.8579 0 0 17.8544 0 39.8798C0 61.9051 17.8561 79.7595 39.8815 79.7595C61.9086 79.7595 79.763 61.9051 79.763 39.8798C79.763 17.8544 61.9086 0 39.8815 0ZM39.8815 11.9245C47.169 11.9245 53.0743 17.8316 53.0743 25.1156C53.0743 32.4013 47.169 38.3066 39.8815 38.3066C32.5975 38.3066 26.6922 32.4013 26.6922 25.1156C26.6922 17.8316 32.5975 11.9245 39.8815 11.9245ZM39.8727 69.3328C32.6045 69.3328 25.9477 66.6858 20.8131 62.3046C19.5624 61.2377 18.8406 59.6733 18.8406 58.0319C18.8406 50.6446 24.8195 44.7322 32.2086 44.7322H47.5579C54.9487 44.7322 60.9049 50.6446 60.9049 58.0319C60.9049 59.6751 60.1866 61.236 58.9341 62.3028C53.8013 66.6858 47.1427 69.3328 39.8727 69.3328Z" />
</svg>
