<svg viewBox="0 0 95 95" fill="none" xmlns="http://www.w3.org/2000/svg">
<g clip-path="url(#clip0)">
<path d="M79.9203 47.4294L83.8819 41.0037L77.9691 36.3127L79.4851 28.9206L72.3218 26.5444L71.2185 19.0788L63.6753 19.2851L60.0916 12.6449L53.0754 15.4277L47.4302 10.4199L41.785 15.4277L34.7689 12.6429L31.1832 19.2851L23.6399 19.0788L22.5386 26.5444L15.3754 28.9206L16.8893 36.3127L10.9785 41.0037L14.9402 47.4294L10.9785 53.8551L16.8893 58.5441L15.3754 65.9382L22.5386 68.3124L23.6399 75.7801L31.1832 75.5737L34.7689 82.2139L41.785 79.4312L47.4302 84.4369L53.0754 79.4312L60.0916 82.2139L63.6753 75.5737L71.2206 75.778L72.3218 68.3124L79.4851 65.9382L77.9691 58.5441L83.8819 53.8551L79.9203 47.4294Z" fill="url(#paint0_linear)"/>
<path d="M47.43 10.4235L53.0752 15.4353L60.0913 12.6526L63.675 19.2928L71.2183 19.0885L72.3195 26.5541L79.4848 28.9201L77.9688 36.3122L83.8817 41.0114L79.92 47.431L83.8796 53.8566L77.9709 58.5456L79.4848 65.9377L72.3195 68.3139L71.2122 75.7796L63.6668 75.5752L60.0832 82.2155L53.067 79.4327L47.4218 84.4384L41.7909 79.4327L34.7768 82.2155L31.1911 75.5752L23.6478 75.7796L22.5465 68.3119L15.3751 65.9398L16.8891 58.5456L10.9783 53.8566L14.9399 47.431L10.9783 41.0053L16.8891 36.306L15.3751 28.9201L22.5384 26.5439L23.6396 19.0783L31.1829 19.2826L34.7686 12.6424L41.7909 15.4353L47.4381 10.4296L47.43 10.4235ZM47.4381 9.06277L46.7598 9.66345L41.5866 14.2462L35.1466 11.6964L34.3007 11.3613L33.8696 12.1663L30.5843 18.2549L23.6682 18.0587L22.7611 18.0342L22.6303 18.9312L21.6087 25.7757L15.0543 27.9537L14.1921 28.2377L14.374 29.1264L15.7633 35.9056L10.3428 40.1962L9.63184 40.7703L10.1079 41.5426L13.7386 47.431L10.1079 53.3193L9.63184 54.0916L10.3428 54.6637L15.7633 58.9543L14.374 65.7314L14.1921 66.6201L15.0523 66.9062L21.619 69.0842L22.6405 75.9287L22.7713 76.8256L23.6784 76.7991L30.5945 76.6111L33.8799 82.6997L34.311 83.4986L35.1568 83.1635L41.5866 80.6116L46.7619 85.2005L47.4402 85.8012L48.1185 85.2005L53.2836 80.6116L59.7134 83.1635L60.5572 83.4986L60.9903 82.6997L64.2757 76.6111L71.1917 76.7991L72.0989 76.8236L72.2296 75.9267L73.239 69.0842L79.8056 66.9062L80.6658 66.6201L80.4839 65.7314L79.0966 58.9543L84.5171 54.6637L85.2281 54.0998L84.75 53.3275L81.1214 47.431L84.75 41.5406L85.2281 40.7703L84.5171 40.2064L79.0966 35.9158L80.4839 29.1244L80.6658 28.2356L79.8056 27.9516L73.239 25.7736L72.2337 18.9312L72.1009 18.0342L71.1958 18.0587L64.2798 18.2487L60.9964 12.1663L60.5633 11.3674L59.7195 11.7025L53.2836 14.2462L48.1083 9.65732L47.43 9.05664L47.4381 9.06277Z" fill="url(#paint1_linear)"/>
<path d="M71.1462 71.1448C84.2437 58.0473 84.2437 36.8121 71.1462 23.7146C58.0487 10.6171 36.8135 10.6171 23.7161 23.7146C10.6186 36.8121 10.6186 58.0473 23.7161 71.1448C36.8135 84.2422 58.0487 84.2422 71.1462 71.1448Z" fill="url(#paint2_linear)"/>
<path d="M47.4322 81.376C28.717 81.376 13.4854 66.1465 13.4854 47.4292C13.4854 28.712 28.717 13.4824 47.4322 13.4824C66.1474 13.4824 81.3769 28.7141 81.3769 47.4292C81.3769 66.1444 66.1494 81.376 47.4322 81.376ZM47.4322 14.2997C29.1644 14.2997 14.3026 29.1615 14.3026 47.4292C14.3026 65.697 29.1644 80.5588 47.4322 80.5588C65.6999 80.5588 80.5597 65.6949 80.5597 47.4292C80.5597 29.1635 65.6979 14.2997 47.4322 14.2997Z" fill="url(#paint3_linear)"/>
<path d="M73.9318 47.4312C73.9318 42.1901 72.3776 37.0667 69.4658 32.7088C66.554 28.351 62.4153 24.9545 57.5731 22.9488C52.731 20.9431 47.4028 20.4183 42.2624 21.4408C37.122 22.4633 32.4002 24.9872 28.6942 28.6932C24.9881 32.3992 22.4643 37.121 21.4418 42.2614C20.4193 47.4018 20.9441 52.73 22.9498 57.5722C24.9555 62.4143 28.352 66.553 32.7098 69.4648C37.0677 72.3766 42.1911 73.9308 47.4322 73.9308C54.4603 73.9308 61.2006 71.1389 66.1702 66.1692C71.1398 61.1996 73.9318 54.4593 73.9318 47.4312Z" fill="url(#paint4_radial)"/>
<g style="mix-blend-mode:multiply">
<g style="mix-blend-mode:multiply">
<path d="M76.3929 44.9355L76.3561 45.8018C76.3561 46.0164 76.3193 46.2329 76.3071 46.3944C76.2948 46.5558 76.2805 46.664 76.2805 46.664L75.6471 47.0543L75.0117 47.4302H75.7575L76.1661 47.1789L76.5747 46.9215L76.6278 46.3514C76.6421 46.2084 76.6544 46.0654 76.6646 45.9592C76.6748 45.8529 76.6748 45.7794 76.6748 45.7794L76.7872 45.902L77.0201 46.1778L77.3593 46.5864L78.2828 46.3555L77.8742 47.4302H78.246L78.5607 46.613C78.6383 46.4087 78.7159 46.1921 78.7752 46.0348C78.8344 45.8774 78.8692 45.7691 78.8692 45.7691L78.1684 45.9612L77.4655 46.1471L77.3041 45.953C77.2061 45.8366 77.0651 45.6854 76.9302 45.5342L76.3929 44.9355Z" fill="#424242"/>
</g>
<g style="mix-blend-mode:multiply">
<path d="M74.0176 38.7902L74.4262 38.3285L74.8348 37.8565L74.7878 37.6358C74.7633 37.503 74.7204 37.3294 74.6734 37.1557L74.4895 36.459L75.0678 36.792L75.4764 37.029L75.6582 37.1394L76.1629 36.8186L76.6655 36.4937C76.6655 36.4937 76.6655 36.5857 76.6655 36.7225C76.6655 36.8594 76.6491 37.0454 76.6389 37.2313C76.6144 37.595 76.5919 37.9607 76.5919 37.9607L76.7431 38.1323C76.8351 38.2365 76.9474 38.3795 77.0598 38.5226L77.5114 39.1028L76.3141 39.1723L76.0566 39.7852C75.934 40.0917 75.7849 40.3982 75.7849 40.3982L75.7093 40.1938C75.6623 40.0672 75.5888 39.9017 75.5193 39.7341C75.3804 39.4032 75.2435 39.0701 75.2435 39.0701C75.2435 39.0701 74.9452 38.9925 74.6448 38.923L74.0176 38.7902Z" stroke="#424242" stroke-width="0.306471" stroke-miterlimit="10"/>
</g>
<g style="mix-blend-mode:multiply">
<path d="M70.0415 31.005L70.2928 30.435C70.4154 30.1489 70.5258 29.8629 70.5258 29.8649L70.1519 29.252C70.0558 29.0988 69.9659 28.9414 69.8903 28.8291L69.7637 28.6431L69.968 28.682C70.0926 28.7044 70.254 28.7412 70.4154 28.78L71.0672 28.9394L71.8293 28.0098C71.8293 28.0098 71.9314 28.3632 72.0336 28.7167C72.0847 28.8904 72.1337 29.0661 72.1623 29.203C72.1909 29.3399 72.2154 29.4257 72.2154 29.4257L72.8284 29.8159C72.9816 29.916 73.143 30.0202 73.2534 30.0917L73.4413 30.2245L72.3278 30.6597C72.3278 30.6597 72.2972 30.9968 72.2686 31.334C72.24 31.6711 72.2011 31.998 72.2011 31.998L71.7414 31.4422C71.627 31.3033 71.5167 31.1623 71.4227 31.0643L71.2715 30.8988L70.6586 30.9478L70.0415 31.005Z" stroke="#424242" stroke-width="0.306471" stroke-miterlimit="10"/>
</g>
<g style="mix-blend-mode:multiply">
<path d="M63.8601 24.8177C63.8601 24.8177 63.8887 24.5112 63.9193 24.2047L63.9684 23.5918L63.8008 23.4406C63.7048 23.3466 63.5638 23.2363 63.4249 23.1198L62.8691 22.6622L63.5311 22.5947L64.2074 22.5334L64.6426 21.4199L64.7734 21.6079C64.853 21.7203 64.9511 21.8796 65.0512 22.0329C65.2453 22.3434 65.4415 22.6458 65.4415 22.6458L65.6642 22.6989C65.799 22.7275 65.9747 22.7745 66.1504 22.8256L66.8574 23.0299L65.9277 23.79C65.9277 23.79 66.0074 24.1169 66.0851 24.4417C66.1239 24.6031 66.1606 24.7645 66.1831 24.8912L66.224 25.0955L66.036 24.9709C65.9257 24.8933 65.7684 24.8034 65.6151 24.7094L65.0022 24.3355C65.0022 24.3355 64.7161 24.4458 64.4321 24.5684L63.8601 24.8177Z" stroke="#424242" stroke-width="0.306471" stroke-miterlimit="10"/>
</g>
<g style="mix-blend-mode:multiply">
<path d="M56.0727 20.8448C56.0727 20.8448 56.0073 20.5404 55.9399 20.2319C55.8725 19.9233 55.7928 19.6332 55.7928 19.6332L55.1308 19.3553C54.9633 19.2879 54.7978 19.2144 54.6711 19.1674L54.4668 19.0918C54.4668 19.0918 54.7712 18.9406 55.0797 18.818L55.6927 18.5626L55.7621 17.3633L56.3424 17.8169C56.4875 17.9292 56.6305 18.0396 56.7326 18.1335L56.9063 18.2827L57.6357 18.2377L58.1424 18.2091H58.3712L58.0484 18.7097L57.7317 19.2205L57.8441 19.4003C57.9074 19.5106 57.9933 19.6557 58.0811 19.8089L58.4141 20.3851L57.7174 20.2032C57.5438 20.1542 57.3681 20.1113 57.2353 20.0868L57.0166 20.0418L56.5426 20.4505L56.0727 20.8448Z" stroke="#424242" stroke-width="0.306471" stroke-miterlimit="10"/>
</g>
<g style="mix-blend-mode:multiply">
<path d="M47.431 19.4772L47.1164 18.9521L46.7936 18.427L46.0826 18.3596C45.9007 18.3371 45.723 18.3391 45.5881 18.331L45.3613 18.3208L45.8578 17.8672C46.1091 17.6486 46.3706 17.4361 46.3706 17.4361L46.0662 16.2715L47.4372 16.7904L48.8061 16.2715L48.5037 17.4361C48.5037 17.4361 48.7632 17.6404 49.0145 17.8672L49.511 18.3208L49.2862 18.331C49.1514 18.331 48.9716 18.331 48.7918 18.3596L48.0746 18.427C48.0746 18.427 47.9112 18.6885 47.7498 18.9521L47.431 19.4772Z" stroke="#424242" stroke-width="0.306471" stroke-miterlimit="10"/>
</g>
<g style="mix-blend-mode:multiply">
<path d="M38.7961 20.8433L38.3343 20.4347L37.8624 20.026L37.6417 20.071C37.5089 20.0955 37.3352 20.1384 37.1616 20.1874L36.4648 20.3693L36.7979 19.7931L37.0349 19.3845L37.1452 19.2047C37.1452 19.2047 36.9858 18.9513 36.8244 18.7L36.4996 18.1974H36.7284L37.2372 18.226L37.9666 18.271L38.1382 18.1218C38.2424 18.0278 38.3854 17.9175 38.5284 17.8051L39.1087 17.3516L39.1781 18.5509L39.7911 18.8063C40.0955 18.9289 40.404 19.0801 40.404 19.0801L40.1997 19.1557C40.073 19.2027 39.9075 19.2762 39.74 19.3436L39.076 19.6215C39.076 19.6215 38.9963 19.928 38.935 20.2365L38.7961 20.8433Z" stroke="#424242" stroke-width="0.306471" stroke-miterlimit="10"/>
</g>
<g style="mix-blend-mode:multiply">
<path d="M31.0088 24.8178L30.4408 24.5685C30.1548 24.4459 29.8708 24.3356 29.8708 24.3356L29.2579 24.7095C29.1046 24.8035 28.9473 24.8934 28.8349 24.971L28.649 25.0956C28.649 25.0956 28.6653 25.0139 28.6878 24.8913C28.7103 24.7687 28.7471 24.6032 28.7859 24.4418C28.8656 24.117 28.9432 23.7901 28.9432 23.7901L28.0156 23.03L28.7226 22.8257C28.8962 22.7746 29.0719 22.7276 29.2068 22.699L29.4295 22.6459L29.8218 22.033C29.9198 21.8777 30.0261 21.7183 30.0976 21.6059L30.2304 21.418L30.6656 22.5315L31.3419 22.5928L32.0038 22.6602L31.4461 23.1179C31.3071 23.2323 31.1682 23.3447 31.0701 23.4386L30.9026 23.5898C30.9026 23.5898 30.9291 23.9004 30.9537 24.2028L31.0088 24.8178Z" stroke="#424242" stroke-width="0.306471" stroke-miterlimit="10"/>
</g>
<g style="mix-blend-mode:multiply">
<path d="M24.8239 31.0051L24.2109 30.9459L23.598 30.8968L23.4468 31.0623C23.3528 31.1604 23.2425 31.3014 23.126 31.4403L22.6684 31.996L22.5907 31.332C22.5621 30.9949 22.5315 30.6578 22.5315 30.6578L21.418 30.2226L21.6059 30.0898C21.7183 30.0121 21.8777 29.9141 22.0309 29.8139L22.6439 29.4237L22.6949 29.201C22.7256 29.0641 22.7726 28.8884 22.8237 28.7147C22.9258 28.3613 23.028 28.0078 23.028 28.0078L23.7901 28.9374L24.4418 28.7781C24.6032 28.7393 24.7646 28.7025 24.8893 28.68L25.0936 28.6412L24.969 28.8271C24.8913 28.9395 24.8014 29.0968 24.7074 29.25C24.5195 29.5565 24.3335 29.863 24.3335 29.863C24.3335 29.863 24.4439 30.147 24.5665 30.433L24.8239 31.0051Z" stroke="#424242" stroke-width="0.306471" stroke-miterlimit="10"/>
</g>
<g style="mix-blend-mode:multiply">
<path d="M20.8486 38.7903L20.2357 38.9211C19.9353 38.9905 19.6391 39.0682 19.6391 39.0682L19.3612 39.7322C19.2938 39.8997 19.2202 40.0652 19.1732 40.1919C19.1262 40.3186 19.0956 40.3962 19.0956 40.3962C19.0956 40.3962 18.9464 40.0938 18.8239 39.7833C18.7013 39.4727 18.5685 39.1703 18.5685 39.1703L17.3691 39.1009L17.8268 38.5206C17.9392 38.3776 18.0495 38.2346 18.1435 38.1304L18.2926 37.9587L18.2477 37.2293C18.2477 37.0434 18.2273 36.8595 18.2191 36.7206C18.2109 36.5817 18.2191 36.4918 18.2191 36.4918L18.7197 36.8166L19.2264 37.1374L19.4062 37.0271L19.8148 36.7901L20.3909 36.457C20.3909 36.457 20.299 36.8044 20.2091 37.1537C20.1601 37.3274 20.1172 37.5011 20.0927 37.6339C20.0681 37.7667 20.0457 37.8545 20.0457 37.8545L20.4543 38.3265L20.8486 38.7903Z" stroke="#424242" stroke-width="0.306471" stroke-miterlimit="10"/>
</g>
<g style="mix-blend-mode:multiply">
<path d="M16.9804 47.4302L16.5717 46.3555L17.4952 46.5864L17.8344 46.1778L18.0694 45.902L18.1817 45.7794C18.1817 45.7794 18.1817 45.8509 18.1817 45.9592C18.1817 46.0674 18.2063 46.2084 18.2185 46.3514L18.2716 46.9215L18.6803 47.1789L19.0889 47.4302H19.8326L19.1992 47.0543L18.5638 46.664C18.5638 46.664 18.5536 46.5558 18.5393 46.3944C18.525 46.2329 18.4964 46.0164 18.4903 45.8018C18.4719 45.3687 18.4514 44.9355 18.4514 44.9355L17.9039 45.526C17.767 45.6772 17.626 45.8284 17.53 45.9449L17.3686 46.139L16.6637 45.953L15.9629 45.761C15.9629 45.761 15.9997 45.8672 16.0589 46.0266C16.1182 46.1859 16.1958 46.3944 16.2632 46.6048L16.5779 47.4221L16.9804 47.4302Z" fill="#424242"/>
</g>
<g style="mix-blend-mode:multiply">
<path d="M18.4725 49.9244C18.4725 49.9244 18.4929 49.4912 18.5113 49.0581C18.5113 48.8415 18.5481 48.627 18.5603 48.4656C18.5726 48.3042 18.5848 48.1959 18.5848 48.1959L19.2203 47.8036L19.8536 47.4297H19.1161L18.7074 47.679L18.2988 47.9364L18.2457 48.5085C18.2334 48.6515 18.2191 48.7945 18.2089 48.9007C18.1987 49.007 18.2089 49.0805 18.2089 49.0805L18.0965 48.9559C18.0312 48.8824 17.9474 48.7822 17.8616 48.6821L17.5224 48.2735L16.5989 48.5044L17.0075 47.4297H16.6091L16.2945 48.2469C16.2168 48.4513 16.1372 48.6678 16.0902 48.8252C16.0432 48.9825 15.9941 49.0908 15.9941 49.0908L16.6949 48.8987L17.3998 48.7128L17.5612 48.9171C17.6573 49.0315 17.7982 49.1847 17.9351 49.3257L18.4725 49.9244Z" fill="#424242"/>
</g>
<g style="mix-blend-mode:multiply">
<path d="M20.8491 56.067L20.4404 56.5288L20.0318 57.0007C20.0318 57.0007 20.0522 57.0886 20.0788 57.2194C20.1054 57.3501 20.1462 57.5279 20.1953 57.7015C20.2852 58.0489 20.3771 58.3983 20.3771 58.3983L19.8009 58.0652L19.3923 57.8282C19.284 57.7628 19.2125 57.7158 19.2125 57.7158L18.7058 58.0387L18.2052 58.3635C18.2052 58.3635 18.2052 58.2716 18.2052 58.1347C18.2052 57.9978 18.2236 57.8098 18.2338 57.6259L18.2788 56.8965L18.1296 56.7229C18.0357 56.6187 17.9253 56.4777 17.813 56.3347L17.3594 55.7544L18.5587 55.6829C18.5587 55.6829 18.6854 55.3724 18.8141 55.07C18.9428 54.7676 19.0858 54.457 19.0858 54.457C19.0858 54.457 19.1185 54.5428 19.1635 54.6613C19.2084 54.7798 19.284 54.9535 19.3514 55.1211L19.6293 55.783C19.6293 55.783 19.9256 55.8607 20.2259 55.9301L20.8491 56.067Z" stroke="#424242" stroke-width="0.306471" stroke-miterlimit="10"/>
</g>
<g style="mix-blend-mode:multiply">
<path d="M24.8215 63.8562L24.5722 64.4263C24.4496 64.7103 24.3393 64.9963 24.3393 64.9963C24.3393 64.9963 24.5252 65.3048 24.7132 65.6093C24.8072 65.7625 24.8971 65.9198 24.9747 66.0302L25.0994 66.2181L24.895 66.1773C24.7704 66.1548 24.609 66.118 24.4476 66.0792L23.7958 65.9219L23.0358 66.8515L22.8315 66.1446C22.7804 65.9689 22.7334 65.7952 22.7027 65.6583L22.6517 65.4356L22.0387 65.0454C21.8855 64.9452 21.7261 64.841 21.6138 64.7695L21.4258 64.6367L22.5393 64.2015C22.5393 64.2015 22.5699 63.8624 22.5985 63.5253L22.668 62.8633L23.1257 63.419C23.2401 63.5579 23.3525 63.6989 23.4464 63.795L23.5976 63.9625L24.2106 63.9135L24.8215 63.8562Z" stroke="#424242" stroke-width="0.306471" stroke-miterlimit="10"/>
</g>
<g style="mix-blend-mode:multiply">
<path d="M31.0079 70.0416L30.9507 70.6546C30.9262 70.9651 30.8997 71.2675 30.8997 71.2675L31.0672 71.4187C31.1653 71.5107 31.3042 71.623 31.4431 71.7374L32.0009 72.1971L31.3389 72.2646L30.6626 72.3238L30.2275 73.4373L30.0947 73.2514C30.015 73.139 29.9169 72.9797 29.8188 72.8244L29.4265 72.2115L29.2038 72.1583C29.069 72.1297 28.8933 72.0827 28.7196 72.0317L28.0127 71.8273L28.9403 71.0652C28.9403 71.0652 28.8626 70.7404 28.783 70.4135C28.7441 70.2521 28.7074 70.0927 28.6849 69.966C28.6624 69.8394 28.6461 69.7617 28.6461 69.7617L28.832 69.8884C28.9444 69.964 29.1017 70.0539 29.2549 70.1499L29.8679 70.5238C29.8679 70.5238 30.1519 70.4135 30.4379 70.2909L31.0079 70.0416Z" stroke="#424242" stroke-width="0.306471" stroke-miterlimit="10"/>
</g>
<g style="mix-blend-mode:multiply">
<path d="M38.7952 74.0156L38.9259 74.6286C38.9954 74.9289 39.0731 75.2272 39.0731 75.2272L39.7371 75.503C39.9046 75.5725 40.0701 75.6461 40.1968 75.693L40.4011 75.7686C40.4011 75.7686 40.0967 75.9178 39.7882 76.0424L39.1752 76.2978L39.1057 77.4971L38.5255 77.0374C38.3825 76.9251 38.2394 76.8127 38.1352 76.7207L37.9636 76.5716L37.2342 76.6165L36.7255 76.6451H36.4967L36.8215 76.1425C36.9829 75.8912 37.1423 75.6379 37.1423 75.6379C37.1423 75.6379 37.0973 75.5664 37.032 75.456C36.9666 75.3457 36.8808 75.2006 36.7949 75.0474C36.6274 74.7593 36.4619 74.4692 36.4619 74.4692L37.1586 74.6531C37.3323 74.7001 37.506 74.743 37.6388 74.7695L37.8594 74.8145L38.3314 74.4059L38.7952 74.0156Z" stroke="#424242" stroke-width="0.306471" stroke-miterlimit="10"/>
</g>
<g style="mix-blend-mode:multiply">
<path d="M47.4323 75.3809L47.7449 75.9059L48.0697 76.431L48.7869 76.4985C48.9667 76.5189 49.1465 76.5189 49.2813 76.5271L49.5061 76.5373L49.0096 76.9909C48.7583 77.2095 48.4988 77.422 48.4988 77.422L48.8012 78.5866L47.4323 78.0676L46.0613 78.5866L46.3658 77.422C46.3658 77.422 46.1042 77.2176 45.8529 76.9909L45.3564 76.5373L45.5832 76.5271C45.7181 76.5271 45.8958 76.5271 46.0777 76.4985L46.7948 76.431L47.1176 75.9059L47.4323 75.3809Z" stroke="#424242" stroke-width="0.306471" stroke-miterlimit="10"/>
</g>
<g style="mix-blend-mode:multiply">
<path d="M56.0709 74.0156L56.5306 74.4243L57.0047 74.8329L57.2233 74.7879C57.3561 74.7614 57.5318 74.7185 57.7054 74.6715L58.4022 74.4876L58.0691 75.0658C57.9813 75.2109 57.8955 75.358 57.8321 75.4744L57.7198 75.6563L58.0426 76.1609L58.3654 76.6635H58.1386L57.6299 76.6349L56.9005 76.59L56.7268 76.7391C56.6246 76.8311 56.4816 76.9434 56.3386 77.0558L55.7563 77.5094L55.6868 76.3101L55.0739 76.0547C54.7674 75.9301 54.4609 75.7809 54.4609 75.7809L54.6653 75.7053C54.7919 75.6583 54.9574 75.5848 55.125 75.5153L55.7869 75.2395C55.7869 75.2395 55.8646 74.9412 55.934 74.6408C56.0035 74.3405 56.0709 74.0156 56.0709 74.0156Z" stroke="#424242" stroke-width="0.306471" stroke-miterlimit="10"/>
</g>
<g style="mix-blend-mode:multiply">
<path d="M63.8621 70.0416L64.4321 70.2909C64.7161 70.4135 65.0022 70.5238 65.0022 70.5238L65.6151 70.1499C65.7684 70.0539 65.9257 69.964 66.036 69.8884L66.224 69.7617L66.1831 69.966C66.1606 70.0927 66.1239 70.2521 66.085 70.4135C66.0074 70.7404 65.9277 71.0652 65.9277 71.0652L66.8574 71.8273L66.1504 72.0317C65.9747 72.0827 65.799 72.1297 65.6642 72.1583L65.4415 72.2115L65.0512 72.8244C64.9511 72.9797 64.8469 73.139 64.7733 73.2514L64.6426 73.4373L64.2074 72.3238L63.5311 72.2646L62.8691 72.1971L63.4249 71.7374C63.5638 71.623 63.7048 71.5107 63.8008 71.4187L63.9683 71.2675L63.9193 70.6546C63.8887 70.3461 63.8621 70.0416 63.8621 70.0416Z" stroke="#424242" stroke-width="0.306471" stroke-miterlimit="10"/>
</g>
<g style="mix-blend-mode:multiply">
<path d="M70.0437 63.8562L70.6566 63.9154L71.2696 63.9644L71.4207 63.7969C71.5147 63.7009 71.6251 63.5599 71.7395 63.421L72.1992 62.8652C72.1992 62.8652 72.2319 63.1962 72.2666 63.5272C72.3013 63.8582 72.3259 64.2035 72.3259 64.2035L73.4394 64.6387L73.2514 64.7715C73.1411 64.8491 72.9797 64.9472 72.8264 65.0473L72.2135 65.4376C72.2135 65.4376 72.191 65.5274 72.1604 65.6603C72.1297 65.7931 72.0827 65.9708 72.0316 66.1465C71.9315 66.5 71.8273 66.8535 71.8273 66.8535L71.0652 65.9238L70.4135 66.0811C70.2521 66.12 70.0907 66.1567 69.966 66.1792L69.7617 66.2201L69.8884 66.0321C69.964 65.9218 70.0539 65.7645 70.1499 65.6112L70.5238 64.9983C70.5238 64.9983 70.4135 64.7122 70.2909 64.4282C70.1683 64.1442 70.0437 63.8562 70.0437 63.8562Z" stroke="#424242" stroke-width="0.306471" stroke-miterlimit="10"/>
</g>
<g style="mix-blend-mode:multiply">
<path d="M74.0176 56.0688L74.6305 55.936C74.9309 55.8665 75.2292 55.7889 75.2292 55.7889C75.2292 55.7889 75.3661 55.4579 75.505 55.1269C75.5745 54.9594 75.648 54.7939 75.695 54.6672L75.7706 54.4629C75.7706 54.4629 75.9197 54.7673 76.0423 55.0758L76.2998 55.6888L77.4971 55.7603L77.0455 56.3405C76.9331 56.4836 76.8208 56.6245 76.7288 56.7287L76.5776 56.9024C76.5776 56.9024 76.6001 57.2661 76.6246 57.6318C76.6348 57.8157 76.6451 58.0016 76.6512 58.1385C76.6573 58.2754 76.6512 58.3694 76.6512 58.3694L76.1486 58.0445L75.6439 57.7278C75.6439 57.7278 75.5724 57.7748 75.4621 57.8402L75.0535 58.0772L74.4855 58.4L74.6693 57.7033C74.7163 57.5296 74.7592 57.356 74.7838 57.2211C74.8083 57.0863 74.8308 57.0025 74.8308 57.0025L74.4221 56.5306L74.0176 56.0688Z" stroke="#424242" stroke-width="0.306471" stroke-miterlimit="10"/>
</g>
<g style="mix-blend-mode:multiply">
<path d="M77.8869 47.4297L78.2955 48.5044L77.372 48.2735L77.0328 48.6821L76.7999 48.9559L76.6875 49.0805C76.6875 49.0805 76.6875 49.009 76.6773 48.9007C76.6671 48.7925 76.6548 48.6515 76.6405 48.5085L76.5874 47.9364L76.1788 47.679L75.7702 47.4297H75.0244L75.6598 47.8036L76.2932 48.1959C76.2932 48.1959 76.2932 48.3042 76.3198 48.4656C76.3463 48.627 76.3627 48.8415 76.3688 49.0581L76.4056 49.9244L76.9552 49.3339C77.09 49.1827 77.231 49.0295 77.3291 48.9253L77.4905 48.721L78.1933 48.9069L78.8941 49.0989C78.8941 49.0989 78.8594 48.9927 78.8001 48.8333C78.7409 48.674 78.6632 48.4656 78.5856 48.2551L78.271 47.4379L77.8869 47.4297Z" fill="#424242"/>
</g>
</g>
<path style="mix-blend-mode:multiply" d="M53.3049 41.1309C53.2575 41.3443 53.1429 41.537 52.978 41.6805C52.7144 41.9359 52.4876 42.32 52.0667 42.2811C51.7439 42.2505 51.5049 42.2811 51.6172 42.6734C51.6803 42.8636 51.6951 43.0666 51.6601 43.2639C51.5866 43.6521 51.1187 43.5602 50.8592 43.5642C50.5201 43.5642 51.1208 44.1649 51.1596 44.1997C51.2796 44.2938 51.3855 44.4045 51.4742 44.5286C51.5048 44.5658 51.5266 44.6094 51.538 44.6562C51.5494 44.703 51.5501 44.7517 51.5401 44.7988C51.5301 44.8459 51.5096 44.8902 51.4802 44.9283C51.4507 44.9664 51.4131 44.9974 51.37 45.019C51.2885 45.0557 51.2099 45.0988 51.1351 45.1477C50.7264 45.4868 51.1882 45.5563 51.3394 45.5849C51.5255 45.6101 51.7075 45.6595 51.8808 45.732C52.0483 45.8158 52.2404 45.9506 52.1771 46.1672C52.1015 46.4287 51.842 46.5758 51.699 46.7801C51.3475 47.3155 52.4488 47.0437 52.6858 47.1377C52.8322 47.2005 52.9506 47.3146 53.0188 47.4585C53.0536 47.5361 53.3253 48.4065 53.4928 48.2471C53.99 47.7693 54.2828 47.1177 54.3101 46.4287C54.351 45.875 54.3101 45.3234 54.3387 44.7697C54.3591 44.3999 54.4715 43.8278 54.3019 43.4641C54.2386 43.5479 54.1732 43.6296 54.0976 43.7052C53.597 44.2446 52.3323 44.7554 53.3253 42.2934C53.4561 41.9156 53.4488 41.5038 53.3049 41.1309Z" fill="url(#paint5_linear)"/>
<path style="mix-blend-mode:multiply" d="M48.3164 46.5684C48.3164 46.5684 49.1337 47.972 50.3126 49.5575C51.4302 51.0674 51.7223 51.1062 51.8224 52.0092C51.8224 52.0092 51.6569 49.8129 50.57 48.9547C49.483 48.0966 49.3502 48.0905 48.3164 46.5684Z" fill="url(#paint6_linear)"/>
<path d="M37.9795 31.2842C38.0587 31.3286 38.1351 31.3777 38.2084 31.4313C38.2306 31.4736 38.2426 31.5205 38.2431 31.5682C38.2901 32.0014 38.3146 32.218 38.3616 32.6491C38.3748 32.7556 38.366 32.8636 38.3358 32.9666C38.3056 33.0696 38.2546 33.1652 38.1859 33.2477C38.1198 33.3326 38.0372 33.4034 37.9431 33.4557C37.849 33.508 37.7454 33.5408 37.6383 33.5521C36.3961 33.7013 35.777 33.7871 34.5409 33.9832C34.259 32.1955 34.118 31.3026 33.834 29.5169C35.1375 29.3126 35.7913 29.2207 37.103 29.0633C37.2145 29.0474 37.328 29.0536 37.437 29.0816C37.5461 29.1097 37.6485 29.159 37.7384 29.2268C37.8262 29.2907 37.8993 29.3726 37.9529 29.467C38.0064 29.5614 38.0392 29.6662 38.049 29.7744C38.096 30.2075 38.1205 30.4241 38.1675 30.8572C38.1795 30.9359 38.1674 31.0164 38.1328 31.0881C38.1144 31.1147 37.9775 31.2659 37.9795 31.2842ZM37.2195 29.8336C36.2388 29.9521 35.7484 30.0175 34.7677 30.1626C34.831 30.5937 34.8637 30.8082 34.9291 31.2393C35.8935 31.0942 36.3777 31.035 37.3461 30.9144C37.2971 30.4813 37.2705 30.2668 37.2195 29.8336ZM37.4401 31.6888C36.4819 31.8032 36.0099 31.8665 35.0456 32.0096C35.1089 32.4427 35.1416 32.6593 35.2049 33.0924C36.1509 32.9514 36.6229 32.8881 37.5709 32.7757C37.5178 32.3405 37.5014 32.124 37.4401 31.6888Z" fill="#D2A14F"/>
<path d="M43.4398 29.3513C43.495 30.5077 43.5215 31.0859 43.5746 32.2403C43.5799 32.3477 43.5639 32.455 43.5275 32.5562C43.4912 32.6573 43.4353 32.7503 43.363 32.8298C43.2907 32.9094 43.2034 32.9738 43.1062 33.0196C43.0089 33.0653 42.9036 33.0914 42.7962 33.0964C41.6173 33.1638 41.0289 33.2067 39.8541 33.315C39.7471 33.3261 39.6389 33.3156 39.536 33.284C39.4332 33.2524 39.3378 33.2004 39.2554 33.1311C39.1708 33.0652 39.1007 32.9825 39.0494 32.8883C38.9981 32.7941 38.9667 32.6904 38.9571 32.5836C38.8386 31.4333 38.7794 30.8571 38.6629 29.7068C38.6497 29.5991 38.6596 29.4898 38.692 29.3862C38.7244 29.2826 38.7786 29.1871 38.8509 29.1061C38.9245 29.0212 39.0142 28.9516 39.1149 28.9014C39.2155 28.8513 39.3251 28.8216 39.4373 28.814C40.6856 28.6975 41.3108 28.6526 42.5612 28.581C42.6719 28.5717 42.7834 28.5849 42.8888 28.6201C42.9942 28.6552 43.0913 28.7114 43.1742 28.7854C43.2555 28.856 43.3211 28.9428 43.3668 29.0403C43.4126 29.1377 43.4374 29.2437 43.4398 29.3513ZM42.784 32.3159C42.7186 31.1329 42.6838 30.5425 42.6185 29.3595C41.3599 29.429 40.7326 29.4759 39.4761 29.5924C39.5844 30.7733 39.6396 31.3618 39.7499 32.5427C40.9615 32.4303 41.5703 32.3915 42.784 32.3159Z" fill="#D2A14F"/>
<path d="M46.2596 30.7154C46.893 31.6103 47.2015 32.0619 47.8002 32.9629H46.8787C46.4558 32.3356 46.2392 32.023 45.7999 31.3999C45.3913 32.0394 45.187 32.3602 44.7784 33.0037C44.4126 33.016 44.2288 33.0221 43.863 33.0385C44.429 32.1088 44.7191 31.6471 45.3157 30.7277C44.6742 29.8389 44.3432 29.3976 43.6689 28.5211C44.0551 28.5047 44.2472 28.4966 44.6333 28.4843C45.0971 29.0973 45.3239 29.4099 45.7713 30.033C46.1943 29.3935 46.4088 29.0748 46.846 28.4414H47.8186C47.1811 29.3486 46.8685 29.8021 46.2596 30.7154Z" fill="#D2A14F"/>
<path d="M50.2156 32.2352C50.7203 32.2515 50.9716 32.2617 51.4763 32.2862C51.4599 32.5968 51.4517 32.7541 51.4374 33.0647C50.1258 33.0013 49.4699 32.9809 48.1582 32.9707C48.1582 32.6581 48.1582 32.5028 48.1582 32.1902C48.6629 32.1902 48.9142 32.1902 49.4188 32.2106L49.4903 29.2501C48.9673 29.2379 48.7058 29.2338 48.1848 29.2297C48.1848 28.9171 48.1848 28.7618 48.1848 28.4492C49.57 28.4615 50.2626 28.4819 51.6458 28.5493C51.6295 28.8599 51.6234 29.0152 51.607 29.3278C51.086 29.3012 50.8245 29.291 50.3035 29.2746C50.2749 30.4576 50.2565 31.0501 50.2156 32.2352Z" fill="#D2A14F"/>
<path d="M55.1547 31.9456C55.2711 30.6952 55.3283 30.0679 55.4448 28.8175L56.2764 28.8972L55.8167 33.3921C55.502 33.3594 55.3447 33.3431 55.028 33.3145C54.2107 31.9721 53.7735 31.304 52.8745 29.9842C52.7949 31.2427 52.756 31.872 52.6702 33.1306L51.8877 33.0836L52.1329 28.5703C52.4639 28.5887 52.6273 28.5969 52.9501 28.6193C53.8757 29.9413 54.3149 30.6053 55.1547 31.9456Z" fill="#D2A14F"/>
<path d="M60.3173 33.9832C59.0812 33.7789 58.4621 33.7012 57.222 33.5521C57.115 33.5405 57.0114 33.5076 56.9173 33.4553C56.8233 33.403 56.7407 33.3324 56.6744 33.2476C56.6057 33.1652 56.5545 33.0695 56.5239 32.9666C56.4934 32.8637 56.4841 32.7556 56.4966 32.649L56.8133 29.7743C56.8218 29.667 56.8529 29.5627 56.9047 29.4683C56.9564 29.3739 57.0277 29.2915 57.1137 29.2267C57.2961 29.0899 57.5254 29.0311 57.7511 29.0633C59.0587 29.2206 59.7125 29.3105 61.0202 29.5169L60.8976 30.2871C59.594 30.0828 58.9402 29.9888 57.6285 29.8336C57.4876 31.0104 57.4242 31.5988 57.2792 32.7736C58.2251 32.8881 58.6992 32.9514 59.6431 33.0903C59.7085 32.6572 59.7391 32.4406 59.8045 32.0095C59.2181 31.9216 58.9239 31.8808 58.3355 31.8052L58.4376 31.0329C59.355 31.1534 59.8127 31.2188 60.728 31.3639C60.5666 32.41 60.4828 32.935 60.3173 33.9832Z" fill="#D2A14F"/>
<path d="M43.8616 60.6846C43.8616 60.6846 43.2984 60.8138 43.3229 61.8125C43.3474 62.8111 42.9353 66.0861 43.7273 66.8574C44.5192 67.6287 55.5625 67.1507 56.0754 66.5603C56.5883 65.9698 56.6477 60.8991 56.171 60.3823C55.6943 59.8655 44.6807 60.2867 43.8616 60.6846Z" fill="url(#paint7_linear)"/>
<path d="M49.4342 60.2188C47.5739 60.2859 45.782 60.397 44.7394 60.5185C44.7739 60.5635 44.7925 60.6187 44.7925 60.6754C44.7925 60.7322 44.7739 60.7873 44.7394 60.8324C44.2989 61.4396 44.45 62.0197 44.5559 62.7057C44.65 63.2822 44.6312 63.8714 44.5004 64.4407C44.3467 65.1267 44.2627 65.9045 44.7407 66.4962C44.9625 66.7557 45.213 66.9893 45.4874 67.1925C46.5959 67.2662 48.0893 67.2713 49.606 67.23L49.4342 60.2188Z" fill="url(#paint8_linear)"/>
<path d="M50.2347 67.2097C51.7255 67.1554 53.1906 67.0585 54.2822 66.9371C54.2822 66.919 54.2926 66.9009 54.2965 66.8828C54.3766 66.534 54.4463 66.1813 54.4915 65.8273C54.6001 64.9927 54.728 64.1659 54.7267 63.3223C54.7267 62.4179 54.6194 61.4593 54.2435 60.6235C54.1724 60.4659 54.0923 60.3108 54.0071 60.1597C52.896 60.1364 51.4827 60.1597 50.0654 60.1984L50.2347 67.2097Z" fill="url(#paint9_linear)"/>
<path d="M54.8652 60.6034C55.2025 61.5965 55.3736 62.6384 55.3716 63.6872C55.3828 64.5961 55.2905 65.5032 55.0965 66.3912C55.0626 66.5465 55.0195 66.6997 54.9673 66.8499C55.5835 66.7594 55.9905 66.6599 56.0796 66.5579C56.5964 65.9662 56.6519 60.8915 56.1804 60.3851C56.0809 60.2792 55.5241 60.2133 54.6973 60.1797C54.7593 60.3283 54.8174 60.4717 54.8652 60.6034Z" fill="#8E5B37"/>
<path d="M43.8606 60.6832C43.8606 60.6832 44.0789 61.4726 50.2078 61.3292C56.3366 61.1858 56.1699 60.3809 56.1699 60.3809C56.1699 60.3809 55.9439 58.2519 57.8042 53.7792C59.9281 48.6723 58.7331 41.5706 54.8031 40.1909C52.5758 39.4093 47.7764 38.1664 44.1306 38.4519C40.729 38.7181 36.0819 45.3366 40.6075 46.7021C41.039 46.9424 41.1656 47.1659 41.5829 47.1556C41.9563 47.6724 41.9498 48.547 41.7121 49.2097C41.4537 49.9293 40.4615 50.9357 40.3956 48.1762C40.3672 47.0264 38.6774 45.374 36.7344 47.7382C34.7913 50.1025 35.0432 53.5131 38.9939 55.7352C42.9446 57.9573 43.6965 58.2648 43.8606 60.6832Z" fill="url(#paint10_linear)"/>
<path d="M40.6142 46.708C41.0457 46.9483 41.1723 47.1718 41.5896 47.1614C41.6465 47.2422 41.6946 47.3288 41.733 47.4198L57.8432 49.0605C57.8432 49.0605 58.3936 46.3746 57.6004 43.7559C57.1585 42.3038 55.8356 40.5533 54.8098 40.1928C52.5826 39.4112 47.7831 38.1684 44.1373 38.4539C40.7357 38.7239 36.0887 45.3424 40.6142 46.708Z" fill="url(#paint11_linear)"/>
<path d="M39.9133 47.0742C39.956 47.2965 39.9261 47.5265 39.8281 47.7305C39.6808 48.0832 39.6226 48.5431 39.2053 48.6788C38.885 48.7821 38.6692 48.9062 38.9379 49.2382C39.0762 49.395 39.1734 49.5836 39.2209 49.7872C39.31 50.1864 38.8333 50.2911 38.5826 50.4022C38.261 50.5469 39.0774 50.8686 39.1278 50.8841C39.281 50.9259 39.4278 50.9881 39.5645 51.0688C39.61 51.0915 39.6497 51.1244 39.6805 51.1649C39.7114 51.2054 39.7324 51.2524 39.7422 51.3024C39.7519 51.3523 39.75 51.4038 39.7367 51.4529C39.7234 51.5021 39.6989 51.5474 39.6653 51.5856C39.6036 51.6545 39.5467 51.7274 39.4947 51.8039C39.2531 52.291 39.7131 52.1721 39.8616 52.1398C40.0496 52.0867 40.2438 52.0589 40.4391 52.0571C40.6342 52.0688 40.8719 52.1179 40.9003 52.3504C40.9352 52.632 40.7453 52.8672 40.6988 53.1372C40.5825 53.7922 41.5218 53.079 41.7853 53.0726C41.9512 53.0722 42.1115 53.1324 42.2362 53.2418C42.3008 53.3013 42.917 54.017 43.0113 53.7986C43.3085 53.1217 43.2697 52.4228 43.0359 51.7316C42.8486 51.1851 42.5811 50.6774 42.3822 50.1374C42.253 49.7756 42.1238 49.1839 41.8099 48.9062C41.786 49.0121 41.7558 49.1165 41.7194 49.2188C41.461 49.9384 40.4688 50.9448 40.403 48.1853C40.377 47.7685 40.2034 47.3746 39.9133 47.0742Z" fill="#A3663F"/>
<path d="M39.68 48.5413C39.5976 48.6588 39.4876 48.7542 39.3596 48.8191C39.1232 48.9483 39.2511 48.9832 39.4268 49.1007C39.5171 49.1518 39.5943 49.2232 39.6522 49.3093C39.71 49.3955 39.747 49.4939 39.7601 49.5968C39.7592 49.718 39.7333 49.8376 39.6839 49.9482C39.6671 49.9947 39.6529 50.0425 39.6374 50.0903C39.8958 49.8849 40.0689 49.5619 40.2213 49.2803C40.3323 48.9262 40.3932 48.5583 40.4022 48.1873C40.375 47.7775 40.2055 47.39 39.9229 47.0918C39.9229 47.1086 40.18 47.721 39.68 48.5413Z" fill="#543A27"/>
<path d="M52.9965 44.8629C52.9985 44.8871 52.9954 44.9115 52.9876 44.9346C52.9797 44.9576 52.9673 44.9788 52.9509 44.9968C52.9346 45.0148 52.9147 45.0293 52.8926 45.0394C52.8704 45.0495 52.8464 45.0549 52.8221 45.0554C52.2924 45.7504 51.1788 45.9597 50.3804 46.1302C49.1763 46.3783 47.9891 46.7013 46.7824 46.9351C45.3393 47.2142 43.8562 47.4067 42.3899 47.2607C42.1238 47.2335 41.8576 47.2012 41.5928 47.1612C41.9054 47.5953 41.9519 48.2709 41.8227 48.8678C41.9235 49.4466 42.2749 49.5822 42.9067 50.6765C43.612 51.8935 44.6029 52.8366 44.2464 56.9707C44.1792 57.7459 43.9053 58.8052 43.5888 59.1954C43.7561 59.6755 43.8497 60.1781 43.8665 60.6863C43.8665 60.6863 44.0849 61.4756 50.2137 61.3322C52.6684 61.2728 54.114 61.11 54.9641 60.9369C54.8735 60.3043 54.8467 59.6641 54.884 59.0261C54.9874 57.2007 55.5791 55.4979 56.2702 53.8159C57.2198 51.5033 58.4781 49.0086 57.6022 46.4829C57.2224 45.3861 56.5583 43.8875 55.4848 43.2996C54.3621 42.6808 52.8505 43.5309 52.9965 44.8629Z" fill="#E09E6E"/>
<path d="M48.7324 47.7802C47.8177 47.9094 46.1796 48.3073 45.0013 49.7C44.2959 50.5359 44.9522 56.8688 44.9664 57.4735C45.0388 60.4798 44.5711 60.14 44.5957 61.0275C45.3708 61.2187 46.9599 61.4035 50.2077 61.326C52.1702 61.2782 53.4853 61.1645 54.369 61.0327C53.5396 60.0638 54.8057 55.4439 55.7087 53.6856C56.2022 52.7244 56.5924 46.6873 48.7324 47.7802Z" fill="#A3663F"/>
<path d="M41.5879 47.1616C41.6693 47.2767 41.7328 47.4035 41.7765 47.5375H41.8191C42.1563 47.5931 41.9638 49.1796 42.885 49.9793C43.6175 50.6136 48.811 52.8409 50.621 52.6031C52.4787 52.359 57.0289 50.7467 57.4836 50.0632C58.0986 46.0725 56.078 43.614 55.4799 43.2871C54.3649 42.6774 52.8508 43.5261 52.9968 44.8581C52.9987 44.8824 52.9957 44.9068 52.9879 44.9298C52.98 44.9528 52.9676 44.974 52.9512 44.9921C52.9349 45.0101 52.915 45.0246 52.8929 45.0347C52.8707 45.0447 52.8467 45.0502 52.8224 45.0506C52.2927 45.7457 51.1791 45.9549 50.3807 46.1255C49.1766 46.3735 47.9893 46.6965 46.7827 46.9303C45.3396 47.2094 43.8565 47.4019 42.3902 47.2559C42.1189 47.2339 41.8527 47.2029 41.5879 47.1616Z" fill="url(#paint12_linear)"/>
<path d="M37.9284 47.8892C38.108 47.6928 38.2992 47.5016 38.3844 47.2432C38.4278 47.0847 38.4972 46.9345 38.5899 46.7988C38.6571 46.7094 38.731 46.6252 38.8108 46.5468C38.2152 46.5171 37.4982 46.8272 36.7437 47.747C34.7994 50.1112 35.0526 53.5219 39.0033 55.744C41.4799 57.1367 42.6956 57.7736 43.2989 58.6495C43.3493 58.249 42.609 56.5825 41.9411 54.4947C41.8119 54.0761 40.2254 55.4585 39.6815 55.1665C39.4869 55.1091 39.3186 54.9852 39.2061 54.8164C39.08 54.6358 39.0005 54.4267 38.9748 54.2079C38.9503 53.9728 38.9748 53.7829 38.7165 53.6537C38.3366 53.456 37.9839 53.3242 37.7217 52.9677C37.6581 52.8888 37.628 52.7882 37.6377 52.6873C37.5627 52.4911 37.5331 52.2804 37.5512 52.0711C37.5654 51.8127 37.8225 51.4109 37.6222 51.2184C37.5493 51.1496 37.5007 51.0589 37.484 50.96C37.3712 50.8835 37.2795 50.7799 37.2172 50.6587C37.1549 50.5374 37.124 50.4025 37.1274 50.2663C37.1495 50.0066 37.2636 49.7633 37.4491 49.5803C37.6493 49.3916 37.6571 49.3348 37.6067 49.1656C37.3083 48.8826 37.7139 48.1217 37.9284 47.8892Z" fill="#A3663F"/>
<path d="M41.9171 39.668C40.859 40.2533 40.1084 41.4147 39.6653 42.2325C39.3778 42.7792 39.1782 43.3678 39.0736 43.9766C38.9353 44.2659 39.08 44.7259 39.1407 45.0101C39.2247 45.4041 39.5671 45.7026 39.8797 45.9248C40.2582 46.1953 40.6835 46.3933 41.1342 46.5087C42.1988 46.7355 43.2885 46.8224 44.3756 46.7671C45.8665 46.6625 48.1105 46.085 48.7991 45.9028C49.3039 45.8512 49.7965 45.7154 50.2564 45.501L50.2745 45.4933C50.3507 45.4558 50.2913 45.3408 50.2151 45.3641C49.7797 45.4855 49.3443 45.6108 48.905 45.7271C48.6623 45.7552 48.4182 45.7698 48.1738 45.771C47.4594 45.771 46.7527 45.5488 46.0422 45.6302C45.7076 45.6677 45.453 42.1498 43.873 41.7661C42.293 41.3824 42.3369 40.208 42.5385 39.9845C42.5889 39.9303 42.9752 39.0828 41.9171 39.668Z" fill="url(#paint13_linear)"/>
<path style="mix-blend-mode:overlay" d="M39.2452 53.4882C39.3136 53.7828 39.4699 54.0451 39.5139 54.35L39.5216 54.4029C39.6445 54.4865 39.7784 54.5526 39.9195 54.5993C40.1241 54.5824 40.3256 54.5389 40.519 54.4701C40.3186 54.3804 40.145 54.2402 40.0151 54.0632C39.8485 53.8267 39.8136 53.4973 39.6896 53.2376C39.5835 52.9997 39.406 52.8006 39.1818 52.6679C39.0477 52.618 38.9272 52.537 38.8304 52.4315C38.7077 52.2622 38.7581 51.9457 38.7697 51.7493C38.8081 51.4468 38.7502 51.1399 38.6044 50.8721C38.5442 50.7892 38.4739 50.7141 38.3951 50.6486C38.3387 50.5963 38.2884 50.5378 38.2452 50.4742C38.1561 50.345 38.3615 50.2468 38.4364 50.2003C38.6031 50.0983 38.74 50.0052 38.7671 49.7985C38.7943 49.5918 38.6302 49.3554 38.5424 49.1616C38.3783 48.7947 38.6715 48.6449 38.864 48.3865C38.9269 48.2925 38.9647 48.184 38.9738 48.0712C38.9941 47.917 39.0422 47.7677 39.116 47.6307C39.209 47.4589 39.2749 47.2599 39.1534 47.0868C39.032 46.9137 38.8162 47.03 38.6987 47.1307C38.4403 47.3516 38.5436 47.6979 38.4106 47.9756C38.3248 48.116 38.2271 48.2487 38.1186 48.3723C38.0316 48.5009 37.9819 48.6512 37.9752 48.8063C37.9377 49.1629 38.014 49.4523 37.8085 49.7766C37.7 49.9484 37.5734 50.1202 37.6173 50.336C37.7 50.7429 38.063 51.0065 38.0941 51.438C38.1134 51.6834 38.014 51.9237 37.992 52.1666C37.9631 52.3911 38.0109 52.6187 38.1276 52.8126C38.2878 53.089 38.6612 53.1549 38.9325 53.266C39.0522 53.3156 39.159 53.3915 39.2452 53.4882Z" fill="url(#paint14_linear)"/>
<path d="M40.4251 49.0625C40.4251 49.0625 40.4251 49.9358 40.9496 50.0573C40.9496 50.0573 41.1331 51.2639 40.562 51.6838C39.991 52.1037 39.7171 51.9318 40.0634 51.388C40.4096 50.8441 40.4871 50.3945 40.2856 50.3996C40.084 50.4048 39.9626 50.4772 39.7766 50.4126C39.5905 50.348 40.3127 49.8635 40.4251 49.0625Z" fill="#543A27"/>
<path style="mix-blend-mode:multiply" d="M58.2087 45.5455C58.0253 45.216 58.1867 44.5972 58.0317 44.0404C57.8767 43.4836 57.4646 42.8957 57.4697 43.1102C57.4749 43.3247 57.1015 42.5534 56.953 42.1529C56.8561 41.8945 56.3251 41.6219 55.9569 41.4578L55.9026 41.3015C55.7915 40.9953 55.6171 40.5574 55.2296 40.5625C55.2148 40.5634 55.2005 40.568 55.188 40.5758C55.1755 40.5836 55.1652 40.5945 55.158 40.6073C55.1508 40.6202 55.1469 40.6347 55.1468 40.6494C55.1467 40.6642 55.1502 40.6787 55.1572 40.6917C55.4053 41.0793 55.2063 41.4062 55.0371 41.7627C54.8123 41.4191 54.466 40.8726 54.0668 40.923C54.0546 40.9235 54.0426 40.9268 54.0317 40.9326C54.0209 40.9384 54.0116 40.9466 54.0044 40.9565C53.9971 40.9665 53.9923 40.9779 53.9901 40.99C53.988 41.0021 53.9886 41.0145 53.9919 41.0263C53.9919 41.0522 54.0733 41.4436 53.9816 41.432C53.8721 41.4 53.7696 41.3479 53.6793 41.2783C53.5432 41.1897 53.3935 41.1242 53.2361 41.0845C53.0682 41.0431 52.8266 41.0651 52.8679 41.2938C52.8834 41.3842 53.0359 41.4553 53.1031 41.494C53.1702 41.5328 53.125 41.5935 53.0695 41.6762C52.1535 41.1762 52.4313 42.3312 52.1199 42.4229C51.691 42.5521 50.8655 42.4927 51.1045 42.72C51.5347 43.1309 52.138 43.928 51.8331 44.4874C51.5282 45.0468 50.6045 45.9085 50.6045 45.9085C50.6045 45.9085 52.0863 45.6902 52.6716 44.8879C52.9416 44.5145 52.7219 43.9835 53.2232 43.459C53.4091 43.2753 53.5636 43.0623 53.6805 42.8286C53.7929 42.8596 53.8808 42.9009 53.8756 42.9952C53.8751 43.0003 53.8756 43.0055 53.877 43.0104C53.8785 43.0153 53.8809 43.0199 53.8842 43.0238C53.8874 43.0278 53.8914 43.0311 53.8959 43.0335C53.9005 43.0359 53.9054 43.0374 53.9105 43.0379C53.9144 43.051 53.9217 43.0628 53.9317 43.0721C53.9417 43.0814 53.954 43.0879 53.9674 43.0908C54.1069 43.1283 54.2257 42.9474 54.3743 42.9461C54.6559 42.9461 54.9221 43.0585 55.1985 43.0262C55.3936 43.003 55.5693 43.2019 55.7683 43.136C55.8056 43.1248 55.8407 43.1068 55.8716 43.0831C56.9052 43.8388 57.9581 45.9253 58.1674 47.2095C58.31 46.9567 58.3883 46.6728 58.3955 46.3826C58.4027 46.0925 58.3386 45.805 58.2087 45.5455Z" fill="url(#paint15_linear)"/>
<path style="mix-blend-mode:multiply" d="M43.036 65.3009C43.036 65.3009 43.3435 66.3822 44.1212 66.6096C44.5592 66.7388 46.8692 66.9054 49.0305 66.8602C49.1972 66.8602 49.3961 66.868 49.5008 66.762C49.5241 66.7935 49.556 66.8177 49.5926 66.8317C49.6293 66.8456 49.6691 66.8488 49.7075 66.8409C50.0369 66.8292 50.2953 66.8912 50.6532 66.7039C51.6635 66.7039 52.5084 66.5489 52.9218 66.3964C54.3429 65.8706 53.7951 61.8476 52.8081 61.6603C51.8211 61.4729 44.3706 61.7895 43.9455 61.6603C43.5205 61.5311 43.558 61.3438 43.558 61.3438C43.4992 61.4175 43.4522 61.4999 43.4184 61.5879C43.1639 61.7727 42.7273 62.3334 43.036 65.3009Z" fill="url(#paint16_linear)"/>
<path d="M42.8629 65.123C42.8629 65.123 43.169 66.2031 43.9468 66.4304C44.7245 66.6578 51.3262 66.7444 52.7538 66.2186C54.1813 65.6927 53.6258 61.6684 52.6388 61.4811C51.6518 61.2938 44.2013 61.6103 43.7762 61.4811C43.3512 61.3519 43.4274 61.14 43.4274 61.14C43.4274 61.14 42.4003 60.746 42.8629 65.123Z" fill="#8E5B37"/>
<path d="M42.8653 65.1218C42.8653 65.1218 43.1715 66.2018 43.9492 66.4292C44.6843 66.6437 50.6091 66.7328 52.4759 66.3C52.7627 66.2186 52.9849 66.1295 53.1684 65.3763C53.3518 64.6231 53.2226 63.4785 53.1684 63.2175C52.919 62.1013 52.5831 61.9256 51.3881 61.8907C50.6711 61.8713 49.6944 61.7809 48.98 61.8339C48.325 61.883 45.6778 61.9889 45.0022 61.914C44.5771 61.8675 43.6754 61.9333 43.2723 61.7848C42.9803 61.6763 43.1315 61.2564 43.4351 61.1685C43.4338 61.1591 43.4338 61.1495 43.4351 61.1401C43.4351 61.1401 42.4028 60.7448 42.8653 65.1218Z" fill="url(#paint17_linear)"/>
<path d="M42.9707 61.4846C42.9725 61.5879 42.9838 61.6908 43.0043 61.792C43.0133 61.8088 43.0224 61.8256 43.0327 61.8424L43.0598 61.8618C43.1456 61.9081 43.2356 61.9462 43.3286 61.9755C43.7459 61.9845 44.1761 62.0711 44.583 62.075C45.2083 62.075 45.8323 62.0285 46.4563 62.0285C47.1126 62.0285 49.4277 61.9367 49.6577 61.9316C50.277 61.9206 50.8964 61.9452 51.5129 62.0052C51.9405 62.044 52.2996 62.0827 52.6019 62.4147C53.2053 63.0801 53.2156 64.4263 53.0425 65.2466C52.9831 65.5283 52.8668 65.9791 52.6355 66.2401C52.8397 66.1497 53.0089 65.9688 53.1523 65.3758C53.337 64.6226 53.2066 63.478 53.1523 63.217C52.903 62.1008 52.5671 61.9251 51.372 61.8902C50.655 61.8708 49.6783 61.7804 48.9639 61.8334C48.3089 61.8825 45.6618 61.9884 44.9861 61.9135C44.5611 61.867 43.6593 61.9329 43.2562 61.7843C42.9642 61.6758 43.1154 61.2559 43.419 61.168C43.4178 61.1586 43.4178 61.1491 43.419 61.1396C43.419 61.1396 43.1684 61.044 42.9707 61.4846Z" fill="#F7E6A5"/>
<path d="M37.1809 54.1635C37.1809 54.1635 35.3309 52.413 35.7598 49.9803C36.1887 47.5476 38.0853 46.8345 37.5466 47.7427C37.0078 48.6509 35.7883 51.8148 37.1809 54.1635Z" fill="#F6D59A"/>
<path style="mix-blend-mode:overlay" d="M50.8409 64.3186C50.7466 63.6275 50.297 62.6547 50.1213 62.488C49.6989 62.0849 44.858 62.3459 43.9369 62.3679C43.0158 62.3898 42.9861 62.1211 42.9861 62.1211C42.9861 62.1211 42.9512 63.3523 42.9512 64.1003C44.5932 65.1041 50.8409 64.3186 50.8409 64.3186Z" fill="url(#paint18_linear)"/>
<path d="M58.7612 49.9863C58.3432 50.0852 57.9676 50.3146 57.6889 50.6413C57.3414 51.0535 57.1411 51.5599 56.9034 52.0392C56.6807 52.486 56.4287 52.9176 56.1489 53.3311C55.1089 54.8814 53.6672 56.2392 51.7771 56.6022C49.3883 57.0609 46.4725 57.3774 45.3705 56.0493C44.9834 55.5914 44.6241 55.1108 44.2943 54.6101C43.7401 54.7173 42.5786 54.508 42.4688 55.1127C42.3164 55.9498 43.8292 58.1952 43.5101 59.0181C43.7168 59.46 43.8137 59.9806 43.8615 60.6769C43.8615 60.6769 44.0799 61.4663 50.2087 61.3229C56.3376 61.1795 56.1709 60.3811 56.1709 60.3811C56.1709 60.3811 55.9448 58.252 57.8052 53.7794C58.3022 52.5668 58.6241 51.2896 58.7612 49.9863Z" fill="url(#paint19_linear)"/>
<path d="M37.3916 54.3086C37.3916 54.3086 38.7559 55.3072 40.5232 56.3369C42.2092 57.3175 42.5037 57.2348 42.9779 58.059C42.9779 58.059 41.9172 56.0333 40.5232 55.6612C39.1292 55.2892 39.0039 55.3421 37.3916 54.3086Z" fill="#543A27"/>
<path d="M43.0146 65.2574C43.0146 65.2574 43.2562 65.9654 43.9061 66.2406C44.5559 66.5158 51.6576 66.4589 52.2803 66.2406C52.903 66.0223 52.912 65.127 52.912 65.127C52.912 65.127 52.4288 65.5623 49.7391 65.6063C47.0493 65.6502 44.388 65.8246 43.0146 65.2574Z" fill="#C5794C"/>
<path d="M53.1172 66.5695C53.1172 66.5695 54.2257 66.5578 54.4091 66.3214C54.4091 66.3214 54.9259 66.4222 55.1222 66.24C55.1222 66.24 55.9039 66.2891 56.0485 66.0269C56.1932 65.7646 56.3689 64.4766 56.3689 64.4766C56.038 64.8698 55.6611 65.222 55.2463 65.5256C55.2463 65.5256 54.9478 65.5605 54.5099 65.6548C54.181 66.1279 53.682 66.4556 53.1172 66.5695Z" fill="#543A27"/>
<path d="M53.318 61.4741C53.4032 61.2712 54.234 61.1356 54.3515 61.2997C54.4691 61.4637 54.4936 61.9314 54.4381 62.0516C54.3825 62.1717 53.8981 62.3565 53.6125 62.1937C53.4892 62.1248 53.393 62.0161 53.3395 61.8854C53.286 61.7547 53.2784 61.6097 53.318 61.4741Z" fill="#543A27"/>
<path d="M54.6186 61.228C54.6793 61.1402 54.8253 61.0549 54.9351 61.1311C55.0449 61.2073 55.1521 61.7254 55.0979 61.8998C55.0436 62.0742 54.8821 62.1001 54.7387 61.9541C54.5953 61.8081 54.576 61.2965 54.6186 61.228Z" fill="#543A27"/>
<path d="M55.2383 61.0998C55.308 60.9189 56.1491 60.7122 56.2085 60.6334C56.2679 60.5546 56.4449 61.2225 56.3765 61.4731C56.308 61.7238 55.5005 62.0286 55.3907 61.8439C55.2809 61.6592 55.1737 61.2716 55.2383 61.0998Z" fill="#543A27"/>
</g>
<defs>
<linearGradient id="paint0_linear" x1="47.4302" y1="10.4199" x2="47.4302" y2="84.4369" gradientUnits="userSpaceOnUse">
<stop stop-color="#6F5540"/>
<stop offset="0.0885417" stop-color="#8F5E3F"/>
<stop offset="0.229167" stop-color="#C78757"/>
<stop offset="0.411458" stop-color="#FEE6B4"/>
<stop offset="0.651042" stop-color="#D58151"/>
<stop offset="1" stop-color="#845534"/>
</linearGradient>
<linearGradient id="paint1_linear" x1="11.1355" y1="13.792" x2="78.6613" y2="82.4416" gradientUnits="userSpaceOnUse">
<stop stop-color="#6F5540"/>
<stop offset="0.0885417" stop-color="#8F5E3F"/>
<stop offset="0.229167" stop-color="#C78757"/>
<stop offset="0.411458" stop-color="#FEE6B4"/>
<stop offset="0.651042" stop-color="#D58151"/>
<stop offset="1" stop-color="#845534"/>
</linearGradient>
<linearGradient id="paint2_linear" x1="23.7161" y1="23.7146" x2="71.1462" y2="71.1448" gradientUnits="userSpaceOnUse">
<stop stop-color="#6F5540"/>
<stop offset="0.0885417" stop-color="#8F5E3F"/>
<stop offset="0.229167" stop-color="#C78757"/>
<stop offset="0.411458" stop-color="#FEE6B4"/>
<stop offset="0.651042" stop-color="#D58151"/>
<stop offset="1" stop-color="#845534"/>
</linearGradient>
<linearGradient id="paint3_linear" x1="3167.05" y1="14447.7" x2="25726.7" y2="14447.7" gradientUnits="userSpaceOnUse">
<stop stop-color="#543A27"/>
<stop offset="0.03" stop-color="#C38115"/>
<stop offset="0.14" stop-color="#BE7621"/>
<stop offset="0.26" stop-color="#BC7225"/>
<stop offset="0.51" stop-color="#DEA221"/>
<stop offset="0.76" stop-color="#FDCE1E"/>
<stop offset="0.82" stop-color="#F8C91E"/>
<stop offset="0.89" stop-color="#EABA1D"/>
<stop offset="0.97" stop-color="#D4A21B"/>
<stop offset="1" stop-color="#C9961A"/>
</linearGradient>
<radialGradient id="paint4_radial" cx="0" cy="0" r="1" gradientUnits="userSpaceOnUse" gradientTransform="translate(47.4322 47.4312) rotate(90) scale(26.4996)">
<stop stop-color="#DA050B"/>
<stop offset="1" stop-color="#5C0204"/>
</radialGradient>
<linearGradient id="paint5_linear" x1="7458.64" y1="6253.32" x2="7374.29" y2="6344.8" gradientUnits="userSpaceOnUse">
<stop offset="0.01" stop-color="#C08A31"/>
<stop offset="1" stop-color="#F7E6A4"/>
</linearGradient>
<linearGradient id="paint6_linear" x1="3191.3" y1="-4605.12" x2="3238.55" y2="-4474.2" gradientUnits="userSpaceOnUse">
<stop offset="0.01" stop-color="#C08A31"/>
<stop offset="1" stop-color="#F7E6A4"/>
</linearGradient>
<linearGradient id="paint7_linear" x1="56.2907" y1="65.6875" x2="43.8275" y2="60.7839" gradientUnits="userSpaceOnUse">
<stop stop-color="#6C4611"/>
<stop offset="1" stop-color="#EFAF7F"/>
</linearGradient>
<linearGradient id="paint8_linear" x1="46.993" y1="60.2188" x2="46.993" y2="67.2559" gradientUnits="userSpaceOnUse">
<stop stop-color="#6F5540"/>
<stop offset="0.0885417" stop-color="#8F5E3F"/>
<stop offset="0.229167" stop-color="#C78757"/>
<stop offset="0.411458" stop-color="#FEE6B4"/>
<stop offset="0.651042" stop-color="#D58151"/>
<stop offset="1" stop-color="#845534"/>
</linearGradient>
<linearGradient id="paint9_linear" x1="45.1555" y1="61.1908" x2="53.8389" y2="67.2181" gradientUnits="userSpaceOnUse">
<stop stop-color="#6F5540"/>
<stop offset="0.0885417" stop-color="#8F5E3F"/>
<stop offset="0.229167" stop-color="#C78757"/>
<stop offset="0.411458" stop-color="#FEE6B4"/>
<stop offset="0.651042" stop-color="#D58151"/>
<stop offset="1" stop-color="#845534"/>
</linearGradient>
<linearGradient id="paint10_linear" x1="47.1977" y1="38.4102" x2="47.1977" y2="61.3466" gradientUnits="userSpaceOnUse">
<stop stop-color="#6F5540"/>
<stop offset="0.0885417" stop-color="#8F5E3F"/>
<stop offset="0.229167" stop-color="#C78757"/>
<stop offset="0.411458" stop-color="#FEE6B4"/>
<stop offset="0.651042" stop-color="#D58151"/>
<stop offset="1" stop-color="#845534"/>
</linearGradient>
<linearGradient id="paint11_linear" x1="48.3827" y1="38.4121" x2="48.3827" y2="49.0605" gradientUnits="userSpaceOnUse">
<stop stop-color="#6F5540"/>
<stop offset="0.0885417" stop-color="#8F5E3F"/>
<stop offset="0.229167" stop-color="#C78757"/>
<stop offset="0.411458" stop-color="#FEE6B4"/>
<stop offset="0.651042" stop-color="#D58151"/>
<stop offset="1" stop-color="#845534"/>
</linearGradient>
<linearGradient id="paint12_linear" x1="49.5933" y1="43.0859" x2="49.5933" y2="52.6208" gradientUnits="userSpaceOnUse">
<stop stop-color="#6F5540"/>
<stop offset="0.197917" stop-color="#8F5E3F"/>
<stop offset="0.588542" stop-color="#AA6C3E"/>
<stop offset="1" stop-color="#845534"/>
</linearGradient>
<linearGradient id="paint13_linear" x1="44.6628" y1="39.4629" x2="44.6628" y2="46.7832" gradientUnits="userSpaceOnUse">
<stop stop-color="#8F5E3F"/>
<stop offset="0.229167" stop-color="#C78757"/>
<stop offset="0.473958" stop-color="#FEE6B4"/>
<stop offset="0.630208" stop-color="#DBA46F"/>
<stop offset="0.833333" stop-color="#C5794C"/>
</linearGradient>
<linearGradient id="paint14_linear" x1="3908.6" y1="5362.94" x2="4116.99" y2="5184" gradientUnits="userSpaceOnUse">
<stop stop-color="white"/>
<stop offset="1" stop-color="white"/>
</linearGradient>
<linearGradient id="paint15_linear" x1="2235.52" y1="836.403" x2="2100.35" y2="1321.2" gradientUnits="userSpaceOnUse">
<stop stop-color="white"/>
<stop offset="0.99" stop-color="#B4B4B4"/>
</linearGradient>
<linearGradient id="paint16_linear" x1="50.6241" y1="59.7288" x2="48.0002" y2="64.4778" gradientUnits="userSpaceOnUse">
<stop offset="0.01" stop-color="#B4B4B4"/>
<stop offset="1" stop-color="white"/>
</linearGradient>
<linearGradient id="paint17_linear" x1="43.1136" y1="61.9058" x2="52.5121" y2="65.9921" gradientUnits="userSpaceOnUse">
<stop stop-color="#6F5540"/>
<stop offset="0.0885417" stop-color="#8F5E3F"/>
<stop offset="0.229167" stop-color="#C78757"/>
<stop offset="0.411458" stop-color="#FEE6B4"/>
<stop offset="0.651042" stop-color="#D58151"/>
<stop offset="1" stop-color="#845534"/>
</linearGradient>
<linearGradient id="paint18_linear" x1="1474.54" y1="705.328" x2="1512.12" y2="866.536" gradientUnits="userSpaceOnUse">
<stop stop-color="white"/>
<stop offset="1" stop-color="white"/>
</linearGradient>
<linearGradient id="paint19_linear" x1="50.6721" y1="51.4864" x2="50.6721" y2="67.7294" gradientUnits="userSpaceOnUse">
<stop offset="0.229167" stop-color="#C78757"/>
<stop offset="0.651042" stop-color="#8F5E3F"/>
</linearGradient>
<clipPath id="clip0">
<rect width="94.8603" height="94.8603" fill="white"/>
</clipPath>
</defs>
</svg>
