<svg width="95" height="95" viewBox="0 0 95 95" fill="none" xmlns="http://www.w3.org/2000/svg">
<g clip-path="url(#clip0)">
<path d="M79.9164 47.4294L83.878 41.0037L77.9652 36.3127L79.4812 28.9206L72.3179 26.5444L71.2146 19.0788L63.6713 19.2851L60.0877 12.6449L53.0715 15.4277L47.4263 10.4199L41.7811 15.4277L34.765 12.6429L31.1792 19.2851L23.636 19.0788L22.5347 26.5444L15.3715 28.9206L16.8854 36.3127L10.9746 41.0037L14.9363 47.4294L10.9746 53.8551L16.8854 58.5441L15.3715 65.9382L22.5347 68.3124L23.636 75.7801L31.1792 75.5737L34.765 82.2139L41.7811 79.4312L47.4263 84.4369L53.0715 79.4312L60.0877 82.2139L63.6713 75.5737L71.2167 75.778L72.3179 68.3124L79.4812 65.9382L77.9652 58.5441L83.878 53.8551L79.9164 47.4294Z" fill="url(#paint0_linear)"/>
<path d="M47.4261 10.4235L53.0713 15.4353L60.0874 12.6526L63.6711 19.2928L71.2144 19.0885L72.3156 26.5541L79.4809 28.9201L77.9649 36.3122L83.8778 41.0114L79.9161 47.431L83.8757 53.8566L77.967 58.5456L79.4809 65.9377L72.3156 68.3139L71.2083 75.7796L63.6629 75.5752L60.0793 82.2155L53.0631 79.4327L47.4179 84.4384L41.787 79.4327L34.7729 82.2155L31.1872 75.5752L23.6439 75.7796L22.5426 68.3119L15.3712 65.9398L16.8852 58.5456L10.9744 53.8566L14.936 47.431L10.9744 41.0053L16.8852 36.306L15.3712 28.9201L22.5345 26.5439L23.6357 19.0783L31.179 19.2826L34.7647 12.6424L41.787 15.4353L47.4342 10.4296L47.4261 10.4235ZM47.4342 9.06277L46.7559 9.66345L41.5827 14.2462L35.1427 11.6964L34.2968 11.3613L33.8657 12.1663L30.5804 18.2549L23.6643 18.0587L22.7572 18.0342L22.6264 18.9312L21.6048 25.7757L15.0504 27.9537L14.1882 28.2377L14.3701 29.1264L15.7594 35.9056L10.3389 40.1962L9.62793 40.7703L10.104 41.5426L13.7346 47.431L10.104 53.3193L9.62793 54.0916L10.3389 54.6637L15.7594 58.9543L14.3701 65.7314L14.1882 66.6201L15.0484 66.9062L21.615 69.0842L22.6366 75.9287L22.7674 76.8256L23.6745 76.7991L30.5906 76.6111L33.8759 82.6997L34.3071 83.4986L35.1529 83.1635L41.5827 80.6116L46.758 85.2005L47.4363 85.8012L48.1146 85.2005L53.2797 80.6116L59.7094 83.1635L60.5533 83.4986L60.9864 82.6997L64.2718 76.6111L71.1878 76.7991L72.095 76.8236L72.2257 75.9267L73.2351 69.0842L79.8017 66.9062L80.6619 66.6201L80.48 65.7314L79.0927 58.9543L84.5132 54.6637L85.2242 54.0998L84.7461 53.3275L81.1175 47.431L84.7461 41.5406L85.2242 40.7703L84.5132 40.2064L79.0927 35.9158L80.48 29.1244L80.6619 28.2356L79.8017 27.9516L73.2351 25.7736L72.2298 18.9312L72.097 18.0342L71.1919 18.0587L64.2759 18.2487L60.9925 12.1663L60.5594 11.3674L59.7156 11.7025L53.2797 14.2462L48.1044 9.65732L47.4261 9.05664L47.4342 9.06277Z" fill="url(#paint1_linear)"/>
<path d="M71.1423 71.1448C84.2398 58.0473 84.2398 36.8121 71.1423 23.7146C58.0448 10.6171 36.8096 10.6171 23.7122 23.7146C10.6147 36.8121 10.6147 58.0473 23.7122 71.1448C36.8096 84.2422 58.0448 84.2422 71.1423 71.1448Z" fill="url(#paint2_linear)"/>
<path d="M47.4283 81.378C28.7131 81.378 13.4814 66.1484 13.4814 47.4312C13.4814 28.714 28.7131 13.4844 47.4283 13.4844C66.1435 13.4844 81.373 28.716 81.373 47.4312C81.373 66.1464 66.1455 81.378 47.4283 81.378ZM47.4283 14.3016C29.1605 14.3016 14.2987 29.1635 14.2987 47.4312C14.2987 65.6989 29.1605 80.5607 47.4283 80.5607C65.696 80.5607 80.5558 65.6969 80.5558 47.4312C80.5558 29.1655 65.694 14.3016 47.4283 14.3016Z" fill="#AA6D12"/>
<path d="M73.9278 47.4293C73.9278 42.1881 72.3737 37.0647 69.4619 32.7069C66.5501 28.3491 62.4114 24.9525 57.5692 22.9469C52.7271 20.9412 47.3989 20.4164 42.2585 21.4389C37.1181 22.4614 32.3963 24.9852 28.6903 28.6912C24.9842 32.3973 22.4604 37.119 21.4379 42.2595C20.4154 47.3999 20.9402 52.728 22.9459 57.5702C24.9516 62.4124 28.3481 66.551 32.7059 69.4628C37.0637 72.3747 42.1872 73.9288 47.4283 73.9288C54.4564 73.9288 61.1967 71.1369 66.1663 66.1673C71.1359 61.1976 73.9278 54.4574 73.9278 47.4293Z" fill="url(#paint3_radial)"/>
<g style="mix-blend-mode:multiply">
<g style="mix-blend-mode:multiply">
<path d="M76.387 44.9375L76.3503 45.8038C76.3503 46.0183 76.3135 46.2349 76.3012 46.3963C76.289 46.5577 76.2747 46.666 76.2747 46.666L75.6413 47.0562L75.0059 47.4322H75.7516L76.1602 47.1809L76.5689 46.9234L76.622 46.3534C76.6363 46.2104 76.6486 46.0674 76.6588 45.9611C76.669 45.8549 76.669 45.7813 76.669 45.7813L76.7814 45.9039L77.0143 46.1797L77.3534 46.5884L78.2769 46.3575L77.8683 47.4322H78.2402L78.5548 46.6149C78.6324 46.4106 78.7101 46.194 78.7693 46.0367C78.8286 45.8794 78.8633 45.7711 78.8633 45.7711L78.1625 45.9632L77.4597 46.1491L77.2983 45.955C77.2002 45.8385 77.0592 45.6873 76.9244 45.5361L76.387 44.9375Z" fill="#A9A9A9"/>
</g>
<g style="mix-blend-mode:multiply">
<path d="M74.0117 38.7922L74.4203 38.3304L74.829 37.8584L74.782 37.6378C74.7575 37.505 74.7146 37.3313 74.6676 37.1576L74.4837 36.4609L75.0619 36.794L75.4705 37.031L75.6524 37.1413L76.157 36.8205L76.6596 36.4957C76.6596 36.4957 76.6596 36.5876 76.6596 36.7245C76.6596 36.8614 76.6433 37.0473 76.6331 37.2332C76.6086 37.5969 76.5861 37.9626 76.5861 37.9626L76.7373 38.1343C76.8292 38.2385 76.9416 38.3815 77.054 38.5245L77.5055 39.1048L76.3082 39.1742L76.0508 39.7872C75.9282 40.0936 75.779 40.4001 75.779 40.4001L75.7034 40.1958C75.6564 40.0691 75.5829 39.9036 75.5134 39.7361C75.3745 39.4051 75.2376 39.0721 75.2376 39.0721C75.2376 39.0721 74.9393 38.9944 74.639 38.925L74.0117 38.7922Z" stroke="#A9A9A9" stroke-width="0.306471" stroke-miterlimit="10"/>
</g>
<g style="mix-blend-mode:multiply">
<path d="M70.0357 31.007L70.287 30.4369C70.4096 30.1509 70.5199 29.8648 70.5199 29.8669L70.146 29.2539C70.05 29.1007 69.9601 28.9434 69.8845 28.831L69.7578 28.6451L69.9621 28.6839C70.0868 28.7064 70.2482 28.7432 70.4096 28.782L71.0613 28.9413L71.8234 28.0117C71.8234 28.0117 71.9256 28.3652 72.0277 28.7186C72.0788 28.8923 72.1279 29.068 72.1565 29.2049C72.1851 29.3418 72.2096 29.4276 72.2096 29.4276L72.8225 29.8179C72.9758 29.918 73.1372 30.0222 73.2475 30.0937L73.4355 30.2265L72.322 30.6617C72.322 30.6617 72.2913 30.9988 72.2627 31.3359C72.2341 31.673 72.1953 31.9999 72.1953 31.9999L71.7356 31.4442C71.6212 31.3053 71.5108 31.1643 71.4168 31.0662L71.2657 30.9007L70.6527 30.9498L70.0357 31.007Z" stroke="#A9A9A9" stroke-width="0.306471" stroke-miterlimit="10"/>
</g>
<g style="mix-blend-mode:multiply">
<path d="M63.8542 24.8196C63.8542 24.8196 63.8828 24.5131 63.9135 24.2067L63.9625 23.5937L63.795 23.4425C63.6989 23.3486 63.558 23.2382 63.419 23.1218L62.8633 22.6641L63.5253 22.5967L64.2015 22.5354L64.6367 21.4219L64.7675 21.6098C64.8472 21.7222 64.9452 21.8816 65.0454 22.0348C65.2395 22.3454 65.4356 22.6478 65.4356 22.6478L65.6583 22.7009C65.7931 22.7295 65.9689 22.7765 66.1446 22.8276L66.8515 23.0319L65.9219 23.7919C65.9219 23.7919 66.0016 24.1188 66.0792 24.4437C66.118 24.6051 66.1548 24.7665 66.1773 24.8932L66.2181 25.0975L66.0302 24.9729C65.9198 24.8952 65.7625 24.8053 65.6093 24.7113L64.9963 24.3374C64.9963 24.3374 64.7103 24.4478 64.4263 24.5704L63.8542 24.8196Z" stroke="#A9A9A9" stroke-width="0.306471" stroke-miterlimit="10"/>
</g>
<g style="mix-blend-mode:multiply">
<path d="M56.0668 20.8467C56.0668 20.8467 56.0015 20.5423 55.934 20.2338C55.8666 19.9253 55.7869 19.6352 55.7869 19.6352L55.125 19.3573C54.9574 19.2899 54.7919 19.2163 54.6653 19.1693L54.4609 19.0937C54.4609 19.0937 54.7654 18.9425 55.0739 18.82L55.6868 18.5646L55.7563 17.3652L56.3365 17.8188C56.4816 17.9312 56.6246 18.0415 56.7268 18.1355L56.9004 18.2846L57.6299 18.2397L58.1366 18.2111H58.3654L58.0426 18.7117L57.7259 19.2225L57.8382 19.4022C57.9016 19.5126 57.9874 19.6576 58.0753 19.8109L58.4083 20.387L57.7116 20.2052C57.5379 20.1562 57.3622 20.1133 57.2294 20.0887L57.0108 20.0438L56.5368 20.4524L56.0668 20.8467Z" stroke="#A9A9A9" stroke-width="0.306471" stroke-miterlimit="10"/>
</g>
<g style="mix-blend-mode:multiply">
<path d="M47.4252 19.4791L47.1105 18.954L46.7877 18.429L46.0767 18.3615C45.8949 18.3391 45.7171 18.3411 45.5823 18.3329L45.3555 18.3227L45.852 17.8691C46.1033 17.6505 46.3648 17.438 46.3648 17.438L46.0604 16.2734L47.4313 16.7924L48.8002 16.2734L48.4978 17.438C48.4978 17.438 48.7573 17.6423 49.0086 17.8691L49.5051 18.3227L49.2803 18.3329C49.1455 18.3329 48.9657 18.3329 48.7859 18.3615L48.0688 18.429C48.0688 18.429 47.9053 18.6905 47.7439 18.954L47.4252 19.4791Z" stroke="#A9A9A9" stroke-width="0.306471" stroke-miterlimit="10"/>
</g>
<g style="mix-blend-mode:multiply">
<path d="M38.7902 20.8452L38.3285 20.4366L37.8565 20.028L37.6358 20.0729C37.503 20.0975 37.3294 20.1404 37.1557 20.1894L36.459 20.3712L36.792 19.7951L37.029 19.3864L37.1394 19.2066C37.1394 19.2066 36.98 18.9533 36.8186 18.702L36.4937 18.1994H36.7225L37.2313 18.228L37.9607 18.2729L38.1323 18.1238C38.2365 18.0298 38.3795 17.9195 38.5226 17.8071L39.1028 17.3535L39.1723 18.5528L39.7852 18.8082C40.0896 18.9308 40.3982 19.082 40.3982 19.082L40.1938 19.1576C40.0672 19.2046 39.9017 19.2782 39.7341 19.3456L39.0701 19.6234C39.0701 19.6234 38.9904 19.9299 38.9291 20.2384L38.7902 20.8452Z" stroke="#A9A9A9" stroke-width="0.306471" stroke-miterlimit="10"/>
</g>
<g style="mix-blend-mode:multiply">
<path d="M31.003 24.8197L30.435 24.5704C30.1489 24.4479 29.8649 24.3375 29.8649 24.3375L29.252 24.7114C29.0988 24.8054 28.9414 24.8953 28.8291 24.9729L28.6431 25.0976C28.6431 25.0976 28.6595 25.0159 28.682 24.8933C28.7044 24.7707 28.7412 24.6052 28.78 24.4438C28.8597 24.1189 28.9374 23.792 28.9374 23.792L28.0098 23.032L28.7167 22.8276C28.8904 22.7766 29.0661 22.7296 29.2009 22.701L29.4236 22.6479L29.8159 22.0349C29.914 21.8796 30.0202 21.7203 30.0917 21.6079L30.2245 21.4199L30.6597 22.5334L31.336 22.5947L31.998 22.6622L31.4402 23.1198C31.3013 23.2342 31.1623 23.3466 31.0643 23.4406L30.8967 23.5918C30.8967 23.5918 30.9233 23.9023 30.9478 24.2047L31.003 24.8197Z" stroke="#A9A9A9" stroke-width="0.306471" stroke-miterlimit="10"/>
</g>
<g style="mix-blend-mode:multiply">
<path d="M24.818 31.0071L24.2051 30.9478L23.5921 30.8988L23.441 31.0643C23.347 31.1623 23.2366 31.3033 23.1202 31.4422L22.6625 31.998L22.5849 31.334C22.5563 30.9968 22.5256 30.6597 22.5256 30.6597L21.4121 30.2245L21.6001 30.0917C21.7125 30.0141 21.8718 29.916 22.0251 29.8159L22.638 29.4257L22.6891 29.203C22.7197 29.0661 22.7667 28.8904 22.8178 28.7167C22.9199 28.3632 23.0221 28.0098 23.0221 28.0098L23.7842 28.9394L24.436 28.78C24.5974 28.7412 24.7588 28.7044 24.8834 28.682L25.0877 28.6431L24.9631 28.8291C24.8855 28.9414 24.7956 29.0988 24.7016 29.252C24.5136 29.5585 24.3277 29.8649 24.3277 29.8649C24.3277 29.8649 24.438 30.1489 24.5606 30.435L24.818 31.0071Z" stroke="#A9A9A9" stroke-width="0.306471" stroke-miterlimit="10"/>
</g>
<g style="mix-blend-mode:multiply">
<path d="M20.8428 38.7923L20.2298 38.923C19.9295 38.9925 19.6332 39.0701 19.6332 39.0701L19.3553 39.7341C19.2879 39.9017 19.2144 40.0672 19.1674 40.1938C19.1204 40.3205 19.0897 40.3982 19.0897 40.3982C19.0897 40.3982 18.9406 40.0958 18.818 39.7852C18.6954 39.4747 18.5626 39.1723 18.5626 39.1723L17.3633 39.1028L17.8209 38.5226C17.9333 38.3795 18.0436 38.2365 18.1376 38.1323L18.2868 37.9607L18.2418 37.2313C18.2418 37.0454 18.2214 36.8615 18.2132 36.7226C18.2051 36.5836 18.2132 36.4937 18.2132 36.4937L18.7138 36.8186L19.2205 37.1394L19.4003 37.029L19.8089 36.792L20.3851 36.459C20.3851 36.459 20.2931 36.8063 20.2033 37.1557C20.1542 37.3294 20.1113 37.503 20.0868 37.6358C20.0623 37.7686 20.0398 37.8565 20.0398 37.8565L20.4484 38.3285L20.8428 38.7923Z" stroke="#A9A9A9" stroke-width="0.306471" stroke-miterlimit="10"/>
</g>
<g style="mix-blend-mode:multiply">
<path d="M16.9745 47.4322L16.5659 46.3575L17.4894 46.5884L17.8286 46.1797L18.0635 45.9039L18.1759 45.7813C18.1759 45.7813 18.1759 45.8528 18.1759 45.9611C18.1759 46.0694 18.2004 46.2104 18.2127 46.3534L18.2658 46.9234L18.6744 47.1809L19.083 47.4322H19.8267L19.1934 47.0562L18.558 46.666C18.558 46.666 18.5477 46.5577 18.5334 46.3963C18.5191 46.2349 18.4905 46.0183 18.4844 45.8038C18.466 45.3706 18.4456 44.9375 18.4456 44.9375L17.898 45.528C17.7611 45.6792 17.6201 45.8304 17.5241 45.9468L17.3627 46.1409L16.6578 45.955L15.957 45.7629C15.957 45.7629 15.9938 45.8692 16.0531 46.0285C16.1123 46.1879 16.1899 46.3963 16.2574 46.6067L16.572 47.424L16.9745 47.4322Z" fill="#A9A9A9"/>
</g>
<g style="mix-blend-mode:multiply">
<path d="M18.4666 49.9263C18.4666 49.9263 18.487 49.4932 18.5054 49.06C18.5054 48.8435 18.5422 48.6289 18.5545 48.4675C18.5667 48.3061 18.579 48.1978 18.579 48.1978L19.2144 47.8055L19.8478 47.4316H19.1102L18.7016 47.6809L18.2929 47.9383L18.2398 48.5104C18.2276 48.6534 18.2133 48.7965 18.203 48.9027C18.1928 49.0089 18.203 49.0825 18.203 49.0825L18.0907 48.9579C18.0253 48.8843 17.9415 48.7842 17.8557 48.6841L17.5166 48.2755L16.5931 48.5063L17.0017 47.4316H16.6033L16.2886 48.2489C16.211 48.4532 16.1313 48.6698 16.0843 48.8271C16.0373 48.9844 15.9883 49.0927 15.9883 49.0927L16.6891 48.9007L17.394 48.7147L17.5554 48.919C17.6514 49.0335 17.7924 49.1867 17.9293 49.3277L18.4666 49.9263Z" fill="#A9A9A9"/>
</g>
<g style="mix-blend-mode:multiply">
<path d="M20.8432 56.069L20.4346 56.5307L20.0259 57.0027C20.0259 57.0027 20.0464 57.0905 20.0729 57.2213C20.0995 57.3521 20.1404 57.5298 20.1894 57.7035C20.2793 58.0508 20.3712 58.4002 20.3712 58.4002L19.7951 58.0672L19.3864 57.8302C19.2782 57.7648 19.2066 57.7178 19.2066 57.7178L18.6999 58.0406L18.1994 58.3655C18.1994 58.3655 18.1994 58.2735 18.1994 58.1366C18.1994 57.9998 18.2178 57.8118 18.228 57.6279L18.2729 56.8985L18.1238 56.7248C18.0298 56.6206 17.9195 56.4797 17.8071 56.3366L17.3535 55.7564L18.5528 55.6849C18.5528 55.6849 18.6795 55.3743 18.8082 55.0719C18.937 54.7695 19.08 54.459 19.08 54.459C19.08 54.459 19.1127 54.5448 19.1576 54.6633C19.2026 54.7818 19.2782 54.9555 19.3456 55.123L19.6234 55.785C19.6234 55.785 19.9197 55.8626 20.22 55.9321L20.8432 56.069Z" stroke="#A9A9A9" stroke-width="0.306471" stroke-miterlimit="10"/>
</g>
<g style="mix-blend-mode:multiply">
<path d="M24.8156 63.8582L24.5664 64.4282C24.4438 64.7122 24.3334 64.9983 24.3334 64.9983C24.3334 64.9983 24.5194 65.3068 24.7073 65.6112C24.8013 65.7644 24.8912 65.9218 24.9689 66.0321L25.0935 66.2201L24.8892 66.1792C24.7645 66.1567 24.6031 66.12 24.4417 66.0811L23.79 65.9238L23.0299 66.8534L22.8256 66.1465C22.7745 65.9708 22.7275 65.7971 22.6969 65.6603L22.6458 65.4376L22.0329 65.0473C21.8796 64.9472 21.7203 64.843 21.6079 64.7715L21.4199 64.6387L22.5334 64.2035C22.5334 64.2035 22.5641 63.8643 22.5927 63.5272L22.6622 62.8652L23.1198 63.421C23.2342 63.5599 23.3466 63.7009 23.4406 63.7969L23.5918 63.9644L24.2047 63.9154L24.8156 63.8582Z" stroke="#A9A9A9" stroke-width="0.306471" stroke-miterlimit="10"/>
</g>
<g style="mix-blend-mode:multiply">
<path d="M31.0021 70.0436L30.9449 70.6565C30.9204 70.9671 30.8938 71.2695 30.8938 71.2695L31.0613 71.4207C31.1594 71.5126 31.2983 71.625 31.4373 71.7394L31.995 72.1991L31.3331 72.2665L30.6568 72.3258L30.2216 73.4393L30.0888 73.2534C30.0091 73.141 29.911 72.9816 29.813 72.8263L29.4207 72.2134L29.198 72.1603C29.0631 72.1317 28.8874 72.0847 28.7138 72.0336L28.0068 71.8293L28.9344 71.0672C28.9344 71.0672 28.8568 70.7423 28.7771 70.4154C28.7383 70.254 28.7015 70.0947 28.679 69.968C28.6566 69.8413 28.6402 69.7637 28.6402 69.7637L28.8261 69.8903C28.9385 69.9659 29.0958 70.0558 29.2491 70.1519L29.862 70.5258C29.862 70.5258 30.146 70.4154 30.432 70.2928L31.0021 70.0436Z" stroke="#A9A9A9" stroke-width="0.306471" stroke-miterlimit="10"/>
</g>
<g style="mix-blend-mode:multiply">
<path d="M38.7893 74.0176L38.9201 74.6305C38.9896 74.9309 39.0672 75.2292 39.0672 75.2292L39.7312 75.505C39.8987 75.5745 40.0642 75.648 40.1909 75.695L40.3952 75.7706C40.3952 75.7706 40.0908 75.9197 39.7823 76.0444L39.1693 76.2998L39.0999 77.4991L38.5196 77.0394C38.3766 76.927 38.2336 76.8146 38.1294 76.7227L37.9578 76.5736L37.2284 76.6185L36.7196 76.6471H36.4908L36.8156 76.1445C36.9771 75.8932 37.1364 75.6398 37.1364 75.6398C37.1364 75.6398 37.0915 75.5683 37.0261 75.458C36.9607 75.3477 36.8749 75.2026 36.7891 75.0494C36.6216 74.7613 36.4561 74.4712 36.4561 74.4712L37.1528 74.655C37.3264 74.702 37.5001 74.7449 37.6329 74.7715L37.8536 74.8164L38.3255 74.4078L38.7893 74.0176Z" stroke="#A9A9A9" stroke-width="0.306471" stroke-miterlimit="10"/>
</g>
<g style="mix-blend-mode:multiply">
<path d="M47.4264 75.3828L47.739 75.9079L48.0639 76.433L48.781 76.5004C48.9608 76.5208 49.1406 76.5208 49.2755 76.529L49.5002 76.5392L49.0037 76.9928C48.7524 77.2114 48.4929 77.4239 48.4929 77.4239L48.7953 78.5885L47.4264 78.0695L46.0555 78.5885L46.3599 77.4239C46.3599 77.4239 46.0984 77.2196 45.8471 76.9928L45.3506 76.5392L45.5774 76.529C45.7122 76.529 45.89 76.529 46.0718 76.5004L46.789 76.433L47.1118 75.9079L47.4264 75.3828Z" stroke="#A9A9A9" stroke-width="0.306471" stroke-miterlimit="10"/>
</g>
<g style="mix-blend-mode:multiply">
<path d="M56.0651 74.0176L56.5248 74.4262L56.9988 74.8348L57.2174 74.7899C57.3502 74.7633 57.5259 74.7204 57.6996 74.6734L58.3963 74.4895L58.0633 75.0678C57.9754 75.2128 57.8896 75.3599 57.8263 75.4764L57.7139 75.6582L58.0367 76.1629L58.3595 76.6655H58.1327L57.624 76.6369L56.8946 76.5919L56.7209 76.7411C56.6188 76.833 56.4757 76.9454 56.3327 77.0578L55.7504 77.5114L55.681 76.312L55.068 76.0566C54.7615 75.932 54.4551 75.7829 54.4551 75.7829L54.6594 75.7073C54.7861 75.6603 54.9516 75.5867 55.1191 75.5172L55.7811 75.2414C55.7811 75.2414 55.8587 74.9431 55.9282 74.6428C55.9977 74.3424 56.0651 74.0176 56.0651 74.0176Z" stroke="#A9A9A9" stroke-width="0.306471" stroke-miterlimit="10"/>
</g>
<g style="mix-blend-mode:multiply">
<path d="M63.8562 70.0436L64.4263 70.2928C64.7103 70.4154 64.9963 70.5258 64.9963 70.5258L65.6093 70.1519C65.7625 70.0558 65.9198 69.9659 66.0302 69.8903L66.2181 69.7637L66.1773 69.968C66.1548 70.0947 66.118 70.254 66.0792 70.4154C66.0015 70.7423 65.9219 71.0672 65.9219 71.0672L66.8515 71.8293L66.1446 72.0336C65.9689 72.0847 65.7931 72.1317 65.6583 72.1603L65.4356 72.2134L65.0454 72.8263C64.9452 72.9816 64.841 73.141 64.7675 73.2534L64.6367 73.4393L64.2015 72.3258L63.5253 72.2665L62.8633 72.1991L63.419 71.7394C63.5579 71.625 63.6989 71.5126 63.795 71.4207L63.9625 71.2695L63.9135 70.6565C63.8828 70.348 63.8562 70.0436 63.8562 70.0436Z" stroke="#A9A9A9" stroke-width="0.306471" stroke-miterlimit="10"/>
</g>
<g style="mix-blend-mode:multiply">
<path d="M70.0378 63.8581L70.6508 63.9174L71.2637 63.9664L71.4149 63.7989C71.5089 63.7028 71.6192 63.5619 71.7336 63.4229L72.1933 62.8672C72.1933 62.8672 72.226 63.1982 72.2608 63.5292C72.2955 63.8602 72.32 64.2054 72.32 64.2054L73.4335 64.6406L73.2455 64.7734C73.1352 64.8511 72.9738 64.9491 72.8206 65.0493L72.2076 65.4395C72.2076 65.4395 72.1852 65.5294 72.1545 65.6622C72.1239 65.795 72.0769 65.9728 72.0258 66.1485C71.9257 66.5019 71.8215 66.8554 71.8215 66.8554L71.0594 65.9258L70.4076 66.0831C70.2462 66.1219 70.0848 66.1587 69.9602 66.1812L69.7559 66.222L69.8825 66.0341C69.9581 65.9237 70.048 65.7664 70.1441 65.6132L70.5179 65.0002C70.5179 65.0002 70.4076 64.7142 70.285 64.4302C70.1624 64.1462 70.0378 63.8581 70.0378 63.8581Z" stroke="#A9A9A9" stroke-width="0.306471" stroke-miterlimit="10"/>
</g>
<g style="mix-blend-mode:multiply">
<path d="M74.0117 56.0708L74.6247 55.9379C74.925 55.8685 75.2233 55.7908 75.2233 55.7908C75.2233 55.7908 75.3602 55.4599 75.4991 55.1289C75.5686 54.9613 75.6422 54.7958 75.6891 54.6692L75.7647 54.4648C75.7647 54.4648 75.9139 54.7693 76.0365 55.0778L76.2939 55.6907L77.4912 55.7622L77.0397 56.3425C76.9273 56.4855 76.8149 56.6265 76.723 56.7307L76.5718 56.9044C76.5718 56.9044 76.5943 57.268 76.6188 57.6338C76.629 57.8176 76.6392 58.0036 76.6453 58.1405C76.6515 58.2773 76.6453 58.3713 76.6453 58.3713L76.1427 58.0465L75.6381 57.7298C75.6381 57.7298 75.5666 57.7768 75.4562 57.8422L75.0476 58.0792L74.4796 58.402L74.6635 57.7053C74.7105 57.5316 74.7534 57.3579 74.7779 57.2231C74.8024 57.0882 74.8249 57.0045 74.8249 57.0045L74.4163 56.5325L74.0117 56.0708Z" stroke="#A9A9A9" stroke-width="0.306471" stroke-miterlimit="10"/>
</g>
<g style="mix-blend-mode:multiply">
<path d="M77.881 47.4316L78.2896 48.5063L77.3661 48.2755L77.027 48.6841L76.794 48.9579L76.6817 49.0825C76.6817 49.0825 76.6817 49.011 76.6715 48.9027C76.6612 48.7944 76.649 48.6534 76.6347 48.5104L76.5816 47.9383L76.1729 47.6809L75.7643 47.4316H75.0186L75.654 47.8055L76.2873 48.1978C76.2873 48.1978 76.2873 48.3061 76.3139 48.4675C76.3405 48.6289 76.3568 48.8435 76.3629 49.06L76.3997 49.9263L76.9493 49.3358C77.0842 49.1847 77.2251 49.0314 77.3232 48.9272L77.4846 48.7229L78.1875 48.9088L78.8883 49.1009C78.8883 49.1009 78.8535 48.9946 78.7943 48.8353C78.735 48.6759 78.6574 48.4675 78.5798 48.2571L78.2651 47.4398L77.881 47.4316Z" fill="#A9A9A9"/>
</g>
</g>
<path d="M37.9756 31.2842C38.0548 31.3286 38.1312 31.3777 38.2044 31.4313C38.2267 31.4736 38.2386 31.5205 38.2392 31.5682C38.2862 32.0014 38.3107 32.218 38.3577 32.6491C38.3709 32.7556 38.3621 32.8636 38.3319 32.9666C38.3017 33.0696 38.2506 33.1652 38.182 33.2477C38.1158 33.3326 38.0333 33.4034 37.9392 33.4557C37.8451 33.508 37.7415 33.5408 37.6344 33.5521C36.3922 33.7013 35.7731 33.7871 34.537 33.9832C34.2551 32.1955 34.1141 31.3026 33.8301 29.5169C35.1336 29.3126 35.7874 29.2207 37.0991 29.0633C37.2106 29.0474 37.3241 29.0536 37.4331 29.0816C37.5422 29.1097 37.6446 29.159 37.7345 29.2268C37.8223 29.2907 37.8954 29.3726 37.949 29.467C38.0025 29.5614 38.0353 29.6662 38.0451 29.7744C38.0921 30.2075 38.1166 30.4241 38.1636 30.8572C38.1756 30.9359 38.1635 31.0164 38.1288 31.0881C38.1105 31.1147 37.9736 31.2659 37.9756 31.2842ZM37.2156 29.8336C36.2349 29.9521 35.7445 30.0175 34.7638 30.1626C34.8271 30.5937 34.8598 30.8082 34.9252 31.2393C35.8896 31.0942 36.3738 31.035 37.3422 30.9144C37.2932 30.4813 37.2666 30.2668 37.2156 29.8336ZM37.4362 31.6888C36.478 31.8032 36.006 31.8665 35.0417 32.0096C35.105 32.4427 35.1377 32.6593 35.201 33.0924C36.147 32.9514 36.619 32.8881 37.567 32.7757C37.5139 32.3405 37.4975 32.124 37.4362 31.6888Z" fill="#FCEC96"/>
<path d="M43.4359 29.3533C43.4911 30.5097 43.5176 31.0879 43.5707 32.2423C43.576 32.3496 43.56 32.457 43.5236 32.5581C43.4873 32.6593 43.4314 32.7523 43.3591 32.8318C43.2868 32.9113 43.1995 32.9758 43.1023 33.0215C43.005 33.0673 42.8997 33.0934 42.7923 33.0983C41.6134 33.1658 41.025 33.2087 39.8502 33.317C39.7432 33.3281 39.635 33.3176 39.5321 33.286C39.4293 33.2544 39.3339 33.2024 39.2515 33.1331C39.1669 33.0671 39.0968 32.9845 39.0455 32.8903C38.9942 32.7961 38.9628 32.6924 38.9532 32.5855C38.8347 31.4352 38.7755 30.8591 38.659 29.7088C38.6458 29.601 38.6557 29.4917 38.6881 29.3881C38.7205 29.2845 38.7747 29.1891 38.847 29.1081C38.9206 29.0231 39.0103 28.9535 39.111 28.9034C39.2116 28.8532 39.3212 28.8235 39.4334 28.8159C40.6817 28.6995 41.3069 28.6545 42.5573 28.583C42.668 28.5736 42.7795 28.5869 42.8849 28.622C42.9902 28.6571 43.0874 28.7134 43.1703 28.7873C43.2516 28.8579 43.3172 28.9448 43.3629 29.0422C43.4087 29.1397 43.4335 29.2456 43.4359 29.3533ZM42.78 32.3179C42.7147 31.1349 42.6799 30.5444 42.6145 29.3614C41.356 29.4309 40.7287 29.4779 39.4722 29.5944C39.5805 30.7753 39.6356 31.3637 39.746 32.5447C40.9576 32.4323 41.5664 32.3935 42.78 32.3179Z" fill="#FCEC96"/>
<path d="M46.2557 30.7154C46.8891 31.6103 47.1976 32.0619 47.7963 32.9629H46.8748C46.4519 32.3356 46.2353 32.023 45.796 31.3999C45.3874 32.0394 45.1831 32.3602 44.7745 33.0037C44.4087 33.016 44.2249 33.0221 43.8591 33.0385C44.4251 32.1088 44.7152 31.6471 45.3118 30.7277C44.6703 29.8389 44.3393 29.3976 43.665 28.5211C44.0512 28.5047 44.2432 28.4966 44.6294 28.4843C45.0932 29.0973 45.32 29.4099 45.7674 30.033C46.1904 29.3935 46.4049 29.0748 46.8421 28.4414H47.8147C47.1772 29.3486 46.8646 29.8021 46.2557 30.7154Z" fill="#FCEC96"/>
<path d="M50.2117 32.2352C50.7164 32.2515 50.9677 32.2617 51.4724 32.2862C51.456 32.5968 51.4478 32.7541 51.4335 33.0647C50.1218 33.0013 49.466 32.9809 48.1543 32.9707C48.1543 32.6581 48.1543 32.5028 48.1543 32.1902C48.659 32.1902 48.9103 32.1902 49.4149 32.2106L49.4864 29.2501C48.9634 29.2379 48.7019 29.2338 48.1809 29.2297C48.1809 28.9171 48.1809 28.7618 48.1809 28.4492C49.5661 28.4615 50.2587 28.4819 51.6419 28.5493C51.6256 28.8599 51.6195 29.0152 51.6031 29.3278C51.0821 29.3012 50.8206 29.291 50.2996 29.2746C50.271 30.4576 50.2526 31.0501 50.2117 32.2352Z" fill="#FCEC96"/>
<path d="M55.1508 31.9456C55.2672 30.6952 55.3244 30.0679 55.4409 28.8175L56.2725 28.8972L55.8128 33.3921C55.4981 33.3594 55.3408 33.3431 55.0241 33.3145C54.2068 31.9721 53.7696 31.304 52.8706 29.9842C52.7909 31.2427 52.7521 31.872 52.6663 33.1306L51.8838 33.0836L52.129 28.5703C52.46 28.5887 52.6234 28.5969 52.9462 28.6193C53.8718 29.9413 54.311 30.6053 55.1508 31.9456Z" fill="#FCEC96"/>
<path d="M60.3134 33.9832C59.0773 33.7789 58.4582 33.7012 57.2181 33.5521C57.1111 33.5405 57.0075 33.5076 56.9134 33.4553C56.8194 33.403 56.7368 33.3324 56.6705 33.2476C56.6018 33.1652 56.5506 33.0695 56.52 32.9666C56.4895 32.8637 56.4802 32.7556 56.4927 32.649L56.8094 29.7743C56.8178 29.667 56.849 29.5627 56.9008 29.4683C56.9525 29.3739 57.0238 29.2915 57.1098 29.2267C57.2922 29.0899 57.5215 29.0311 57.7472 29.0633C59.0548 29.2206 59.7086 29.3105 61.0163 29.5169L60.8937 30.2871C59.5901 30.0828 58.9363 29.9888 57.6246 29.8336C57.4837 31.0104 57.4203 31.5988 57.2753 32.7736C58.2212 32.8881 58.6952 32.9514 59.6392 33.0903C59.7046 32.6572 59.7352 32.4406 59.8006 32.0095C59.2142 31.9216 58.92 31.8808 58.3316 31.8052L58.4337 31.0329C59.3511 31.1534 59.8088 31.2188 60.7241 31.3639C60.5627 32.41 60.4789 32.935 60.3134 33.9832Z" fill="#FCEC96"/>
<path d="M51.3357 56.0914C51.3357 56.0914 50.7902 55.9893 50.4306 56.8842C50.071 57.7791 48.4651 60.525 48.8737 61.5078C49.2823 62.4905 59.2304 66.2826 59.9067 65.9537C60.5829 65.6247 62.573 61.1605 62.3584 60.5332C62.1439 59.906 52.2122 56.0608 51.3357 56.0914Z" fill="#F4E18A"/>
<path d="M56.4344 57.8172C54.7631 57.1675 53.1368 56.5811 52.1683 56.291C52.1802 56.3441 52.1746 56.3995 52.1526 56.4492C52.1305 56.4988 52.093 56.5401 52.0457 56.5668C51.4328 56.9366 51.3368 57.5067 51.1692 58.1544C51.0329 58.6998 50.7913 59.2134 50.4582 59.6663C50.0598 60.2159 49.69 60.8717 49.8882 61.5766C49.985 61.891 50.1173 62.1932 50.2825 62.4777C51.2346 62.966 52.5524 63.5401 53.9111 64.0815L56.4344 57.8172Z" fill="#EACA75"/>
<path d="M54.4854 64.3034C55.8236 64.8244 57.1578 65.2964 58.163 65.6049L58.1957 65.564C58.4 65.2862 58.6043 65.0001 58.7719 64.7039C59.2047 64.0213 59.593 63.3116 59.9344 62.579C60.3103 61.7729 60.5155 60.8979 60.5371 60.0087C60.5371 59.8412 60.5228 59.6737 60.5045 59.5061C59.5299 59.0628 58.2733 58.5397 57.0045 58.0371L54.4854 64.3034Z" fill="url(#paint4_linear)"/>
<path d="M61.0983 60.2265C61.0174 61.233 60.7717 62.2193 60.371 63.1461C60.0316 63.9541 59.6018 64.7211 59.0899 65.4324C59.0011 65.5571 58.9042 65.6759 58.7998 65.7879C59.378 65.9432 59.7764 66.0106 59.8949 65.9534C60.5733 65.6265 62.5612 61.1602 62.3467 60.5329C62.2997 60.4022 61.8318 60.1243 61.1208 59.7852C61.1106 59.9425 61.1045 60.0916 61.0983 60.2265Z" fill="#F1DC83"/>
<path d="M51.3345 56.0923C51.3345 56.0923 51.2282 56.8748 56.7038 59.0814C62.1795 61.288 62.3409 60.5259 62.3409 60.5259C62.3409 60.5259 62.9538 58.5563 66.3046 55.3098C70.1293 51.6035 71.7822 44.8673 68.8319 42.1479C67.1606 40.6073 63.389 37.6775 60.0464 36.5394C56.9368 35.477 50.3027 39.5592 53.7862 42.4931C54.0743 42.8691 54.1029 43.1163 54.4748 43.2654C54.6076 43.8784 54.2705 44.6344 53.8087 45.1329C53.3081 45.6723 52.0434 46.1831 53.0364 43.7211C53.445 42.6995 52.5849 40.5869 49.9717 41.9374C47.3585 43.2879 46.2756 46.3996 48.9215 49.8709C51.5674 53.3422 52.1129 53.9 51.3345 56.0923Z" fill="url(#paint5_linear)"/>
<path d="M53.795 42.501C54.0831 42.8769 54.1117 43.1241 54.4836 43.2733C54.5038 43.3672 54.5127 43.4632 54.5101 43.5593L68.1338 51.1557C68.1338 51.1557 69.6457 48.99 69.9399 46.3707C70.1054 44.918 69.6028 42.8667 68.8326 42.1557C67.1613 40.6151 63.3896 37.6853 60.047 36.5472C56.9455 35.4848 50.3033 39.567 53.795 42.501Z" fill="url(#paint6_linear)"/>
<path d="M53.0344 42.5605C52.987 42.774 52.8724 42.9667 52.7075 43.1102C52.4439 43.3655 52.2171 43.7497 51.7962 43.7108C51.4734 43.6802 51.2344 43.7108 51.3467 44.1031C51.4098 44.2933 51.4246 44.4963 51.3896 44.6936C51.3161 45.0818 50.8482 44.9898 50.5887 44.9939C50.2496 44.9939 50.8502 45.5946 50.8891 45.6293C51.0091 45.7235 51.115 45.8342 51.2037 45.9583C51.2343 45.9955 51.2561 46.0391 51.2675 46.0859C51.2789 46.1327 51.2796 46.1814 51.2696 46.2285C51.2596 46.2756 51.2391 46.3199 51.2096 46.358C51.1802 46.3961 51.1426 46.4271 51.0995 46.4486C51.018 46.4854 50.9394 46.5284 50.8646 46.5774C50.4559 46.9165 50.9177 46.986 51.0689 47.0146C51.255 47.0397 51.437 47.0892 51.6103 47.1617C51.7778 47.2455 51.9699 47.3803 51.9066 47.5969C51.831 47.8584 51.5715 48.0055 51.4285 48.2098C51.077 48.7451 52.1783 48.4734 52.4153 48.5674C52.5617 48.6302 52.6801 48.7442 52.7483 48.8882C52.7831 48.9658 53.0548 49.8362 53.2223 49.6768C53.7195 49.199 54.0123 48.5474 54.0396 47.8584C54.0805 47.3047 54.0396 46.7531 54.0682 46.1994C54.0886 45.8296 54.201 45.2575 54.0314 44.8938C53.9681 44.9776 53.9027 45.0593 53.8271 45.1349C53.3265 45.6743 52.0618 46.1851 53.0548 43.7231C53.1856 43.3453 53.1783 42.9335 53.0344 42.5605Z" fill="#FDEC95"/>
<path d="M52.272 43.7673C52.154 43.8396 52.02 43.8817 51.8818 43.8899C51.6244 43.9144 51.7245 43.9941 51.8348 44.1637C51.8955 44.2432 51.9365 44.3359 51.9547 44.4342C51.9728 44.5325 51.9674 44.6338 51.939 44.7296C51.8917 44.8371 51.822 44.9332 51.7347 45.0116C51.702 45.0463 51.6714 45.0831 51.6387 45.1199C51.9405 45.0095 52.2181 44.8416 52.4559 44.6254C52.6903 44.3555 52.885 44.0534 53.0341 43.7285C53.1692 43.3563 53.1692 42.9484 53.0341 42.5762C53.0321 42.5905 53.028 43.23 52.272 43.7673Z" fill="#AA6D12"/>
<path d="M65.4496 45.5924C65.4419 45.6146 65.4297 45.635 65.4139 45.6524C65.3981 45.6698 65.3789 45.6838 65.3575 45.6935C65.3361 45.7033 65.3129 45.7086 65.2894 45.7091C65.2659 45.7096 65.2426 45.7054 65.2208 45.6966C64.4873 46.1052 63.4228 45.8744 62.6525 45.715C61.4941 45.4759 60.3193 45.3064 59.1628 45.0551C57.7796 44.7527 56.3944 44.3563 55.1501 43.6657C54.9254 43.5411 54.7006 43.4103 54.484 43.2734C54.5923 43.7781 54.3758 44.3931 54.0345 44.8712C53.9038 45.4208 54.1612 45.6762 54.3063 46.8816C54.4657 48.226 54.9805 49.4376 53.0804 52.96C52.7229 53.624 52.0793 54.4515 51.6502 54.6762C51.6142 55.1665 51.5047 55.6487 51.3253 56.1064C51.3253 56.1064 51.2191 56.8889 56.6947 59.0955C58.8891 59.9782 60.2294 60.3868 61.0487 60.5584C61.2089 59.9644 61.4286 59.388 61.7045 58.8381C62.4932 57.2608 63.6659 55.9777 64.9184 54.7518C66.6407 53.0683 68.7043 51.3418 68.8943 48.7736C68.9761 47.658 68.9597 46.0787 68.2344 45.1511C67.4907 44.1867 65.8317 44.3604 65.4496 45.5924Z" fill="url(#paint7_linear)"/>
<path d="M60.5674 46.5462C59.7073 46.3092 58.1054 46.0375 56.5343 46.82C55.5903 47.2899 53.7556 53.1415 53.539 53.6829C52.4562 56.3696 52.1722 55.8895 51.8555 56.6843C52.4684 57.1501 53.8026 57.9102 56.7038 59.0891C57.9402 59.607 59.2065 60.0505 60.4959 60.4171C60.1322 59.2423 63.0151 55.6402 64.4841 54.4287C65.2871 53.7667 67.935 48.5791 60.5674 46.5462Z" fill="url(#paint8_linear)"/>
<path d="M54.485 43.2734C54.5125 43.4078 54.5201 43.5455 54.5075 43.6821L54.5422 43.7045C54.8201 43.8823 54.0437 45.2124 54.5545 46.2707C54.9631 47.1105 58.7041 51.0599 60.3959 51.542C62.1325 52.0344 66.7705 52.3429 67.4345 51.9118C69.5001 48.6183 68.6604 45.6721 68.2517 45.1552C67.4978 44.1908 65.8367 44.3645 65.4567 45.5965C65.449 45.6187 65.4369 45.6391 65.421 45.6565C65.4052 45.6739 65.386 45.6879 65.3646 45.6976C65.3432 45.7073 65.3201 45.7126 65.2966 45.7132C65.2731 45.7137 65.2497 45.7095 65.2279 45.7007C64.4944 46.1093 63.4299 45.8784 62.6596 45.7191C61.5012 45.48 60.3264 45.3105 59.17 45.0591C57.7868 44.7568 56.4015 44.3604 55.1572 43.6698C54.9264 43.5411 54.7016 43.4103 54.485 43.2734Z" fill="url(#paint9_linear)"/>
<path d="M50.9685 42.5217C51.211 42.4387 51.4326 42.3042 51.6182 42.1274C51.7169 42.0031 51.8357 41.896 51.9696 41.8107C52.0636 41.7581 52.1612 41.7124 52.2618 41.6738C51.7469 41.4184 50.993 41.4205 49.9735 41.9456C47.3542 43.294 46.2774 46.4078 48.9233 49.8791C50.5823 52.055 51.4139 53.0827 51.6141 54.09C51.8184 53.7529 51.796 51.9937 51.9982 49.8954C52.0391 49.4745 50.1124 50.0997 49.7508 49.6278C49.6007 49.503 49.4994 49.3294 49.4647 49.1374C49.4213 48.9294 49.4305 48.7138 49.4913 48.5102C49.5608 48.2936 49.6486 48.1322 49.479 47.9238C49.2175 47.603 48.956 47.3517 48.8661 46.937C48.8401 46.843 48.8518 46.7425 48.8988 46.657C48.9065 46.4546 48.9611 46.2567 49.0581 46.0788C49.1685 45.8561 49.5505 45.5987 49.4463 45.3515C49.4071 45.2658 49.3977 45.1694 49.4198 45.0777C49.349 44.967 49.3073 44.8403 49.2983 44.7093C49.2894 44.5783 49.3136 44.4471 49.3687 44.3279C49.4866 44.1062 49.6802 43.9344 49.9142 43.8436C50.1635 43.7517 50.1921 43.7047 50.2125 43.5372C50.0389 43.1653 50.6906 42.6464 50.9685 42.5217Z" fill="#E3B639"/>
<path style="mix-blend-mode:overlay" d="M57.6322 36.7718C56.4716 36.8862 55.3643 37.6258 54.6614 38.1816C54.1994 38.5561 53.7983 38.9999 53.4723 39.4973C53.2414 39.7017 53.1924 40.1634 53.1372 40.4433C53.0616 40.8233 53.2496 41.2177 53.4417 41.5344C53.6725 41.9185 53.9733 42.256 54.3284 42.5294C55.1844 43.1347 56.1158 43.6258 57.0989 43.9902C58.4555 44.4683 60.6601 44.8075 61.3384 44.9137C61.8045 45.0617 62.292 45.1308 62.7809 45.118H62.8013C62.883 45.118 62.8749 44.9893 62.8013 44.9791C62.3702 44.9219 61.935 44.8667 61.5039 44.8013C61.2781 44.7338 61.0564 44.6533 60.8399 44.5603C60.2065 44.2926 59.6712 43.8247 59.0011 43.6225C58.6905 43.5285 59.8081 40.3207 58.5557 39.3788C57.3032 38.437 57.7915 37.4154 58.0551 37.2948C58.1246 37.2601 58.7906 36.6594 57.6322 36.7718Z" fill="url(#paint10_linear)"/>
<path style="mix-blend-mode:overlay" d="M49.9995 47.9771C49.9484 48.2632 49.9852 48.5554 49.9076 48.8414L49.8953 48.8925C49.9722 49.0133 50.0658 49.1226 50.1732 49.2173C50.3599 49.2815 50.5543 49.3207 50.7514 49.3338C50.6088 49.178 50.5088 48.988 50.4613 48.7821C50.404 48.5084 50.498 48.2039 50.4878 47.9281C50.4838 47.6777 50.4032 47.4346 50.2569 47.2314C50.1574 47.1347 50.0813 47.0166 50.0342 46.8861C49.9913 46.6818 50.1568 46.4305 50.2386 46.2609C50.3873 46.0075 50.4531 45.7138 50.4265 45.4212C50.4057 45.3242 50.3713 45.2307 50.3244 45.1433C50.2959 45.0775 50.274 45.0091 50.259 44.939C50.2304 44.7898 50.449 44.7817 50.5328 44.7694C50.6203 44.771 50.7069 44.7507 50.7847 44.7104C50.8625 44.67 50.929 44.611 50.9782 44.5385C51.0905 44.3506 51.0272 44.0952 51.0252 43.8909C51.0252 43.5047 51.3357 43.4822 51.6013 43.3331C51.6927 43.2734 51.7679 43.192 51.8199 43.0961C51.8941 42.9638 51.9925 42.8466 52.1101 42.7508C52.1911 42.7049 52.257 42.6364 52.2998 42.5537C52.3427 42.471 52.3605 42.3776 52.3512 42.2849C52.3103 42.0806 52.0753 42.1052 51.9323 42.1501C51.6197 42.2482 51.5789 42.5935 51.3562 42.7876C51.2264 42.8779 51.0898 42.9578 50.9475 43.0266C50.8216 43.1078 50.72 43.2214 50.6533 43.3556C50.4837 43.6579 50.449 43.9419 50.1364 44.1503C49.975 44.2607 49.7972 44.3547 49.7543 44.5733C49.6706 44.9635 49.8912 45.3354 49.7543 45.7297C49.6494 45.9441 49.5264 46.1492 49.3866 46.3426C49.2782 46.5275 49.2344 46.7431 49.2619 46.9556C49.2987 47.262 49.6031 47.4623 49.8013 47.6645C49.8904 47.7522 49.9582 47.8592 49.9995 47.9771Z" fill="url(#paint11_linear)"/>
<path d="M52.729 44.5137C52.729 44.5137 52.398 45.288 52.8128 45.5925C52.8128 45.5925 52.5145 46.7305 51.8566 46.8858C51.1987 47.041 51.0128 46.7816 51.5277 46.4342C52.0425 46.0869 52.2816 45.7171 52.0997 45.6435C51.9179 45.57 51.7851 45.5904 51.6462 45.4617C51.5072 45.333 52.3245 45.1797 52.729 44.5137Z" fill="#AA6D12"/>
<path d="M69.7999 48.1838C69.7631 47.8242 70.1411 47.338 70.2085 46.7863C70.2759 46.2347 70.1452 45.5604 70.0675 45.7484C69.9899 45.9364 69.9531 45.115 69.9736 44.7044C69.9858 44.4408 69.6201 43.9954 69.3606 43.7114C69.3606 43.6583 69.3647 43.6052 69.3729 43.552C69.3913 43.2374 69.4056 42.7838 69.0582 42.6408C69.0446 42.6357 69.03 42.6342 69.0156 42.6365C69.0013 42.6388 68.9878 42.6448 68.9765 42.6538C68.9652 42.6629 68.9564 42.6747 68.951 42.6882C68.9457 42.7017 68.9439 42.7163 68.9459 42.7307C69.0153 43.172 68.715 43.3804 68.431 43.6317C68.3615 43.2435 68.2655 42.6265 67.8916 42.5182C67.8805 42.5141 67.8686 42.5126 67.8568 42.5137C67.845 42.5148 67.8336 42.5185 67.8234 42.5246C67.8132 42.5307 67.8045 42.5389 67.7979 42.5488C67.7914 42.5586 67.7871 42.5698 67.7854 42.5815C67.7854 42.6061 67.6995 42.9902 67.6239 42.937C67.5406 42.8669 67.4713 42.7816 67.4196 42.6857C67.3334 42.5555 67.2264 42.4402 67.1029 42.3445C66.9701 42.2444 66.7474 42.1729 66.6943 42.3895C66.6739 42.4773 66.7822 42.5938 66.8271 42.6571C66.8721 42.7205 66.8067 42.7532 66.727 42.8063C66.1141 42.0135 65.9097 43.1414 65.6012 43.1046C65.1742 43.0535 64.4652 42.696 64.5899 42.9779C64.8146 43.5071 65.0435 44.4408 64.5613 44.8167C64.0791 45.1927 62.9268 45.6054 62.9268 45.6054C62.9268 45.6054 64.3202 45.9772 65.1415 45.4889C65.5215 45.2621 65.5297 44.7085 66.1733 44.4347C66.4078 44.3444 66.6254 44.2152 66.8169 44.0526C66.9048 44.1221 66.9681 44.1936 66.9272 44.2753C66.9248 44.2794 66.9232 44.284 66.9225 44.2888C66.9219 44.2935 66.9223 44.2983 66.9236 44.303C66.925 44.3076 66.9273 44.3118 66.9303 44.3155C66.9334 44.3192 66.9372 44.3222 66.9415 44.3243C66.9403 44.3376 66.9424 44.3509 66.9478 44.3631C66.9532 44.3752 66.9615 44.3858 66.9722 44.3938C67.0805 44.4796 67.2562 44.3652 67.3808 44.4204C67.6321 44.5246 67.8221 44.7289 68.0796 44.8045C68.2614 44.8596 68.3411 45.1028 68.5413 45.1212C68.5785 45.1275 68.6165 45.1275 68.6537 45.1212C69.283 46.1856 69.4158 48.429 69.1093 49.6467C69.3363 49.4789 69.5183 49.2575 69.6388 49.0022C69.7593 48.7469 69.8146 48.4658 69.7999 48.1838Z" fill="url(#paint12_linear)"/>
<path style="mix-blend-mode:multiply" d="M48.8444 59.87C48.8444 59.87 48.7034 60.9426 49.3061 61.4412C49.6433 61.7211 51.6231 62.7508 53.5559 63.5374C53.705 63.5967 53.8767 63.6825 54.0095 63.6294C54.0187 63.666 54.038 63.6993 54.065 63.7256C54.0921 63.7519 54.1259 63.7702 54.1627 63.7785C54.459 63.895 54.6633 64.0462 55.0515 64.0176C55.7238 64.325 56.4401 64.5256 57.1743 64.6121C58.6372 64.6898 59.6833 60.9202 58.8803 60.3787C58.0774 59.8373 51.3677 57.2752 51.0428 56.9973C50.718 56.7195 50.8201 56.5703 50.8201 56.5703C50.7396 56.6128 50.6665 56.668 50.6035 56.7338C50.3032 56.7971 49.7025 57.126 48.8444 59.87Z" fill="url(#paint13_linear)"/>
<path d="M48.7566 59.644C48.7566 59.644 48.6156 60.7166 49.2163 61.2152C49.817 61.7137 55.6154 64.3064 57.0865 64.3861C58.5575 64.4658 59.5934 60.6942 58.7925 60.1527C57.9916 59.6113 51.2799 57.0492 50.955 56.7713C50.6301 56.4935 50.7752 56.3382 50.7752 56.3382C50.7752 56.3382 50.0213 55.5986 48.7566 59.644Z" fill="url(#paint14_linear)"/>
<path d="M48.7566 59.644C48.7566 59.644 48.6156 60.7166 49.2163 61.2152C49.7843 61.6851 54.9902 64.0224 56.8004 64.3493C57.0865 64.3861 57.3173 64.3923 57.7668 63.7957C58.2163 63.1991 58.5391 62.1387 58.5841 61.8853C58.7884 60.8024 58.5575 60.5185 57.5135 60.0342C56.8862 59.7421 56.0588 59.2885 55.407 59.0637C54.8084 58.8594 52.4261 57.942 51.856 57.6192C51.4985 57.4149 50.6771 57.1289 50.3768 56.8428C50.1582 56.6385 50.4544 56.3218 50.7548 56.3607C50.7593 56.3525 50.7648 56.345 50.7711 56.3382C50.7711 56.3382 50.0213 55.5986 48.7566 59.644Z" fill="url(#paint15_linear)"/>
<path d="M50.2441 56.4693C50.2065 56.5612 50.1771 56.6562 50.1562 56.7533V56.8085L50.1726 56.8371C50.2336 56.9119 50.3021 56.9804 50.3769 57.0414C50.7406 57.2089 51.09 57.45 51.4475 57.6074C51.9992 57.8525 52.5692 58.0425 53.1229 58.2816C53.6766 58.5206 55.779 59.3338 55.9833 59.4176C56.5357 59.6439 57.0746 59.9018 57.5974 60.1899C57.9611 60.3942 58.2634 60.5577 58.4044 60.9683C58.6843 61.7856 58.1797 62.9808 57.7138 63.6408C57.5271 63.9357 57.2737 64.1827 56.9742 64.362C57.1908 64.362 57.4094 64.266 57.7629 63.796C58.2144 63.2015 58.5352 62.139 58.5801 61.8857C58.7844 60.8028 58.5536 60.5188 57.5095 60.0346C56.8823 59.7424 56.0548 59.2889 55.403 59.0641C54.8044 58.8598 52.4221 57.9424 51.8521 57.6196C51.4945 57.4153 50.6732 57.1293 50.3728 56.8432C50.1542 56.6389 50.4505 56.3222 50.7508 56.361C50.7553 56.3529 50.7608 56.3454 50.7672 56.3386C50.7672 56.3386 50.5874 56.1547 50.2441 56.4693Z" fill="white"/>
<path d="M47.9111 47.7839C47.9111 47.7839 46.9427 45.5364 48.2523 43.5444C49.562 41.5523 51.5091 41.6483 50.6857 42.247C49.8623 42.8456 47.576 45.1768 47.9111 47.7839Z" fill="#FEEE98"/>
<path style="mix-blend-mode:overlay" d="M56.1251 61.9794C56.3049 61.3317 56.2783 60.2999 56.1864 60.0854C55.9678 59.5685 51.5873 57.9523 50.7639 57.6214C49.9405 57.2904 50.0161 57.0391 50.0161 57.0391C50.0161 57.0391 49.5176 58.1158 49.2295 58.7778C50.3042 60.2917 56.1251 61.9794 56.1251 61.9794Z" fill="url(#paint16_linear)"/>
<path d="M68.5944 52.3221C68.1874 52.2498 67.768 52.3092 67.3971 52.4916C66.9313 52.7246 66.5615 53.1046 66.1713 53.4294C65.8024 53.7405 65.4141 54.0278 65.0087 54.2896C63.4988 55.2601 61.7049 55.9139 59.9009 55.5155C57.6125 55.0088 54.9115 54.1772 54.4457 52.5836C54.2756 52.0312 54.1391 51.4689 54.037 50.9C53.5058 50.7836 52.5578 50.1543 52.2288 50.6467C51.7753 51.3291 52.2575 53.8912 51.6609 54.5C51.6537 55.0487 51.5443 55.5913 51.338 56.0998C51.338 56.0998 51.2318 56.8823 56.7074 59.0889C62.183 61.2955 62.3444 60.5334 62.3444 60.5334C62.3444 60.5334 62.9574 58.5639 66.3081 55.3173C67.209 54.4328 67.9788 53.4242 68.5944 52.3221Z" fill="url(#paint17_linear)"/>
<path d="M48.043 47.998C48.043 47.998 48.8602 49.4017 50.0391 50.9872C51.1567 52.497 51.4489 52.5359 51.549 53.4389C51.549 53.4389 51.3835 51.2426 50.2966 50.3844C49.2096 49.5263 49.0768 49.5202 48.043 47.998Z" fill="#AA6D12"/>
<path d="M48.8461 59.8223C48.8233 60.2628 48.9695 60.6953 49.2547 61.0318C49.7246 61.5222 56.0297 64.1823 56.6631 64.2252C57.2965 64.2681 57.6459 63.4815 57.6459 63.4815C57.6459 63.4815 57.0534 63.6858 54.6567 62.6949C52.2601 61.704 49.8451 60.8479 48.8461 59.8223Z" fill="#DAA927"/>
<path d="M57.2773 64.8373C57.2773 64.8373 58.2642 65.2459 58.5196 65.1131C58.5196 65.1131 58.9282 65.3971 59.1816 65.3174C59.1816 65.3174 59.8537 65.6586 60.0826 65.4829C60.3114 65.3072 60.957 64.2305 60.957 64.2305C60.5148 64.4516 60.0477 64.619 59.5657 64.729C59.5657 64.729 59.2878 64.6473 58.8628 64.5655C58.3893 64.8577 57.8211 64.9551 57.2773 64.8373Z" fill="#AA6D12"/>
<path d="M59.3987 60.4058C59.5519 60.2607 60.3386 60.4568 60.3815 60.6469C60.3916 60.8958 60.3198 61.1413 60.1771 61.3456C60.0811 61.4314 59.5826 61.4089 59.3926 61.1556C59.3081 61.0486 59.2626 60.916 59.2637 60.7796C59.2648 60.6432 59.3124 60.5114 59.3987 60.4058Z" fill="#AA6D12"/>
<path d="M60.6521 60.6878C60.6998 60.6532 60.7586 60.6376 60.8172 60.644C60.8757 60.6504 60.9298 60.6784 60.9688 60.7225C61.0363 60.8308 60.9341 61.3354 60.8197 61.4642C60.7053 61.5929 60.552 61.5602 60.4805 61.3763C60.4519 61.1335 60.513 60.8887 60.6521 60.6878Z" fill="#AA6D12"/>
<path d="M61.2383 60.8078C61.3691 60.6729 62.1925 60.8078 62.2742 60.7649C62.3559 60.7219 62.2599 61.3778 62.1026 61.5719C61.9452 61.766 61.1157 61.7292 61.0912 61.5249C61.0593 61.2762 61.1111 61.0239 61.2383 60.8078Z" fill="#AA6D12"/>
<path d="M43.5247 56.0914C43.5247 56.0914 44.0702 55.9893 44.4298 56.8842C44.7894 57.7791 46.3953 60.525 45.9867 61.5078C45.578 62.4905 35.63 66.2826 34.9537 65.9537C34.2774 65.6247 32.2874 61.1605 32.5019 60.5332C32.7165 59.906 42.6482 56.0608 43.5247 56.0914Z" fill="#F4E18A"/>
<path d="M38.426 57.8172C40.0972 57.1675 41.7236 56.5811 42.692 56.291C42.6802 56.3441 42.6857 56.3995 42.7078 56.4492C42.7299 56.4988 42.7673 56.5401 42.8146 56.5668C43.4276 56.9366 43.5236 57.5067 43.6911 58.1544C43.8275 58.6998 44.069 59.2134 44.4022 59.6663C44.8006 60.2159 45.1704 60.8717 44.9722 61.5766C44.8754 61.891 44.7431 62.1932 44.5779 62.4777C43.6258 62.966 42.3079 63.5401 40.9492 64.0815L38.426 57.8172Z" fill="#EACA75"/>
<path d="M40.375 64.3034C39.0367 64.8244 37.7026 65.2964 36.6973 65.6049L36.6647 65.564C36.4603 65.2862 36.256 65.0001 36.0885 64.7039C35.6557 64.0213 35.2674 63.3116 34.9259 62.579C34.5501 61.7729 34.3449 60.8979 34.3232 60.0087C34.3232 59.8412 34.3375 59.6737 34.3559 59.5061C35.3305 59.0628 36.587 58.5397 37.8558 58.0371L40.375 64.3034Z" fill="url(#paint18_linear)"/>
<path d="M33.762 60.2265C33.8429 61.233 34.0887 62.2193 34.4894 63.1461C34.8288 63.9541 35.2585 64.7211 35.7704 65.4324C35.8593 65.5571 35.9562 65.6759 36.0605 65.7879C35.4823 65.9432 35.0839 66.0106 34.9654 65.9534C34.2871 65.6265 32.2991 61.1602 32.5136 60.5329C32.5606 60.4022 33.0285 60.1243 33.7395 59.7852C33.7497 59.9425 33.7559 60.0916 33.762 60.2265Z" fill="#F1DC83"/>
<path d="M43.5269 56.0923C43.5269 56.0923 43.6331 56.8748 38.1575 59.0814C32.6819 61.288 32.5205 60.5259 32.5205 60.5259C32.5205 60.5259 31.9075 58.5563 28.5568 55.3098C24.732 51.6035 23.0791 44.8673 26.0294 42.1479C27.7007 40.6073 31.4723 37.6775 34.8149 36.5394C37.9246 35.477 44.5587 39.5592 41.0751 42.4931C40.787 42.8691 40.7584 43.1163 40.3866 43.2654C40.2537 43.8784 40.5909 44.6344 41.0526 45.1329C41.5532 45.6723 42.8179 46.1831 41.8249 43.7211C41.4163 42.6995 42.2765 40.5869 44.8896 41.9374C47.5028 43.2879 48.5857 46.3996 45.9398 49.8709C43.2939 53.3422 42.7484 53.9 43.5269 56.0923Z" fill="url(#paint19_linear)"/>
<path d="M41.0653 42.501C40.7772 42.8769 40.7486 43.1241 40.3768 43.2733C40.3565 43.3672 40.3476 43.4632 40.3502 43.5593L26.7266 51.1557C26.7266 51.1557 25.2146 48.99 24.9204 46.3707C24.7549 44.918 25.2575 42.8667 26.0278 42.1557C27.6991 40.6151 31.4707 37.6853 34.8133 36.5472C37.9148 35.4848 44.5571 39.567 41.0653 42.501Z" fill="url(#paint20_linear)"/>
<path d="M41.826 42.5605C41.8733 42.774 41.9879 42.9667 42.1529 43.1102C42.4165 43.3655 42.6432 43.7497 43.0641 43.7108C43.3869 43.6802 43.626 43.7108 43.5136 44.1031C43.4505 44.2933 43.4358 44.4963 43.4707 44.6936C43.5443 45.0818 44.0121 44.9898 44.2716 44.9939C44.6108 44.9939 44.0101 45.5946 43.9713 45.6293C43.8513 45.7235 43.7453 45.8342 43.6566 45.9583C43.6261 45.9955 43.6043 46.0391 43.5929 46.0859C43.5815 46.1327 43.5808 46.1814 43.5908 46.2285C43.6008 46.2756 43.6213 46.3199 43.6507 46.358C43.6801 46.3961 43.7178 46.4271 43.7608 46.4486C43.8424 46.4854 43.9209 46.5284 43.9958 46.5774C44.4044 46.9165 43.9427 46.986 43.7915 47.0146C43.6054 47.0397 43.4233 47.0892 43.2501 47.1617C43.0825 47.2455 42.8905 47.3803 42.9538 47.5969C43.0294 47.8584 43.2889 48.0055 43.4319 48.2098C43.7833 48.7451 42.6821 48.4734 42.4451 48.5674C42.2987 48.6302 42.1803 48.7442 42.112 48.8882C42.0773 48.9658 41.8056 49.8362 41.638 49.6768C41.1409 49.199 40.848 48.5474 40.8208 47.8584C40.7799 47.3047 40.8208 46.7531 40.7922 46.1994C40.7717 45.8296 40.6593 45.2575 40.8289 44.8938C40.8923 44.9776 40.9576 45.0593 41.0332 45.1349C41.5338 45.6743 42.7985 46.1851 41.8056 43.7231C41.6748 43.3453 41.682 42.9335 41.826 42.5605Z" fill="#FDEC95"/>
<path d="M42.5883 43.7673C42.7064 43.8396 42.8404 43.8817 42.9785 43.8899C43.236 43.9144 43.1359 43.9941 43.0255 44.1637C42.9649 44.2432 42.9238 44.3359 42.9057 44.4342C42.8876 44.5325 42.8929 44.6338 42.9213 44.7296C42.9687 44.8371 43.0383 44.9332 43.1257 45.0116C43.1583 45.0463 43.189 45.0831 43.2217 45.1199C42.9198 45.0095 42.6423 44.8416 42.4044 44.6254C42.17 44.3555 41.9753 44.0534 41.8262 43.7285C41.6912 43.3563 41.6912 42.9484 41.8262 42.5762C41.8283 42.5905 41.8323 43.23 42.5883 43.7673Z" fill="#AA6D12"/>
<path d="M29.4108 45.5924C29.4185 45.6146 29.4306 45.635 29.4464 45.6524C29.4623 45.6698 29.4815 45.6838 29.5029 45.6935C29.5243 45.7033 29.5474 45.7086 29.5709 45.7091C29.5944 45.7096 29.6178 45.7054 29.6396 45.6966C30.3731 46.1052 31.4376 45.8744 32.2078 45.715C33.3663 45.4759 34.5411 45.3064 35.6975 45.0551C37.0807 44.7527 38.466 44.3563 39.7102 43.6657C39.935 43.5411 40.1597 43.4103 40.3763 43.2734C40.268 43.7781 40.4846 44.3931 40.8258 44.8712C40.9566 45.4208 40.6991 45.6762 40.5541 46.8816C40.3947 48.226 39.8798 49.4376 41.7799 52.96C42.1375 53.624 42.7811 54.4515 43.2101 54.6762C43.2461 55.1665 43.3556 55.6487 43.535 56.1064C43.535 56.1064 43.6413 56.8889 38.1656 59.0955C35.9713 59.9782 34.631 60.3868 33.8117 60.5584C33.6515 59.9644 33.4318 59.388 33.1558 58.8381C32.3672 57.2608 31.1944 55.9777 29.942 54.7518C28.2196 53.0683 26.156 51.3418 25.966 48.7736C25.8843 47.658 25.9006 46.0787 26.626 45.1511C27.3697 44.1867 29.0287 44.3604 29.4108 45.5924Z" fill="url(#paint21_linear)"/>
<path d="M34.2929 46.5462C35.1531 46.3092 36.7549 46.0375 38.3261 46.82C39.27 47.2899 41.1048 53.1415 41.3213 53.6829C42.4042 56.3696 42.6882 55.8895 43.0049 56.6843C42.3919 57.1501 41.0578 57.9102 38.1565 59.0891C36.9201 59.607 35.6538 60.0505 34.3644 60.4171C34.7281 59.2423 31.8452 55.6402 30.3762 54.4287C29.5733 53.7667 26.9254 48.5791 34.2929 46.5462Z" fill="url(#paint22_linear)"/>
<path d="M40.3753 43.2734C40.3478 43.4078 40.3402 43.5455 40.3528 43.6821L40.3181 43.7045C40.0402 43.8823 40.8166 45.2124 40.3058 46.2707C39.8972 47.1105 36.1562 51.0599 34.4645 51.542C32.7278 52.0344 28.0899 52.3429 27.4259 51.9118C25.3603 48.6183 26.2 45.6721 26.6086 45.1552C27.3625 44.1908 29.0236 44.3645 29.4036 45.5965C29.4113 45.6187 29.4235 45.6391 29.4393 45.6565C29.4551 45.6739 29.4743 45.6879 29.4957 45.6976C29.5171 45.7073 29.5403 45.7126 29.5638 45.7132C29.5873 45.7137 29.6107 45.7095 29.6325 45.7007C30.366 46.1093 31.4304 45.8784 32.2007 45.7191C33.3592 45.48 34.534 45.3105 35.6904 45.0591C37.0736 44.7568 38.4588 44.3604 39.7031 43.6698C39.934 43.5411 40.1587 43.4103 40.3753 43.2734Z" fill="url(#paint23_linear)"/>
<path d="M43.8919 42.5217C43.6494 42.4387 43.4277 42.3042 43.2422 42.1274C43.1434 42.0031 43.0246 41.896 42.8907 41.8107C42.7967 41.7581 42.6991 41.7124 42.5986 41.6738C43.1134 41.4184 43.8674 41.4205 44.8869 41.9456C47.5062 43.294 48.5829 46.4078 45.9371 49.8791C44.278 52.055 43.4465 53.0827 43.2462 54.09C43.0419 53.7529 43.0644 51.9937 42.8621 49.8954C42.8213 49.4745 44.7479 50.0997 45.1096 49.6278C45.2596 49.503 45.3609 49.3294 45.3956 49.1374C45.439 48.9294 45.4299 48.7138 45.3691 48.5102C45.2996 48.2936 45.2117 48.1322 45.3813 47.9238C45.6428 47.603 45.9044 47.3517 45.9943 46.937C46.0203 46.843 46.0086 46.7425 45.9616 46.657C45.9538 46.4546 45.8993 46.2567 45.8022 46.0788C45.6919 45.8561 45.3098 45.5987 45.414 45.3515C45.4533 45.2658 45.4626 45.1694 45.4406 45.0777C45.5113 44.967 45.5531 44.8403 45.562 44.7093C45.571 44.5783 45.5468 44.4471 45.4917 44.3279C45.3738 44.1062 45.1802 43.9344 44.9461 43.8436C44.6969 43.7517 44.6683 43.7047 44.6478 43.5372C44.8215 43.1653 44.1697 42.6464 43.8919 42.5217Z" fill="#E3B639"/>
<path style="mix-blend-mode:overlay" d="M37.2282 36.7718C38.3887 36.8862 39.4961 37.6258 40.1989 38.1816C40.6609 38.5561 41.0621 38.9999 41.388 39.4973C41.6189 39.7017 41.6679 40.1634 41.7231 40.4433C41.7987 40.8233 41.6107 41.2177 41.4187 41.5344C41.1878 41.9185 40.8871 42.256 40.532 42.5294C39.6759 43.1347 38.7446 43.6258 37.7615 43.9902C36.4048 44.4683 34.2003 44.8075 33.5219 44.9137C33.0559 45.0617 32.5683 45.1308 32.0795 45.118H32.059C31.9773 45.118 31.9855 44.9893 32.059 44.9791C32.4901 44.9219 32.9253 44.8667 33.3564 44.8013C33.5822 44.7338 33.804 44.6533 34.0205 44.5603C34.6538 44.2926 35.1891 43.8247 35.8593 43.6225C36.1698 43.5285 35.0522 40.3207 36.3047 39.3788C37.5571 38.437 37.0688 37.4154 36.8053 37.2948C36.7358 37.2601 36.0697 36.6594 37.2282 36.7718Z" fill="url(#paint24_linear)"/>
<path style="mix-blend-mode:overlay" d="M44.8569 47.9771C44.908 48.2632 44.8712 48.5554 44.9489 48.8414L44.9611 48.8925C44.8842 49.0133 44.7907 49.1226 44.6833 49.2173C44.4965 49.2815 44.3021 49.3207 44.1051 49.3338C44.2477 49.178 44.3476 48.988 44.3952 48.7821C44.4524 48.5084 44.3584 48.2039 44.3686 47.9281C44.3726 47.6777 44.4532 47.4346 44.5995 47.2314C44.699 47.1347 44.7752 47.0166 44.8222 46.8861C44.8651 46.6818 44.6996 46.4305 44.6179 46.2609C44.4691 46.0075 44.4034 45.7138 44.4299 45.4212C44.4508 45.3242 44.4852 45.2307 44.5321 45.1433C44.5605 45.0775 44.5824 45.0091 44.5975 44.939C44.6261 44.7898 44.4074 44.7817 44.3237 44.7694C44.2361 44.771 44.1495 44.7507 44.0718 44.7104C43.994 44.67 43.9275 44.611 43.8783 44.5385C43.7659 44.3506 43.8292 44.0952 43.8313 43.8909C43.8313 43.5047 43.5207 43.4822 43.2551 43.3331C43.1637 43.2734 43.0886 43.192 43.0365 43.0961C42.9624 42.9638 42.8639 42.8466 42.7464 42.7508C42.6653 42.7049 42.5994 42.6364 42.5566 42.5537C42.5138 42.471 42.496 42.3776 42.5053 42.2849C42.5461 42.0806 42.7811 42.1052 42.9241 42.1501C43.2367 42.2482 43.2776 42.5935 43.5003 42.7876C43.63 42.8779 43.7666 42.9578 43.9089 43.0266C44.0348 43.1078 44.1365 43.2214 44.2031 43.3556C44.3727 43.6579 44.4074 43.9419 44.72 44.1503C44.8815 44.2607 45.0592 44.3547 45.1021 44.5733C45.1859 44.9635 44.9652 45.3354 45.1021 45.7297C45.207 45.9441 45.3301 46.1492 45.4699 46.3426C45.5782 46.5275 45.6221 46.7431 45.5945 46.9556C45.5577 47.262 45.2533 47.4623 45.0551 47.6645C44.966 47.7522 44.8982 47.8592 44.8569 47.9771Z" fill="url(#paint25_linear)"/>
<path d="M42.1313 44.5137C42.1313 44.5137 42.4623 45.288 42.0476 45.5925C42.0476 45.5925 42.3459 46.7305 43.0037 46.8858C43.6616 47.041 43.8476 46.7816 43.3327 46.4342C42.8178 46.0869 42.5788 45.7171 42.7606 45.6435C42.9425 45.57 43.0753 45.5904 43.2142 45.4617C43.3531 45.333 42.5359 45.1797 42.1313 44.5137Z" fill="#AA6D12"/>
<path d="M25.0605 48.1838C25.0972 47.8242 24.7193 47.338 24.6518 46.7863C24.5844 46.2347 24.7152 45.5604 24.7928 45.7484C24.8704 45.9364 24.9072 45.115 24.8868 44.7044C24.8745 44.4408 25.2403 43.9954 25.4997 43.7114C25.4997 43.6583 25.4957 43.6052 25.4875 43.552C25.4691 43.2374 25.4548 42.7838 25.8021 42.6408C25.8157 42.6357 25.8304 42.6342 25.8447 42.6365C25.859 42.6388 25.8725 42.6448 25.8838 42.6538C25.8952 42.6629 25.9039 42.6747 25.9093 42.6882C25.9147 42.7017 25.9165 42.7163 25.9145 42.7307C25.845 43.172 26.1454 43.3804 26.4294 43.6317C26.4988 43.2435 26.5949 42.6265 26.9688 42.5182C26.9799 42.5141 26.9918 42.5126 27.0036 42.5137C27.0154 42.5148 27.0268 42.5185 27.037 42.5246C27.0471 42.5307 27.0558 42.5389 27.0624 42.5488C27.069 42.5586 27.0733 42.5698 27.075 42.5815C27.075 42.6061 27.1608 42.9902 27.2364 42.937C27.3197 42.8669 27.3891 42.7816 27.4407 42.6857C27.5269 42.5555 27.6339 42.4402 27.7574 42.3445C27.8902 42.2444 28.1129 42.1729 28.166 42.3895C28.1865 42.4773 28.0782 42.5938 28.0332 42.6571C27.9883 42.7205 28.0537 42.7532 28.1333 42.8063C28.7463 42.0135 28.9506 43.1414 29.2591 43.1046C29.6861 43.0535 30.3951 42.696 30.2705 42.9779C30.0457 43.5071 29.8169 44.4408 30.2991 44.8167C30.7813 45.1927 31.9336 45.6054 31.9336 45.6054C31.9336 45.6054 30.5402 45.9772 29.7188 45.4889C29.3388 45.2621 29.3306 44.7085 28.687 44.4347C28.4526 44.3444 28.235 44.2152 28.0434 44.0526C27.9556 44.1221 27.8923 44.1936 27.9331 44.2753C27.9356 44.2794 27.9372 44.284 27.9378 44.2888C27.9384 44.2935 27.9381 44.2983 27.9367 44.303C27.9354 44.3076 27.9331 44.3118 27.93 44.3155C27.9269 44.3192 27.9231 44.3222 27.9188 44.3243C27.9201 44.3376 27.9179 44.3509 27.9126 44.3631C27.9072 44.3752 27.8988 44.3858 27.8882 44.3938C27.7799 44.4796 27.6042 44.3652 27.4795 44.4204C27.2282 44.5246 27.0382 44.7289 26.7808 44.8045C26.5989 44.8596 26.5193 45.1028 26.319 45.1212C26.2818 45.1275 26.2439 45.1275 26.2067 45.1212C25.5774 46.1856 25.4446 48.429 25.751 49.6467C25.524 49.4789 25.3421 49.2575 25.2216 49.0022C25.1011 48.7469 25.0457 48.4658 25.0605 48.1838Z" fill="url(#paint26_linear)"/>
<path style="mix-blend-mode:multiply" d="M46.016 59.87C46.016 59.87 46.1569 60.9426 45.5542 61.4412C45.2171 61.7211 43.2373 62.7508 41.3045 63.5374C41.1553 63.5967 40.9837 63.6825 40.8509 63.6294C40.8416 63.666 40.8224 63.6993 40.7953 63.7256C40.7683 63.7519 40.7345 63.7702 40.6977 63.7785C40.4014 63.895 40.1971 64.0462 39.8089 64.0176C39.1365 64.325 38.4203 64.5256 37.6861 64.6121C36.2232 64.6898 35.1771 60.9202 35.98 60.3787C36.783 59.8373 43.4927 57.2752 43.8175 56.9973C44.1424 56.7195 44.0402 56.5703 44.0402 56.5703C44.1207 56.6128 44.1938 56.668 44.2568 56.7338C44.5571 56.7971 45.1578 57.126 46.016 59.87Z" fill="url(#paint27_linear)"/>
<path d="M46.1038 59.644C46.1038 59.644 46.2448 60.7166 45.6441 61.2152C45.0434 61.7137 39.2449 64.3064 37.7739 64.3861C36.3028 64.4658 35.2669 60.6942 36.0679 60.1527C36.8688 59.6113 43.5805 57.0492 43.9054 56.7713C44.2302 56.4935 44.0852 56.3382 44.0852 56.3382C44.0852 56.3382 44.8391 55.5986 46.1038 59.644Z" fill="url(#paint28_linear)"/>
<path d="M46.1038 59.644C46.1038 59.644 46.2448 60.7166 45.6441 61.2152C45.0761 61.6851 39.8702 64.0224 38.0599 64.3493C37.7739 64.3861 37.543 64.3923 37.0935 63.7957C36.644 63.1991 36.3212 62.1387 36.2763 61.8853C36.0719 60.8024 36.3028 60.5185 37.3469 60.0342C37.9741 59.7421 38.8016 59.2885 39.4533 59.0637C40.052 58.8594 42.4343 57.942 43.0043 57.6192C43.3619 57.4149 44.1832 57.1289 44.4836 56.8428C44.7022 56.6385 44.4059 56.3218 44.1056 56.3607C44.1011 56.3525 44.0956 56.345 44.0892 56.3382C44.0892 56.3382 44.8391 55.5986 46.1038 59.644Z" fill="url(#paint29_linear)"/>
<path d="M44.6162 56.4693C44.6539 56.5612 44.6833 56.6562 44.7041 56.7533V56.8085L44.6878 56.8371C44.6267 56.9119 44.5583 56.9804 44.4834 57.0414C44.1198 57.2089 43.7704 57.45 43.4128 57.6074C42.8612 57.8525 42.2911 58.0425 41.7375 58.2816C41.1838 58.5206 39.0814 59.3338 38.8771 59.4176C38.3247 59.6439 37.7858 59.9018 37.263 60.1899C36.8993 60.3942 36.5969 60.5577 36.4559 60.9683C36.176 61.7856 36.6807 62.9808 37.1465 63.6408C37.3333 63.9357 37.5866 64.1827 37.8861 64.362C37.6696 64.362 37.4509 64.266 37.0975 63.796C36.6459 63.2015 36.3252 62.139 36.2802 61.8857C36.0759 60.8028 36.3068 60.5188 37.3508 60.0346C37.9781 59.7424 38.8055 59.2889 39.4573 59.0641C40.056 58.8598 42.4383 57.9424 43.0083 57.6196C43.3658 57.4153 44.1872 57.1293 44.4875 56.8432C44.7061 56.6389 44.4099 56.3222 44.1095 56.361C44.105 56.3529 44.0995 56.3454 44.0932 56.3386C44.0932 56.3386 44.273 56.1547 44.6162 56.4693Z" fill="white"/>
<path d="M46.9492 47.7839C46.9492 47.7839 47.9177 45.5364 46.608 43.5444C45.2984 41.5523 43.3513 41.6483 44.1747 42.247C44.998 42.8456 47.2843 45.1768 46.9492 47.7839Z" fill="#FEEE98"/>
<path style="mix-blend-mode:overlay" d="M38.7353 61.9794C38.5555 61.3317 38.582 60.2999 38.674 60.0854C38.8926 59.5685 43.2731 57.9523 44.0965 57.6214C44.9198 57.2904 44.8443 57.0391 44.8443 57.0391C44.8443 57.0391 45.3428 58.1158 45.6309 58.7778C44.5562 60.2917 38.7353 61.9794 38.7353 61.9794Z" fill="url(#paint30_linear)"/>
<path d="M26.2659 52.3221C26.6729 52.2498 27.0923 52.3092 27.4632 52.4916C27.929 52.7246 28.2989 53.1046 28.6891 53.4294C29.058 53.7405 29.4463 54.0278 29.8516 54.2896C31.3615 55.2601 33.1554 55.9139 34.9595 55.5155C37.2478 55.0088 39.9489 54.1772 40.4147 52.5836C40.5848 52.0312 40.7213 51.4689 40.8233 50.9C41.3545 50.7836 42.3026 50.1543 42.6315 50.6467C43.0851 51.3291 42.6029 53.8912 43.1995 54.5C43.2066 55.0487 43.3161 55.5913 43.5223 56.0998C43.5223 56.0998 43.6286 56.8823 38.1529 59.0889C32.6773 61.2955 32.5159 60.5334 32.5159 60.5334C32.5159 60.5334 31.903 58.5639 28.5522 55.3173C27.6514 54.4328 26.8815 53.4242 26.2659 52.3221Z" fill="url(#paint31_linear)"/>
<path d="M46.8174 47.998C46.8174 47.998 46.0001 49.4017 44.8212 50.9872C43.7036 52.497 43.4115 52.5359 43.3113 53.4389C43.3113 53.4389 43.4768 51.2426 44.5638 50.3844C45.6507 49.5263 45.7836 49.5202 46.8174 47.998Z" fill="#AA6D12"/>
<path d="M46.0143 59.8223C46.037 60.2628 45.8909 60.6953 45.6057 61.0318C45.1357 61.5222 38.8306 64.1823 38.1972 64.2252C37.5639 64.2681 37.2145 63.4815 37.2145 63.4815C37.2145 63.4815 37.807 63.6858 40.2036 62.6949C42.6002 61.704 45.0152 60.8479 46.0143 59.8223Z" fill="#DAA927"/>
<path d="M37.583 64.8373C37.583 64.8373 36.5962 65.2459 36.3408 65.1131C36.3408 65.1131 35.9321 65.3971 35.6788 65.3174C35.6788 65.3174 35.0066 65.6586 34.7778 65.4829C34.5489 65.3072 33.9033 64.2305 33.9033 64.2305C34.3455 64.4516 34.8126 64.619 35.2947 64.729C35.2947 64.729 35.5726 64.6473 35.9975 64.5655C36.471 64.8577 37.0393 64.9551 37.583 64.8373Z" fill="#AA6D12"/>
<path d="M35.4616 60.4058C35.3084 60.2607 34.5218 60.4568 34.4789 60.6469C34.4688 60.8958 34.5406 61.1413 34.6832 61.3456C34.7792 61.4314 35.2778 61.4089 35.4678 61.1556C35.5523 61.0486 35.5978 60.916 35.5967 60.7796C35.5955 60.6432 35.5479 60.5114 35.4616 60.4058Z" fill="#AA6D12"/>
<path d="M34.2082 60.6878C34.1605 60.6532 34.1017 60.6376 34.0432 60.644C33.9846 60.6504 33.9306 60.6784 33.8915 60.7225C33.8241 60.8308 33.9263 61.3354 34.0407 61.4642C34.1551 61.5929 34.3083 61.5602 34.3798 61.3763C34.4084 61.1335 34.3474 60.8887 34.2082 60.6878Z" fill="#AA6D12"/>
<path d="M33.622 60.8078C33.4913 60.6729 32.6679 60.8078 32.5862 60.7649C32.5044 60.7219 32.6005 61.3778 32.7578 61.5719C32.9151 61.766 33.7446 61.7292 33.7691 61.5249C33.801 61.2762 33.7493 61.0239 33.622 60.8078Z" fill="#AA6D12"/>
</g>
<defs>
<linearGradient id="paint0_linear" x1="23.9015" y1="17.7746" x2="71.3024" y2="71.4071" gradientUnits="userSpaceOnUse">
<stop stop-color="#B38014"/>
<stop offset="0.0885417" stop-color="#DAA927"/>
<stop offset="0.229167" stop-color="#E6BA3F"/>
<stop offset="0.411458" stop-color="#FFF09C"/>
<stop offset="0.651042" stop-color="#DABC5B"/>
<stop offset="1" stop-color="#E0A32E"/>
</linearGradient>
<linearGradient id="paint1_linear" x1="47.4261" y1="9.05664" x2="47.4261" y2="85.8012" gradientUnits="userSpaceOnUse">
<stop stop-color="#B38014"/>
<stop offset="0.0885417" stop-color="#DAA927"/>
<stop offset="0.229167" stop-color="#E6BA3F"/>
<stop offset="0.411458" stop-color="#FFF09C"/>
<stop offset="0.651042" stop-color="#DABC5B"/>
<stop offset="1" stop-color="#E0A32E"/>
</linearGradient>
<linearGradient id="paint2_linear" x1="23.7122" y1="23.7146" x2="71.1423" y2="71.1448" gradientUnits="userSpaceOnUse">
<stop stop-color="#B38014"/>
<stop offset="0.0885417" stop-color="#DAA927"/>
<stop offset="0.229167" stop-color="#E6BA3F"/>
<stop offset="0.411458" stop-color="#FFF09C"/>
<stop offset="0.651042" stop-color="#DABC5B"/>
<stop offset="1" stop-color="#E0A32E"/>
</linearGradient>
<radialGradient id="paint3_radial" cx="0" cy="0" r="1" gradientUnits="userSpaceOnUse" gradientTransform="translate(47.4283 47.4293) rotate(90) scale(26.4996)">
<stop stop-color="#DA050B"/>
<stop offset="1" stop-color="#5C0204"/>
</radialGradient>
<linearGradient id="paint4_linear" x1="59.02" y1="65.842" x2="57.9817" y2="59.1415" gradientUnits="userSpaceOnUse">
<stop offset="0.01" stop-color="#DDAD2D"/>
<stop offset="1" stop-color="#FEEE98"/>
</linearGradient>
<linearGradient id="paint5_linear" x1="58.869" y1="36.3672" x2="58.869" y2="60.6531" gradientUnits="userSpaceOnUse">
<stop stop-color="#B38014"/>
<stop offset="0.0885417" stop-color="#DAA927"/>
<stop offset="0.229167" stop-color="#E6BA3F"/>
<stop offset="0.411458" stop-color="#FFF09C"/>
<stop offset="0.651042" stop-color="#DABC5B"/>
<stop offset="1" stop-color="#E0A32E"/>
</linearGradient>
<linearGradient id="paint6_linear" x1="61.3891" y1="36.375" x2="61.3891" y2="51.1557" gradientUnits="userSpaceOnUse">
<stop stop-color="#B38014"/>
<stop offset="0.0885417" stop-color="#DAA927"/>
<stop offset="0.229167" stop-color="#E6BA3F"/>
<stop offset="0.411458" stop-color="#FFF09C"/>
<stop offset="0.651042" stop-color="#DABC5B"/>
<stop offset="1" stop-color="#E0A32E"/>
</linearGradient>
<linearGradient id="paint7_linear" x1="60.1265" y1="43.2734" x2="60.1265" y2="60.5584" gradientUnits="userSpaceOnUse">
<stop stop-color="#B38014"/>
<stop offset="0.0885417" stop-color="#DAA927"/>
<stop offset="0.229167" stop-color="#E6BA3F"/>
<stop offset="0.411458" stop-color="#FFF09C"/>
<stop offset="0.651042" stop-color="#DABC5B"/>
<stop offset="1" stop-color="#E0A32E"/>
</linearGradient>
<linearGradient id="paint8_linear" x1="58.7322" y1="46.3008" x2="58.7322" y2="60.4171" gradientUnits="userSpaceOnUse">
<stop offset="0.317948" stop-color="#F4E1AC"/>
<stop offset="1" stop-color="#DCAB2B"/>
</linearGradient>
<linearGradient id="paint9_linear" x1="61.9992" y1="50.6408" x2="62.8891" y2="44.7183" gradientUnits="userSpaceOnUse">
<stop stop-color="white"/>
<stop offset="0.99" stop-color="#E5B93E"/>
</linearGradient>
<linearGradient id="paint10_linear" x1="-8436.87" y1="10936.9" x2="-8310.19" y2="11238.5" gradientUnits="userSpaceOnUse">
<stop stop-color="white"/>
<stop offset="1" stop-color="white"/>
</linearGradient>
<linearGradient id="paint11_linear" x1="-2740.63" y1="9299.02" x2="-2642.99" y2="9432.94" gradientUnits="userSpaceOnUse">
<stop stop-color="white"/>
<stop offset="1" stop-color="white"/>
</linearGradient>
<linearGradient id="paint12_linear" x1="66.577" y1="42.248" x2="66.6008" y2="45.9705" gradientUnits="userSpaceOnUse">
<stop stop-color="#DAA927"/>
<stop offset="0.369792" stop-color="#E6BA3F"/>
<stop offset="1" stop-color="#FFF09C"/>
</linearGradient>
<linearGradient id="paint13_linear" x1="57.6681" y1="57.8607" x2="53.5364" y2="61.0616" gradientUnits="userSpaceOnUse">
<stop offset="0.01" stop-color="#B4B4B4"/>
<stop offset="1" stop-color="white"/>
</linearGradient>
<linearGradient id="paint14_linear" x1="53.6262" y1="56.4928" x2="53.9067" y2="64.3874" gradientUnits="userSpaceOnUse">
<stop stop-color="#B38014"/>
<stop offset="0.0885417" stop-color="#DAA927"/>
<stop offset="0.229167" stop-color="#E6BA3F"/>
<stop offset="0.651042" stop-color="#DABC5B"/>
<stop offset="1" stop-color="#E0A32E"/>
</linearGradient>
<linearGradient id="paint15_linear" x1="53.697" y1="56.2852" x2="53.697" y2="64.3632" gradientUnits="userSpaceOnUse">
<stop stop-color="#B38014"/>
<stop offset="0.0885417" stop-color="#DAA927"/>
<stop offset="0.229167" stop-color="#E6BA3F"/>
<stop offset="0.411458" stop-color="#FFF09C"/>
<stop offset="0.651042" stop-color="#DABC5B"/>
<stop offset="1" stop-color="#E0A32E"/>
</linearGradient>
<linearGradient id="paint16_linear" x1="7381.07" y1="-993.115" x2="7393.59" y2="-810.71" gradientUnits="userSpaceOnUse">
<stop stop-color="white"/>
<stop offset="1" stop-color="white"/>
</linearGradient>
<linearGradient id="paint17_linear" x1="59.9662" y1="50.4609" x2="59.9662" y2="60.6606" gradientUnits="userSpaceOnUse">
<stop stop-color="#E7CE71"/>
<stop offset="0.411458" stop-color="#FFF09C"/>
<stop offset="0.651042" stop-color="#DABC5B"/>
<stop offset="1" stop-color="#E0A32E"/>
</linearGradient>
<linearGradient id="paint18_linear" x1="35.8404" y1="65.842" x2="36.8786" y2="59.1415" gradientUnits="userSpaceOnUse">
<stop offset="0.01" stop-color="#DDAD2D"/>
<stop offset="1" stop-color="#FEEE98"/>
</linearGradient>
<linearGradient id="paint19_linear" x1="35.9923" y1="36.3672" x2="35.9923" y2="60.6531" gradientUnits="userSpaceOnUse">
<stop stop-color="#B38014"/>
<stop offset="0.0885417" stop-color="#DAA927"/>
<stop offset="0.229167" stop-color="#E6BA3F"/>
<stop offset="0.411458" stop-color="#FFF09C"/>
<stop offset="0.651042" stop-color="#DABC5B"/>
<stop offset="1" stop-color="#E0A32E"/>
</linearGradient>
<linearGradient id="paint20_linear" x1="33.4713" y1="36.375" x2="33.4713" y2="51.1557" gradientUnits="userSpaceOnUse">
<stop stop-color="#B38014"/>
<stop offset="0.0885417" stop-color="#DAA927"/>
<stop offset="0.229167" stop-color="#E6BA3F"/>
<stop offset="0.411458" stop-color="#FFF09C"/>
<stop offset="0.651042" stop-color="#DABC5B"/>
<stop offset="1" stop-color="#E0A32E"/>
</linearGradient>
<linearGradient id="paint21_linear" x1="34.7339" y1="43.2734" x2="34.7339" y2="60.5584" gradientUnits="userSpaceOnUse">
<stop stop-color="#B38014"/>
<stop offset="0.0885417" stop-color="#DAA927"/>
<stop offset="0.229167" stop-color="#E6BA3F"/>
<stop offset="0.411458" stop-color="#FFF09C"/>
<stop offset="0.651042" stop-color="#DABC5B"/>
<stop offset="1" stop-color="#E0A32E"/>
</linearGradient>
<linearGradient id="paint22_linear" x1="36.1281" y1="46.3008" x2="36.1281" y2="60.4171" gradientUnits="userSpaceOnUse">
<stop offset="0.317948" stop-color="#F4E1AC"/>
<stop offset="1" stop-color="#DCAB2B"/>
</linearGradient>
<linearGradient id="paint23_linear" x1="32.8611" y1="50.6408" x2="31.9713" y2="44.7183" gradientUnits="userSpaceOnUse">
<stop stop-color="white"/>
<stop offset="0.99" stop-color="#E5B93E"/>
</linearGradient>
<linearGradient id="paint24_linear" x1="8531.73" y1="10936.9" x2="8405.05" y2="11238.5" gradientUnits="userSpaceOnUse">
<stop stop-color="white"/>
<stop offset="1" stop-color="white"/>
</linearGradient>
<linearGradient id="paint25_linear" x1="2835.49" y1="9299.02" x2="2737.85" y2="9432.94" gradientUnits="userSpaceOnUse">
<stop stop-color="white"/>
<stop offset="1" stop-color="white"/>
</linearGradient>
<linearGradient id="paint26_linear" x1="28.2834" y1="42.248" x2="28.2595" y2="45.9705" gradientUnits="userSpaceOnUse">
<stop stop-color="#DAA927"/>
<stop offset="0.369792" stop-color="#E6BA3F"/>
<stop offset="1" stop-color="#FFF09C"/>
</linearGradient>
<linearGradient id="paint27_linear" x1="37.1922" y1="57.8607" x2="41.3239" y2="61.0616" gradientUnits="userSpaceOnUse">
<stop offset="0.01" stop-color="#B4B4B4"/>
<stop offset="1" stop-color="white"/>
</linearGradient>
<linearGradient id="paint28_linear" x1="41.2342" y1="56.4928" x2="40.9537" y2="64.3874" gradientUnits="userSpaceOnUse">
<stop stop-color="#B38014"/>
<stop offset="0.0885417" stop-color="#DAA927"/>
<stop offset="0.229167" stop-color="#E6BA3F"/>
<stop offset="0.651042" stop-color="#DABC5B"/>
<stop offset="1" stop-color="#E0A32E"/>
</linearGradient>
<linearGradient id="paint29_linear" x1="41.1634" y1="56.2852" x2="41.1634" y2="64.3632" gradientUnits="userSpaceOnUse">
<stop stop-color="#B38014"/>
<stop offset="0.0885417" stop-color="#DAA927"/>
<stop offset="0.229167" stop-color="#E6BA3F"/>
<stop offset="0.411458" stop-color="#FFF09C"/>
<stop offset="0.651042" stop-color="#DABC5B"/>
<stop offset="1" stop-color="#E0A32E"/>
</linearGradient>
<linearGradient id="paint30_linear" x1="-7286.21" y1="-993.115" x2="-7298.73" y2="-810.71" gradientUnits="userSpaceOnUse">
<stop stop-color="white"/>
<stop offset="1" stop-color="white"/>
</linearGradient>
<linearGradient id="paint31_linear" x1="34.8942" y1="50.4609" x2="34.8942" y2="60.6606" gradientUnits="userSpaceOnUse">
<stop stop-color="#E7CE71"/>
<stop offset="0.411458" stop-color="#FFF09C"/>
<stop offset="0.651042" stop-color="#DABC5B"/>
<stop offset="1" stop-color="#E0A32E"/>
</linearGradient>
<clipPath id="clip0">
<rect width="94.8603" height="94.8603" fill="white"/>
</clipPath>
</defs>
</svg>
