<svg viewBox="0 0 95 95" fill="none" xmlns="http://www.w3.org/2000/svg">
<g clip-path="url(#clip0)">
<path d="M79.9242 47.4294L83.8858 41.0037L77.973 36.3127L79.489 28.9206L72.3257 26.5444L71.2224 19.0788L63.6792 19.2851L60.0955 12.6449L53.0793 15.4277L47.4341 10.4199L41.7889 15.4277L34.7728 12.6429L31.1871 19.2851L23.6438 19.0788L22.5425 26.5444L15.3793 28.9206L16.8932 36.3127L10.9824 41.0037L14.9441 47.4294L10.9824 53.8551L16.8932 58.5441L15.3793 65.9382L22.5425 68.3124L23.6438 75.7801L31.1871 75.5737L34.7728 82.2139L41.7889 79.4312L47.4341 84.4369L53.0793 79.4312L60.0955 82.2139L63.6792 75.5737L71.2245 75.778L72.3257 68.3124L79.489 65.9382L77.973 58.5441L83.8858 53.8551L79.9242 47.4294Z" fill="url(#paint0_linear)"/>
<path d="M47.4339 10.4235L53.0791 15.4353L60.0952 12.6526L63.6789 19.2928L71.2222 19.0885L72.3234 26.5541L79.4887 28.9201L77.9727 36.3122L83.8856 41.0114L79.9239 47.431L83.8836 53.8566L77.9748 58.5456L79.4887 65.9377L72.3234 68.3139L71.2161 75.7796L63.6707 75.5752L60.0871 82.2155L53.0709 79.4327L47.4257 84.4384L41.7948 79.4327L34.7807 82.2155L31.195 75.5752L23.6517 75.7796L22.5504 68.3119L15.379 65.9398L16.893 58.5456L10.9822 53.8566L14.9438 47.431L10.9822 41.0053L16.893 36.306L15.379 28.9201L22.5423 26.5439L23.6435 19.0783L31.1868 19.2826L34.7725 12.6424L41.7948 15.4353L47.4421 10.4296L47.4339 10.4235ZM47.4421 9.06277L46.7637 9.66345L41.5905 14.2462L35.1505 11.6964L34.3046 11.3613L33.8735 12.1663L30.5882 18.2549L23.6721 18.0587L22.765 18.0342L22.6342 18.9312L21.6126 25.7757L15.0582 27.9537L14.196 28.2377L14.3779 29.1264L15.7672 35.9056L10.3468 40.1962L9.63574 40.7703L10.1118 41.5426L13.7425 47.431L10.1118 53.3193L9.63574 54.0916L10.3468 54.6637L15.7672 58.9543L14.3779 65.7314L14.196 66.6201L15.0562 66.9062L21.6229 69.0842L22.6444 75.9287L22.7752 76.8256L23.6823 76.7991L30.5984 76.6111L33.8838 82.6997L34.3149 83.4986L35.1607 83.1635L41.5905 80.6116L46.7658 85.2005L47.4441 85.8012L48.1224 85.2005L53.2875 80.6116L59.7173 83.1635L60.5611 83.4986L60.9942 82.6997L64.2796 76.6111L71.1956 76.7991L72.1028 76.8236L72.2336 75.9267L73.2429 69.0842L79.8095 66.9062L80.6697 66.6201L80.4878 65.7314L79.1005 58.9543L84.521 54.6637L85.232 54.0998L84.7539 53.3275L81.1253 47.431L84.7539 41.5406L85.232 40.7703L84.521 40.2064L79.1005 35.9158L80.4878 29.1244L80.6697 28.2356L79.8095 27.9516L73.2429 25.7736L72.2376 18.9312L72.1048 18.0342L71.1997 18.0587L64.2837 18.2487L61.0004 12.1663L60.5672 11.3674L59.7234 11.7025L53.2875 14.2462L48.1122 9.65732L47.4339 9.05664L47.4421 9.06277Z" fill="url(#paint1_linear)"/>
<path d="M71.1501 71.1448C84.2476 58.0473 84.2476 36.8121 71.1501 23.7146C58.0526 10.6171 36.8174 10.6171 23.72 23.7146C10.6225 36.8121 10.6225 58.0473 23.72 71.1448C36.8174 84.2422 58.0526 84.2422 71.1501 71.1448Z" fill="url(#paint2_linear)"/>
<path d="M47.4361 81.378C28.7209 81.378 13.4893 66.1484 13.4893 47.4312C13.4893 28.714 28.7209 13.4844 47.4361 13.4844C66.1513 13.4844 81.3808 28.716 81.3808 47.4312C81.3808 66.1464 66.1533 81.378 47.4361 81.378ZM47.4361 14.3016C29.1683 14.3016 14.3065 29.1635 14.3065 47.4312C14.3065 65.6989 29.1683 80.5607 47.4361 80.5607C65.7038 80.5607 80.5636 65.6969 80.5636 47.4312C80.5636 29.1655 65.7018 14.3016 47.4361 14.3016Z" fill="#424242"/>
<path d="M73.9357 47.4293C73.9357 42.1881 72.3815 37.0647 69.4697 32.7069C66.5579 28.3491 62.4192 24.9525 57.577 22.9469C52.7349 20.9412 47.4067 20.4164 42.2663 21.4389C37.1259 22.4614 32.4041 24.9852 28.6981 28.6912C24.992 32.3973 22.4682 37.119 21.4457 42.2595C20.4232 47.3999 20.948 52.728 22.9537 57.5702C24.9594 62.4124 28.3559 66.551 32.7137 69.4628C37.0716 72.3747 42.195 73.9288 47.4361 73.9288C54.4642 73.9288 61.2045 71.1369 66.1741 66.1673C71.1437 61.1976 73.9357 54.4574 73.9357 47.4293Z" fill="url(#paint3_radial)"/>
<g style="mix-blend-mode:multiply">
<g style="mix-blend-mode:multiply">
<path d="M76.3948 44.9355L76.3581 45.8018C76.3581 46.0164 76.3213 46.2329 76.309 46.3944C76.2968 46.5558 76.2825 46.664 76.2825 46.664L75.6491 47.0543L75.0137 47.4302H75.7594L76.1681 47.1789L76.5767 46.9215L76.6298 46.3514C76.6441 46.2084 76.6564 46.0654 76.6666 45.9592C76.6768 45.8529 76.6768 45.7794 76.6768 45.7794L76.7892 45.902L77.0221 46.1778L77.3612 46.5864L78.2847 46.3555L77.8761 47.4302H78.248L78.5626 46.613C78.6403 46.4087 78.7179 46.1921 78.7771 46.0348C78.8364 45.8774 78.8711 45.7691 78.8711 45.7691L78.1703 45.9612L77.4675 46.1471L77.3061 45.953C77.208 45.8366 77.067 45.6854 76.9322 45.5342L76.3948 44.9355Z" fill="#A9A9A9"/>
</g>
<g style="mix-blend-mode:multiply">
<path d="M74.0195 38.7902L74.4282 38.3285L74.8368 37.8565L74.7898 37.6358C74.7653 37.503 74.7224 37.3294 74.6754 37.1557L74.4915 36.459L75.0697 36.792L75.4783 37.029L75.6602 37.1394L76.1648 36.8186L76.6674 36.4937C76.6674 36.4937 76.6674 36.5857 76.6674 36.7225C76.6674 36.8594 76.6511 37.0454 76.6409 37.2313C76.6164 37.595 76.5939 37.9607 76.5939 37.9607L76.7451 38.1323C76.837 38.2365 76.9494 38.3795 77.0618 38.5226L77.5133 39.1028L76.316 39.1723L76.0586 39.7852C75.936 40.0917 75.7868 40.3982 75.7868 40.3982L75.7113 40.1938C75.6643 40.0672 75.5907 39.9017 75.5212 39.7341C75.3823 39.4032 75.2454 39.0701 75.2454 39.0701C75.2454 39.0701 74.9471 38.9925 74.6468 38.923L74.0195 38.7902Z" stroke="#A9A9A9" stroke-width="0.306471" stroke-miterlimit="10"/>
</g>
<g style="mix-blend-mode:multiply">
<path d="M70.0435 31.005L70.2948 30.435C70.4174 30.1489 70.5277 29.8629 70.5277 29.8649L70.1538 29.252C70.0578 29.0988 69.9679 28.9414 69.8923 28.8291L69.7656 28.6431L69.9699 28.682C70.0946 28.7044 70.256 28.7412 70.4174 28.78L71.0692 28.9394L71.8312 28.0098C71.8312 28.0098 71.9334 28.3632 72.0356 28.7167C72.0866 28.8904 72.1357 29.0661 72.1643 29.203C72.1929 29.3399 72.2174 29.4257 72.2174 29.4257L72.8303 29.8159C72.9836 29.916 73.145 30.0202 73.2553 30.0917L73.4433 30.2245L72.3298 30.6597C72.3298 30.6597 72.2991 30.9968 72.2705 31.334C72.2419 31.6711 72.2031 31.998 72.2031 31.998L71.7434 31.4422C71.629 31.3033 71.5186 31.1623 71.4247 31.0643L71.2735 30.8988L70.6605 30.9478L70.0435 31.005Z" stroke="#A9A9A9" stroke-width="0.306471" stroke-miterlimit="10"/>
</g>
<g style="mix-blend-mode:multiply">
<path d="M63.862 24.8177C63.862 24.8177 63.8906 24.5112 63.9213 24.2047L63.9703 23.5918L63.8028 23.4406C63.7067 23.3466 63.5658 23.2363 63.4268 23.1198L62.8711 22.6622L63.5331 22.5947L64.2094 22.5334L64.6445 21.4199L64.7753 21.6079C64.855 21.7203 64.9531 21.8796 65.0532 22.0329C65.2473 22.3434 65.4434 22.6458 65.4434 22.6458L65.6661 22.6989C65.801 22.7275 65.9767 22.7745 66.1524 22.8256L66.8593 23.0299L65.9297 23.79C65.9297 23.79 66.0094 24.1169 66.087 24.4417C66.1258 24.6031 66.1626 24.7645 66.1851 24.8912L66.2259 25.0955L66.038 24.9709C65.9276 24.8933 65.7703 24.8034 65.6171 24.7094L65.0041 24.3355C65.0041 24.3355 64.7181 24.4458 64.4341 24.5684L63.862 24.8177Z" stroke="#A9A9A9" stroke-width="0.306471" stroke-miterlimit="10"/>
</g>
<g style="mix-blend-mode:multiply">
<path d="M56.0747 20.8448C56.0747 20.8448 56.0093 20.5404 55.9419 20.2319C55.8744 19.9233 55.7947 19.6332 55.7947 19.6332L55.1328 19.3553C54.9652 19.2879 54.7997 19.2144 54.6731 19.1674L54.4688 19.0918C54.4688 19.0918 54.7732 18.9406 55.0817 18.818L55.6946 18.5626L55.7641 17.3633L56.3444 17.8169C56.4894 17.9292 56.6324 18.0396 56.7346 18.1335L56.9083 18.2827L57.6377 18.2377L58.1444 18.2091H58.3732L58.0504 18.7097L57.7337 19.2205L57.8461 19.4003C57.9094 19.5106 57.9952 19.6557 58.0831 19.8089L58.4161 20.3851L57.7194 20.2032C57.5457 20.1542 57.37 20.1113 57.2372 20.0868L57.0186 20.0418L56.5446 20.4505L56.0747 20.8448Z" stroke="#A9A9A9" stroke-width="0.306471" stroke-miterlimit="10"/>
</g>
<g style="mix-blend-mode:multiply">
<path d="M47.433 19.4772L47.1183 18.9521L46.7955 18.427L46.0845 18.3596C45.9027 18.3371 45.7249 18.3391 45.5901 18.331L45.3633 18.3208L45.8598 17.8672C46.1111 17.6486 46.3726 17.4361 46.3726 17.4361L46.0682 16.2715L47.4391 16.7904L48.808 16.2715L48.5056 17.4361C48.5056 17.4361 48.7651 17.6404 49.0164 17.8672L49.5129 18.3208L49.2882 18.331C49.1533 18.331 48.9735 18.331 48.7937 18.3596L48.0766 18.427C48.0766 18.427 47.9131 18.6885 47.7517 18.9521L47.433 19.4772Z" stroke="#A9A9A9" stroke-width="0.306471" stroke-miterlimit="10"/>
</g>
<g style="mix-blend-mode:multiply">
<path d="M38.798 20.8433L38.3363 20.4347L37.8643 20.026L37.6436 20.071C37.5108 20.0955 37.3372 20.1384 37.1635 20.1874L36.4668 20.3693L36.7998 19.7931L37.0368 19.3845L37.1472 19.2047C37.1472 19.2047 36.9878 18.9513 36.8264 18.7L36.5015 18.1974H36.7304L37.2391 18.226L37.9685 18.271L38.1401 18.1218C38.2443 18.0278 38.3873 17.9175 38.5304 17.8051L39.1106 17.3516L39.1801 18.5509L39.793 18.8063C40.0975 18.9289 40.406 19.0801 40.406 19.0801L40.2017 19.1557C40.075 19.2027 39.9095 19.2762 39.742 19.3436L39.0779 19.6215C39.0779 19.6215 38.9983 19.928 38.937 20.2365L38.798 20.8433Z" stroke="#A9A9A9" stroke-width="0.306471" stroke-miterlimit="10"/>
</g>
<g style="mix-blend-mode:multiply">
<path d="M31.0108 24.8178L30.4428 24.5685C30.1567 24.4459 29.8728 24.3356 29.8728 24.3356L29.2598 24.7095C29.1066 24.8035 28.9493 24.8934 28.8369 24.971L28.651 25.0956C28.651 25.0956 28.6673 25.0139 28.6898 24.8913C28.7122 24.7687 28.749 24.6032 28.7878 24.4418C28.8675 24.117 28.9452 23.7901 28.9452 23.7901L28.0176 23.03L28.7245 22.8257C28.8982 22.7746 29.0739 22.7276 29.2087 22.699L29.4314 22.6459L29.8237 22.033C29.9218 21.8777 30.028 21.7183 30.0995 21.6059L30.2323 21.418L30.6675 22.5315L31.3438 22.5928L32.0058 22.6602L31.448 23.1179C31.3091 23.2323 31.1701 23.3447 31.0721 23.4386L30.9045 23.5898C30.9045 23.5898 30.9311 23.9004 30.9556 24.2028L31.0108 24.8178Z" stroke="#A9A9A9" stroke-width="0.306471" stroke-miterlimit="10"/>
</g>
<g style="mix-blend-mode:multiply">
<path d="M24.8258 31.0051L24.2129 30.9459L23.6 30.8968L23.4488 31.0623C23.3548 31.1604 23.2444 31.3014 23.128 31.4403L22.6703 31.996L22.5927 31.332C22.5641 30.9949 22.5334 30.6578 22.5334 30.6578L21.4199 30.2226L21.6079 30.0898C21.7203 30.0121 21.8796 29.9141 22.0329 29.8139L22.6458 29.4237L22.6969 29.201C22.7275 29.0641 22.7745 28.8884 22.8256 28.7147C22.9278 28.3613 23.0299 28.0078 23.0299 28.0078L23.792 28.9374L24.4438 28.7781C24.6052 28.7393 24.7666 28.7025 24.8912 28.68L25.0955 28.6412L24.9709 28.8271C24.8933 28.9395 24.8034 29.0968 24.7094 29.25C24.5214 29.5565 24.3355 29.863 24.3355 29.863C24.3355 29.863 24.4458 30.147 24.5684 30.433L24.8258 31.0051Z" stroke="#A9A9A9" stroke-width="0.306471" stroke-miterlimit="10"/>
</g>
<g style="mix-blend-mode:multiply">
<path d="M20.8506 38.7903L20.2376 38.9211C19.9373 38.9905 19.641 39.0682 19.641 39.0682L19.3632 39.7322C19.2957 39.8997 19.2222 40.0652 19.1752 40.1919C19.1282 40.3186 19.0976 40.3962 19.0976 40.3962C19.0976 40.3962 18.9484 40.0938 18.8258 39.7833C18.7032 39.4727 18.5704 39.1703 18.5704 39.1703L17.3711 39.1009L17.8288 38.5206C17.9411 38.3776 18.0515 38.2346 18.1454 38.1304L18.2946 37.9587L18.2496 37.2293C18.2496 37.0434 18.2292 36.8595 18.221 36.7206C18.2129 36.5817 18.221 36.4918 18.221 36.4918L18.7216 36.8166L19.2283 37.1374L19.4081 37.0271L19.8167 36.7901L20.3929 36.457C20.3929 36.457 20.301 36.8044 20.2111 37.1537C20.162 37.3274 20.1191 37.5011 20.0946 37.6339C20.0701 37.7667 20.0476 37.8545 20.0476 37.8545L20.4562 38.3265L20.8506 38.7903Z" stroke="#A9A9A9" stroke-width="0.306471" stroke-miterlimit="10"/>
</g>
<g style="mix-blend-mode:multiply">
<path d="M16.9823 47.4302L16.5737 46.3555L17.4972 46.5864L17.8364 46.1778L18.0713 45.902L18.1837 45.7794C18.1837 45.7794 18.1837 45.8509 18.1837 45.9592C18.1837 46.0674 18.2082 46.2084 18.2205 46.3514L18.2736 46.9215L18.6822 47.1789L19.0909 47.4302H19.8346L19.2012 47.0543L18.5658 46.664C18.5658 46.664 18.5555 46.5558 18.5412 46.3944C18.5269 46.2329 18.4983 46.0164 18.4922 45.8018C18.4738 45.3687 18.4534 44.9355 18.4534 44.9355L17.9058 45.526C17.7689 45.6772 17.628 45.8284 17.5319 45.9449L17.3705 46.139L16.6656 45.953L15.9648 45.761C15.9648 45.761 16.0016 45.8672 16.0609 46.0266C16.1201 46.1859 16.1978 46.3944 16.2652 46.6048L16.5798 47.4221L16.9823 47.4302Z" fill="#A9A9A9"/>
</g>
<g style="mix-blend-mode:multiply">
<path d="M18.4744 49.9244C18.4744 49.9244 18.4949 49.4912 18.5132 49.0581C18.5132 48.8415 18.55 48.627 18.5623 48.4656C18.5745 48.3042 18.5868 48.1959 18.5868 48.1959L19.2222 47.8036L19.8556 47.4297H19.118L18.7094 47.679L18.3008 47.9364L18.2476 48.5085C18.2354 48.6515 18.2211 48.7945 18.2109 48.9007C18.2006 49.007 18.2109 49.0805 18.2109 49.0805L18.0985 48.9559C18.0331 48.8824 17.9493 48.7822 17.8635 48.6821L17.5244 48.2735L16.6009 48.5044L17.0095 47.4297H16.6111L16.2964 48.2469C16.2188 48.4513 16.1391 48.6678 16.0921 48.8252C16.0451 48.9825 15.9961 49.0908 15.9961 49.0908L16.6969 48.8987L17.4018 48.7128L17.5632 48.9171C17.6592 49.0315 17.8002 49.1847 17.9371 49.3257L18.4744 49.9244Z" fill="#A9A9A9"/>
</g>
<g style="mix-blend-mode:multiply">
<path d="M20.851 56.067L20.4424 56.5288L20.0338 57.0007C20.0338 57.0007 20.0542 57.0886 20.0808 57.2194C20.1073 57.3501 20.1482 57.5279 20.1972 57.7015C20.2871 58.0489 20.379 58.3983 20.379 58.3983L19.8029 58.0652L19.3943 57.8282C19.286 57.7628 19.2145 57.7158 19.2145 57.7158L18.7078 58.0387L18.2072 58.3635C18.2072 58.3635 18.2072 58.2716 18.2072 58.1347C18.2072 57.9978 18.2256 57.8098 18.2358 57.6259L18.2807 56.8965L18.1316 56.7229C18.0376 56.6187 17.9273 56.4777 17.8149 56.3347L17.3613 55.7544L18.5607 55.6829C18.5607 55.6829 18.6873 55.3724 18.816 55.07C18.9448 54.7676 19.0878 54.457 19.0878 54.457C19.0878 54.457 19.1205 54.5428 19.1654 54.6613C19.2104 54.7798 19.286 54.9535 19.3534 55.1211L19.6313 55.783C19.6313 55.783 19.9275 55.8607 20.2279 55.9301L20.851 56.067Z" stroke="#A9A9A9" stroke-width="0.306471" stroke-miterlimit="10"/>
</g>
<g style="mix-blend-mode:multiply">
<path d="M24.8234 63.8562L24.5742 64.4263C24.4516 64.7103 24.3413 64.9963 24.3413 64.9963C24.3413 64.9963 24.5272 65.3048 24.7152 65.6093C24.8091 65.7625 24.899 65.9198 24.9767 66.0302L25.1013 66.2181L24.897 66.1773C24.7724 66.1548 24.611 66.118 24.4495 66.0792L23.7978 65.9219L23.0377 66.8515L22.8334 66.1446C22.7823 65.9689 22.7353 65.7952 22.7047 65.6583L22.6536 65.4356L22.0407 65.0454C21.8874 64.9452 21.7281 64.841 21.6157 64.7695L21.4277 64.6367L22.5412 64.2015C22.5412 64.2015 22.5719 63.8624 22.6005 63.5253L22.67 62.8633L23.1276 63.419C23.242 63.5579 23.3544 63.6989 23.4484 63.795L23.5996 63.9625L24.2125 63.9135L24.8234 63.8562Z" stroke="#A9A9A9" stroke-width="0.306471" stroke-miterlimit="10"/>
</g>
<g style="mix-blend-mode:multiply">
<path d="M31.0099 70.0416L30.9527 70.6546C30.9282 70.9651 30.9016 71.2675 30.9016 71.2675L31.0691 71.4187C31.1672 71.5107 31.3062 71.623 31.4451 71.7374L32.0029 72.1971L31.3409 72.2646L30.6646 72.3238L30.2294 73.4373L30.0966 73.2514C30.0169 73.139 29.9189 72.9797 29.8208 72.8244L29.4285 72.2115L29.2058 72.1583C29.071 72.1297 28.8952 72.0827 28.7216 72.0317L28.0146 71.8273L28.9422 71.0652C28.9422 71.0652 28.8646 70.7404 28.7849 70.4135C28.7461 70.2521 28.7093 70.0927 28.6868 69.966C28.6644 69.8394 28.648 69.7617 28.648 69.7617L28.8339 69.8884C28.9463 69.964 29.1036 70.0539 29.2569 70.1499L29.8698 70.5238C29.8698 70.5238 30.1538 70.4135 30.4399 70.2909L31.0099 70.0416Z" stroke="#A9A9A9" stroke-width="0.306471" stroke-miterlimit="10"/>
</g>
<g style="mix-blend-mode:multiply">
<path d="M38.7971 74.0156L38.9279 74.6286C38.9974 74.9289 39.075 75.2272 39.075 75.2272L39.739 75.503C39.9066 75.5725 40.0721 75.6461 40.1987 75.693L40.403 75.7686C40.403 75.7686 40.0986 75.9178 39.7901 76.0424L39.1772 76.2978L39.1077 77.4971L38.5274 77.0374C38.3844 76.9251 38.2414 76.8127 38.1372 76.7207L37.9656 76.5716L37.2362 76.6165L36.7274 76.6451H36.4986L36.8235 76.1425C36.9849 75.8912 37.1442 75.6379 37.1442 75.6379C37.1442 75.6379 37.0993 75.5664 37.0339 75.456C36.9685 75.3457 36.8827 75.2006 36.7969 75.0474C36.6294 74.7593 36.4639 74.4692 36.4639 74.4692L37.1606 74.6531C37.3342 74.7001 37.5079 74.743 37.6407 74.7695L37.8614 74.8145L38.3333 74.4059L38.7971 74.0156Z" stroke="#A9A9A9" stroke-width="0.306471" stroke-miterlimit="10"/>
</g>
<g style="mix-blend-mode:multiply">
<path d="M47.4342 75.3809L47.7468 75.9059L48.0717 76.431L48.7888 76.4985C48.9686 76.5189 49.1484 76.5189 49.2833 76.5271L49.508 76.5373L49.0115 76.9909C48.7602 77.2095 48.5008 77.422 48.5008 77.422L48.8031 78.5866L47.4342 78.0676L46.0633 78.5866L46.3677 77.422C46.3677 77.422 46.1062 77.2176 45.8549 76.9909L45.3584 76.5373L45.5852 76.5271C45.72 76.5271 45.8978 76.5271 46.0796 76.4985L46.7968 76.431L47.1196 75.9059L47.4342 75.3809Z" stroke="#A9A9A9" stroke-width="0.306471" stroke-miterlimit="10"/>
</g>
<g style="mix-blend-mode:multiply">
<path d="M56.0729 74.0156L56.5326 74.4243L57.0066 74.8329L57.2252 74.7879C57.358 74.7614 57.5337 74.7185 57.7074 74.6715L58.4041 74.4876L58.0711 75.0658C57.9832 75.2109 57.8974 75.358 57.8341 75.4744L57.7217 75.6563L58.0445 76.1609L58.3673 76.6635H58.1405L57.6318 76.6349L56.9024 76.59L56.7287 76.7391C56.6266 76.8311 56.4836 76.9434 56.3405 77.0558L55.7582 77.5094L55.6888 76.3101L55.0758 76.0547C54.7694 75.9301 54.4629 75.7809 54.4629 75.7809L54.6672 75.7053C54.7939 75.6583 54.9594 75.5848 55.1269 75.5153L55.7889 75.2395C55.7889 75.2395 55.8665 74.9412 55.936 74.6408C56.0055 74.3405 56.0729 74.0156 56.0729 74.0156Z" stroke="#A9A9A9" stroke-width="0.306471" stroke-miterlimit="10"/>
</g>
<g style="mix-blend-mode:multiply">
<path d="M63.8641 70.0416L64.4341 70.2909C64.7181 70.4135 65.0041 70.5238 65.0041 70.5238L65.6171 70.1499C65.7703 70.0539 65.9276 69.964 66.038 69.8884L66.2259 69.7617L66.1851 69.966C66.1626 70.0927 66.1258 70.2521 66.087 70.4135C66.0094 70.7404 65.9297 71.0652 65.9297 71.0652L66.8593 71.8273L66.1524 72.0317C65.9767 72.0827 65.801 72.1297 65.6661 72.1583L65.4434 72.2115L65.0532 72.8244C64.9531 72.9797 64.8489 73.139 64.7753 73.2514L64.6445 73.4373L64.2093 72.3238L63.5331 72.2646L62.8711 72.1971L63.4268 71.7374C63.5658 71.623 63.7067 71.5107 63.8028 71.4187L63.9703 71.2675L63.9213 70.6546C63.8906 70.3461 63.8641 70.0416 63.8641 70.0416Z" stroke="#A9A9A9" stroke-width="0.306471" stroke-miterlimit="10"/>
</g>
<g style="mix-blend-mode:multiply">
<path d="M70.0456 63.8562L70.6586 63.9154L71.2715 63.9644L71.4227 63.7969C71.5167 63.7009 71.627 63.5599 71.7414 63.421L72.2011 62.8652C72.2011 62.8652 72.2338 63.1962 72.2686 63.5272C72.3033 63.8582 72.3278 64.2035 72.3278 64.2035L73.4413 64.6387L73.2534 64.7715C73.143 64.8491 72.9816 64.9472 72.8284 65.0473L72.2154 65.4376C72.2154 65.4376 72.193 65.5274 72.1623 65.6603C72.1317 65.7931 72.0847 65.9708 72.0336 66.1465C71.9335 66.5 71.8293 66.8535 71.8293 66.8535L71.0672 65.9238L70.4154 66.0811C70.254 66.12 70.0926 66.1567 69.968 66.1792L69.7637 66.2201L69.8903 66.0321C69.9659 65.9218 70.0558 65.7645 70.1519 65.6112L70.5258 64.9983C70.5258 64.9983 70.4154 64.7122 70.2928 64.4282C70.1703 64.1442 70.0456 63.8562 70.0456 63.8562Z" stroke="#A9A9A9" stroke-width="0.306471" stroke-miterlimit="10"/>
</g>
<g style="mix-blend-mode:multiply">
<path d="M74.0195 56.0688L74.6325 55.936C74.9328 55.8665 75.2311 55.7889 75.2311 55.7889C75.2311 55.7889 75.368 55.4579 75.5069 55.1269C75.5764 54.9594 75.65 54.7939 75.697 54.6672L75.7726 54.4629C75.7726 54.4629 75.9217 54.7673 76.0443 55.0758L76.3017 55.6888L77.499 55.7603L77.0475 56.3405C76.9351 56.4836 76.8227 56.6245 76.7308 56.7287L76.5796 56.9024C76.5796 56.9024 76.6021 57.2661 76.6266 57.6318C76.6368 57.8157 76.647 58.0016 76.6531 58.1385C76.6593 58.2754 76.6531 58.3694 76.6531 58.3694L76.1505 58.0445L75.6459 57.7278C75.6459 57.7278 75.5744 57.7748 75.464 57.8402L75.0554 58.0772L74.4874 58.4L74.6713 57.7033C74.7183 57.5296 74.7612 57.356 74.7857 57.2211C74.8102 57.0863 74.8327 57.0025 74.8327 57.0025L74.4241 56.5306L74.0195 56.0688Z" stroke="#A9A9A9" stroke-width="0.306471" stroke-miterlimit="10"/>
</g>
<g style="mix-blend-mode:multiply">
<path d="M77.8888 47.4297L78.2974 48.5044L77.3739 48.2735L77.0348 48.6821L76.8019 48.9559L76.6895 49.0805C76.6895 49.0805 76.6895 49.009 76.6793 48.9007C76.6691 48.7925 76.6568 48.6515 76.6425 48.5085L76.5894 47.9364L76.1807 47.679L75.7721 47.4297H75.0264L75.6618 47.8036L76.2952 48.1959C76.2952 48.1959 76.2952 48.3042 76.3217 48.4656C76.3483 48.627 76.3646 48.8415 76.3708 49.0581L76.4075 49.9244L76.9571 49.3339C77.092 49.1827 77.233 49.0295 77.331 48.9253L77.4924 48.721L78.1953 48.9069L78.8961 49.0989C78.8961 49.0989 78.8613 48.9927 78.8021 48.8333C78.7428 48.674 78.6652 48.4656 78.5876 48.2551L78.2729 47.4379L77.8888 47.4297Z" fill="#A9A9A9"/>
</g>
</g>
<path d="M37.9834 31.2842C38.0626 31.3286 38.139 31.3777 38.2123 31.4313C38.2346 31.4736 38.2465 31.5205 38.247 31.5682C38.294 32.0014 38.3185 32.218 38.3655 32.6491C38.3787 32.7556 38.3699 32.8636 38.3397 32.9666C38.3095 33.0696 38.2585 33.1652 38.1898 33.2477C38.1237 33.3326 38.0411 33.4034 37.947 33.4557C37.8529 33.508 37.7493 33.5408 37.6422 33.5521C36.4 33.7013 35.7809 33.7871 34.5448 33.9832C34.2629 32.1955 34.1219 31.3026 33.8379 29.5169C35.1414 29.3126 35.7952 29.2207 37.1069 29.0633C37.2184 29.0474 37.3319 29.0536 37.4409 29.0816C37.55 29.1097 37.6524 29.159 37.7423 29.2268C37.8301 29.2907 37.9032 29.3726 37.9568 29.467C38.0104 29.5614 38.0431 29.6662 38.0529 29.7744C38.0999 30.2075 38.1244 30.4241 38.1714 30.8572C38.1834 30.9359 38.1713 31.0164 38.1367 31.0881C38.1183 31.1147 37.9814 31.2659 37.9834 31.2842ZM37.2234 29.8336C36.2427 29.9521 35.7523 30.0175 34.7716 30.1626C34.8349 30.5937 34.8676 30.8082 34.933 31.2393C35.8974 31.0942 36.3816 31.035 37.3501 30.9144C37.301 30.4813 37.2745 30.2668 37.2234 29.8336ZM37.444 31.6888C36.4858 31.8032 36.0138 31.8665 35.0495 32.0096C35.1128 32.4427 35.1455 32.6593 35.2088 33.0924C36.1548 32.9514 36.6268 32.8881 37.5748 32.7757C37.5217 32.3405 37.5053 32.124 37.444 31.6888Z" fill="#E7E7E7"/>
<path d="M43.4437 29.3533C43.4989 30.5097 43.5254 31.0879 43.5786 32.2423C43.5838 32.3496 43.5678 32.457 43.5315 32.5581C43.4951 32.6593 43.4392 32.7523 43.3669 32.8318C43.2946 32.9113 43.2073 32.9758 43.1101 33.0215C43.0128 33.0673 42.9075 33.0934 42.8001 33.0983C41.6212 33.1658 41.0328 33.2087 39.858 33.317C39.751 33.3281 39.6428 33.3176 39.54 33.286C39.4371 33.2544 39.3417 33.2024 39.2593 33.1331C39.1748 33.0671 39.1046 32.9845 39.0533 32.8903C39.002 32.7961 38.9706 32.6924 38.961 32.5855C38.8425 31.4352 38.7833 30.8591 38.6668 29.7088C38.6536 29.601 38.6635 29.4917 38.6959 29.3881C38.7283 29.2845 38.7825 29.1891 38.8548 29.1081C38.9284 29.0231 39.0182 28.9535 39.1188 28.9034C39.2194 28.8532 39.329 28.8235 39.4412 28.8159C40.6895 28.6995 41.3147 28.6545 42.5652 28.583C42.6758 28.5736 42.7873 28.5869 42.8927 28.622C42.9981 28.6571 43.0952 28.7134 43.1781 28.7873C43.2594 28.8579 43.325 28.9448 43.3707 29.0422C43.4165 29.1397 43.4413 29.2456 43.4437 29.3533ZM42.7879 32.3179C42.7225 31.1349 42.6877 30.5444 42.6224 29.3614C41.3638 29.4309 40.7365 29.4779 39.48 29.5944C39.5883 30.7753 39.6435 31.3637 39.7538 32.5447C40.9654 32.4323 41.5742 32.3935 42.7879 32.3179Z" fill="#E7E7E7"/>
<path d="M46.2636 30.7154C46.8969 31.6103 47.2054 32.0619 47.8041 32.9629H46.8826C46.4597 32.3356 46.2431 32.023 45.8038 31.3999C45.3952 32.0394 45.1909 32.3602 44.7823 33.0037C44.4166 33.016 44.2327 33.0221 43.8669 33.0385C44.4329 32.1088 44.723 31.6471 45.3196 30.7277C44.6781 29.8389 44.3471 29.3976 43.6729 28.5211C44.059 28.5047 44.2511 28.4966 44.6372 28.4843C45.101 29.0973 45.3278 29.4099 45.7752 30.033C46.1982 29.3935 46.4127 29.0748 46.8499 28.4414H47.8225C47.185 29.3486 46.8724 29.8021 46.2636 30.7154Z" fill="#E7E7E7"/>
<path d="M50.2196 32.2352C50.7242 32.2515 50.9755 32.2617 51.4802 32.2862C51.4638 32.5968 51.4557 32.7541 51.4414 33.0647C50.1297 33.0013 49.4738 32.9809 48.1621 32.9707C48.1621 32.6581 48.1621 32.5028 48.1621 32.1902C48.6668 32.1902 48.9181 32.1902 49.4227 32.2106L49.4942 29.2501C48.9712 29.2379 48.7097 29.2338 48.1887 29.2297C48.1887 28.9171 48.1887 28.7618 48.1887 28.4492C49.5739 28.4615 50.2665 28.4819 51.6498 28.5493C51.6334 28.8599 51.6273 29.0152 51.6109 29.3278C51.0899 29.3012 50.8284 29.291 50.3074 29.2746C50.2788 30.4576 50.2604 31.0501 50.2196 32.2352Z" fill="#E7E7E7"/>
<path d="M55.1586 31.9456C55.275 30.6952 55.3323 30.0679 55.4487 28.8175L56.2803 28.8972L55.8206 33.3921C55.5059 33.3594 55.3486 33.3431 55.0319 33.3145C54.2147 31.9721 53.7774 31.304 52.8784 29.9842C52.7988 31.2427 52.7599 31.872 52.6741 33.1306L51.8916 33.0836L52.1368 28.5703C52.4678 28.5887 52.6312 28.5969 52.954 28.6193C53.8796 29.9413 54.3189 30.6053 55.1586 31.9456Z" fill="#E7E7E7"/>
<path d="M60.3212 33.9832C59.0851 33.7789 58.4661 33.7012 57.2259 33.5521C57.1189 33.5405 57.0153 33.5076 56.9213 33.4553C56.8272 33.403 56.7446 33.3324 56.6783 33.2476C56.6096 33.1652 56.5584 33.0695 56.5278 32.9666C56.4973 32.8637 56.488 32.7556 56.5006 32.649L56.8172 29.7743C56.8257 29.667 56.8568 29.5627 56.9086 29.4683C56.9603 29.3739 57.0316 29.2915 57.1176 29.2267C57.3 29.0899 57.5293 29.0311 57.755 29.0633C59.0626 29.2206 59.7165 29.3105 61.0241 29.5169L60.9015 30.2871C59.598 30.0828 58.9441 29.9888 57.6324 29.8336C57.4915 31.0104 57.4281 31.5988 57.2831 32.7736C58.229 32.8881 58.7031 32.9514 59.647 33.0903C59.7124 32.6572 59.743 32.4406 59.8084 32.0095C59.222 31.9216 58.9278 31.8808 58.3394 31.8052L58.4415 31.0329C59.3589 31.1534 59.8166 31.2188 60.7319 31.3639C60.5705 32.41 60.4867 32.935 60.3212 33.9832Z" fill="#E7E7E7"/>
<path d="M51.3445 56.0934C51.3445 56.0934 50.7989 55.9912 50.4394 56.8861C50.0798 57.781 48.4738 60.527 48.8825 61.5097C49.2911 62.4925 59.2392 66.2846 59.9154 65.9556C60.5917 65.6267 62.5817 61.1624 62.3672 60.5352C62.1527 59.9079 52.221 56.0627 51.3445 56.0934Z" fill="#A69D97"/>
<path d="M56.4432 57.8172C54.7719 57.1675 53.1455 56.5811 52.1771 56.291C52.189 56.3441 52.1834 56.3995 52.1614 56.4492C52.1393 56.4988 52.1018 56.5401 52.0545 56.5668C51.4416 56.9366 51.3455 57.5067 51.178 58.1544C51.0417 58.6998 50.8001 59.2134 50.467 59.6663C50.0686 60.2159 49.6988 60.8717 49.897 61.5766C49.9938 61.891 50.1261 62.1932 50.2913 62.4777C51.2434 62.966 52.5612 63.5401 53.9199 64.0815L56.4432 57.8172Z" fill="#B0B0B0"/>
<path d="M54.4941 64.3034C55.8324 64.8244 57.1666 65.2964 58.1718 65.6049L58.2045 65.564C58.4088 65.2862 58.6131 65.0001 58.7807 64.7039C59.2134 64.0213 59.6018 63.3116 59.9432 62.579C60.3191 61.7729 60.5243 60.8979 60.5459 60.0087C60.5459 59.8412 60.5316 59.6737 60.5132 59.5061C59.5387 59.0628 58.2821 58.5397 57.0133 58.0371L54.4941 64.3034Z" fill="url(#paint4_linear)"/>
<path d="M61.1071 60.2284C61.0262 61.2349 60.7805 62.2213 60.3798 63.1481C60.0404 63.9561 59.6106 64.723 59.0987 65.4344C59.0099 65.5591 58.913 65.6778 58.8086 65.7899C59.3868 65.9451 59.7852 66.0126 59.9037 65.9554C60.582 65.6285 62.57 61.1621 62.3555 60.5349C62.3085 60.4041 61.8406 60.1263 61.1296 59.7871C61.1194 59.9444 61.1133 60.0936 61.1071 60.2284Z" fill="#E1E1E1"/>
<path d="M51.3433 56.0923C51.3433 56.0923 51.237 56.8748 56.7126 59.0814C62.1883 61.288 62.3497 60.5259 62.3497 60.5259C62.3497 60.5259 62.9626 58.5563 66.3134 55.3098C70.1381 51.6035 71.791 44.8673 68.8407 42.1479C67.1694 40.6073 63.3978 37.6775 60.0552 36.5394C56.9456 35.477 50.3115 39.5592 53.795 42.4931C54.0831 42.8691 54.1117 43.1163 54.4836 43.2654C54.6164 43.8784 54.2793 44.6344 53.8175 45.1329C53.3169 45.6723 52.0522 46.1831 53.0452 43.7211C53.4538 42.6995 52.5937 40.5869 49.9805 41.9374C47.3673 43.2879 46.2844 46.3996 48.9303 49.8709C51.5762 53.3422 52.1217 53.9 51.3433 56.0923Z" fill="url(#paint5_linear)"/>
<path d="M53.8038 42.501C54.0919 42.8769 54.1205 43.1241 54.4924 43.2733C54.5126 43.3672 54.5215 43.4632 54.5189 43.5593L68.1426 51.1557C68.1426 51.1557 69.6545 48.99 69.9487 46.3707C70.1142 44.918 69.6116 42.8667 68.8413 42.1557C67.1701 40.6151 63.3984 37.6853 60.0558 36.5472C56.9543 35.4848 50.3121 39.567 53.8038 42.501Z" fill="url(#paint6_linear)"/>
<path d="M53.0432 42.5605C52.9958 42.774 52.8812 42.9667 52.7163 43.1102C52.4527 43.3655 52.2259 43.7497 51.805 43.7108C51.4822 43.6802 51.2431 43.7108 51.3555 44.1031C51.4186 44.2933 51.4333 44.4963 51.3984 44.6936C51.3249 45.0818 50.857 44.9898 50.5975 44.9939C50.2584 44.9939 50.859 45.5946 50.8979 45.6293C51.0179 45.7235 51.1238 45.8342 51.2125 45.9583C51.2431 45.9955 51.2648 46.0391 51.2763 46.0859C51.2877 46.1327 51.2884 46.1814 51.2784 46.2285C51.2684 46.2756 51.2479 46.3199 51.2184 46.358C51.189 46.3961 51.1514 46.4271 51.1083 46.4486C51.0268 46.4854 50.9482 46.5284 50.8733 46.5774C50.4647 46.9165 50.9265 46.986 51.0777 47.0146C51.2638 47.0397 51.4458 47.0892 51.6191 47.1617C51.7866 47.2455 51.9787 47.3803 51.9153 47.5969C51.8397 47.8584 51.5803 48.0055 51.4372 48.2098C51.0858 48.7451 52.1871 48.4734 52.4241 48.5674C52.5705 48.6302 52.6889 48.7442 52.7571 48.8882C52.7919 48.9658 53.0636 49.8362 53.2311 49.6768C53.7282 49.199 54.0211 48.5474 54.0484 47.8584C54.0892 47.3047 54.0484 46.7531 54.077 46.1994C54.0974 45.8296 54.2098 45.2575 54.0402 44.8938C53.9769 44.9776 53.9115 45.0593 53.8359 45.1349C53.3353 45.6743 52.0706 46.1851 53.0636 43.7231C53.1943 43.3453 53.1871 42.9335 53.0432 42.5605Z" fill="#D8D8D8"/>
<path d="M52.2808 43.7673C52.1628 43.8396 52.0288 43.8817 51.8906 43.8899C51.6332 43.9144 51.7333 43.9941 51.8436 44.1637C51.9043 44.2432 51.9453 44.3359 51.9634 44.4342C51.9816 44.5325 51.9762 44.6338 51.9478 44.7296C51.9005 44.8371 51.8308 44.9332 51.7435 45.0116C51.7108 45.0463 51.6802 45.0831 51.6475 45.1199C51.9493 45.0095 52.2268 44.8416 52.4647 44.6254C52.6991 44.3555 52.8938 44.0534 53.0429 43.7285C53.178 43.3563 53.178 42.9484 53.0429 42.5762C53.0409 42.5905 53.0368 43.23 52.2808 43.7673Z" fill="#666666"/>
<path d="M65.4584 45.5924C65.4507 45.6146 65.4385 45.635 65.4227 45.6524C65.4069 45.6698 65.3877 45.6838 65.3663 45.6935C65.3449 45.7033 65.3217 45.7086 65.2982 45.7091C65.2747 45.7096 65.2514 45.7054 65.2295 45.6966C64.4961 46.1052 63.4316 45.8744 62.6613 45.715C61.5029 45.4759 60.328 45.3064 59.1716 45.0551C57.7884 44.7527 56.4032 44.3563 55.1589 43.6657C54.9341 43.5411 54.7094 43.4103 54.4928 43.2734C54.6011 43.7781 54.3845 44.3931 54.0433 44.8712C53.9126 45.4208 54.17 45.6762 54.3151 46.8816C54.4744 48.226 54.9893 49.4376 53.0892 52.96C52.7316 53.624 52.0881 54.4515 51.659 54.6762C51.623 55.1665 51.5135 55.6487 51.3341 56.1064C51.3341 56.1064 51.2279 56.8889 56.7035 59.0955C58.8978 59.9782 60.2381 60.3868 61.0574 60.5584C61.2177 59.9644 61.4374 59.388 61.7133 58.8381C62.5019 57.2608 63.6747 55.9777 64.9272 54.7518C66.6495 53.0683 68.7131 51.3418 68.9031 48.7736C68.9848 47.658 68.9685 46.0787 68.2432 45.1511C67.4995 44.1867 65.8404 44.3604 65.4584 45.5924Z" fill="url(#paint7_linear)"/>
<path d="M60.5762 46.5462C59.7161 46.3092 58.1142 46.0375 56.5431 46.82C55.5991 47.2899 53.7644 53.1415 53.5478 53.6829C52.4649 56.3696 52.1809 55.8895 51.8643 56.6843C52.4772 57.1501 53.8114 57.9102 56.7126 59.0891C57.949 59.607 59.2153 60.0505 60.5047 60.4171C60.141 59.2423 63.0239 55.6402 64.4929 54.4287C65.2959 53.7667 67.9438 48.5791 60.5762 46.5462Z" fill="url(#paint8_linear)"/>
<path d="M54.4938 43.2734C54.5213 43.4078 54.5289 43.5455 54.5163 43.6821L54.551 43.7045C54.8289 43.8823 54.0525 45.2124 54.5633 46.2707C54.9719 47.1105 58.7129 51.0599 60.4046 51.542C62.1413 52.0344 66.7792 52.3429 67.4433 51.9118C69.5089 48.6183 68.6691 45.6721 68.2605 45.1552C67.5066 44.1908 65.8455 44.3645 65.4655 45.5965C65.4578 45.6187 65.4457 45.6391 65.4298 45.6565C65.414 45.6739 65.3948 45.6879 65.3734 45.6976C65.352 45.7073 65.3289 45.7126 65.3054 45.7132C65.2818 45.7137 65.2585 45.7095 65.2367 45.7007C64.5032 46.1093 63.4387 45.8784 62.6684 45.7191C61.51 45.48 60.3352 45.3105 59.1788 45.0591C57.7955 44.7568 56.4103 44.3604 55.166 43.6698C54.9351 43.5411 54.7104 43.4103 54.4938 43.2734Z" fill="url(#paint9_linear)"/>
<path d="M50.9773 42.5217C51.2198 42.4387 51.4414 42.3042 51.627 42.1274C51.7257 42.0031 51.8445 41.896 51.9784 41.8107C52.0724 41.7581 52.17 41.7124 52.2706 41.6738C51.7557 41.4184 51.0018 41.4205 49.9823 41.9456C47.363 43.294 46.2862 46.4078 48.9321 49.8791C50.5911 52.055 51.4227 53.0827 51.6229 54.09C51.8272 53.7529 51.8047 51.9937 52.007 49.8954C52.0479 49.4745 50.1212 50.0997 49.7596 49.6278C49.6095 49.503 49.5082 49.3294 49.4735 49.1374C49.4301 48.9294 49.4393 48.7138 49.5001 48.5102C49.5695 48.2936 49.6574 48.1322 49.4878 47.9238C49.2263 47.603 48.9648 47.3517 48.8749 46.937C48.8488 46.843 48.8606 46.7425 48.9076 46.657C48.9153 46.4546 48.9699 46.2567 49.0669 46.0788C49.1773 45.8561 49.5593 45.5987 49.4551 45.3515C49.4159 45.2658 49.4065 45.1694 49.4286 45.0777C49.3578 44.967 49.316 44.8403 49.3071 44.7093C49.2982 44.5783 49.3224 44.4471 49.3775 44.3279C49.4953 44.1062 49.689 43.9344 49.923 43.8436C50.1723 43.7517 50.2009 43.7047 50.2213 43.5372C50.0476 43.1653 50.6994 42.6464 50.9773 42.5217Z" fill="#959595"/>
<path style="mix-blend-mode:overlay" d="M57.6409 36.7718C56.4804 36.8862 55.3731 37.6258 54.6702 38.1816C54.2082 38.5561 53.8071 38.9999 53.4811 39.4973C53.2502 39.7017 53.2012 40.1634 53.146 40.4433C53.0704 40.8233 53.2584 41.2177 53.4505 41.5344C53.6813 41.9185 53.9821 42.256 54.3372 42.5294C55.1932 43.1347 56.1246 43.6258 57.1077 43.9902C58.4643 44.4683 60.6689 44.8075 61.3472 44.9137C61.8133 45.0617 62.3008 45.1308 62.7897 45.118H62.8101C62.8918 45.118 62.8836 44.9893 62.8101 44.9791C62.379 44.9219 61.9438 44.8667 61.5127 44.8013C61.2869 44.7338 61.0652 44.6533 60.8487 44.5603C60.2153 44.2926 59.68 43.8247 59.0099 43.6225C58.6993 43.5285 59.8169 40.3207 58.5644 39.3788C57.312 38.437 57.8003 37.4154 58.0639 37.2948C58.1333 37.2601 58.7994 36.6594 57.6409 36.7718Z" fill="url(#paint10_linear)"/>
<path style="mix-blend-mode:overlay" d="M50.0102 47.9771C49.9592 48.2632 49.9959 48.5554 49.9183 48.8414L49.906 48.8925C49.983 49.0133 50.0765 49.1226 50.1839 49.2173C50.3707 49.2815 50.5651 49.3207 50.7621 49.3338C50.6195 49.178 50.5196 48.988 50.472 48.7821C50.4148 48.5084 50.5088 48.2039 50.4986 47.9281C50.4946 47.6777 50.414 47.4346 50.2677 47.2314C50.1682 47.1347 50.092 47.0166 50.045 46.8861C50.0021 46.6818 50.1676 46.4305 50.2493 46.2609C50.3981 46.0075 50.4638 45.7138 50.4373 45.4212C50.4164 45.3242 50.382 45.2307 50.3351 45.1433C50.3067 45.0775 50.2848 45.0091 50.2697 44.939C50.2411 44.7898 50.4597 44.7817 50.5435 44.7694C50.6311 44.771 50.7177 44.7507 50.7954 44.7104C50.8732 44.67 50.9397 44.611 50.9889 44.5385C51.1013 44.3506 51.0379 44.0952 51.0359 43.8909C51.0359 43.5047 51.3465 43.4822 51.6121 43.3331C51.7035 43.2734 51.7786 43.192 51.8307 43.0961C51.9048 42.9638 52.0032 42.8466 52.1208 42.7508C52.2018 42.7049 52.2678 42.6364 52.3106 42.5537C52.3534 42.471 52.3712 42.3776 52.3619 42.2849C52.321 42.0806 52.0861 42.1052 51.9431 42.1501C51.6305 42.2482 51.5896 42.5935 51.3669 42.7876C51.2372 42.8779 51.1005 42.9578 50.9583 43.0266C50.8324 43.1078 50.7307 43.2214 50.6641 43.3556C50.4945 43.6579 50.4597 43.9419 50.1471 44.1503C49.9857 44.2607 49.808 44.3547 49.7651 44.5733C49.6813 44.9635 49.902 45.3354 49.7651 45.7297C49.6602 45.9441 49.5371 46.1492 49.3973 46.3426C49.289 46.5275 49.2451 46.7431 49.2727 46.9556C49.3094 47.262 49.6139 47.4623 49.8121 47.6645C49.9012 47.7522 49.969 47.8592 50.0102 47.9771Z" fill="url(#paint11_linear)"/>
<path d="M52.7378 44.5137C52.7378 44.5137 52.4068 45.288 52.8216 45.5925C52.8216 45.5925 52.5233 46.7305 51.8654 46.8858C51.2075 47.041 51.0216 46.7816 51.5364 46.4342C52.0513 46.0869 52.2904 45.7171 52.1085 45.6435C51.9267 45.57 51.7939 45.5904 51.6549 45.4617C51.516 45.333 52.3333 45.1797 52.7378 44.5137Z" fill="#666666"/>
<path style="mix-blend-mode:multiply" d="M69.8087 48.1838C69.7719 47.8242 70.1499 47.338 70.2173 46.7863C70.2847 46.2347 70.154 45.5604 70.0763 45.7484C69.9987 45.9364 69.9619 45.115 69.9823 44.7044C69.9946 44.4408 69.6289 43.9954 69.3694 43.7114C69.3694 43.6583 69.3735 43.6052 69.3817 43.552C69.4 43.2374 69.4144 42.7838 69.067 42.6408C69.0534 42.6357 69.0388 42.6342 69.0244 42.6365C69.0101 42.6388 68.9966 42.6448 68.9853 42.6538C68.974 42.6629 68.9652 42.6747 68.9598 42.6882C68.9544 42.7017 68.9527 42.7163 68.9546 42.7307C69.0241 43.172 68.7238 43.3804 68.4398 43.6317C68.3703 43.2435 68.2743 42.6265 67.9004 42.5182C67.8893 42.5141 67.8774 42.5126 67.8656 42.5137C67.8538 42.5148 67.8424 42.5185 67.8322 42.5246C67.822 42.5307 67.8133 42.5389 67.8067 42.5488C67.8002 42.5586 67.7958 42.5698 67.7941 42.5815C67.7941 42.6061 67.7083 42.9902 67.6327 42.937C67.5494 42.8669 67.4801 42.7816 67.4284 42.6857C67.3422 42.5555 67.2352 42.4402 67.1117 42.3445C66.9789 42.2444 66.7562 42.1729 66.7031 42.3895C66.6827 42.4773 66.791 42.5938 66.8359 42.6571C66.8809 42.7205 66.8155 42.7532 66.7358 42.8063C66.1229 42.0135 65.9185 43.1414 65.61 43.1046C65.183 43.0535 64.474 42.696 64.5987 42.9779C64.8234 43.5071 65.0522 44.4408 64.5701 44.8167C64.0879 45.1927 62.9355 45.6054 62.9355 45.6054C62.9355 45.6054 64.329 45.9772 65.1503 45.4889C65.5303 45.2621 65.5385 44.7085 66.1821 44.4347C66.4166 44.3444 66.6342 44.2152 66.8257 44.0526C66.9135 44.1221 66.9769 44.1936 66.936 44.2753C66.9335 44.2794 66.9319 44.284 66.9313 44.2888C66.9307 44.2935 66.9311 44.2983 66.9324 44.303C66.9338 44.3076 66.9361 44.3118 66.9391 44.3155C66.9422 44.3192 66.946 44.3222 66.9503 44.3243C66.9491 44.3376 66.9512 44.3509 66.9566 44.3631C66.9619 44.3752 66.9703 44.3858 66.981 44.3938C67.0893 44.4796 67.265 44.3652 67.3896 44.4204C67.6409 44.5246 67.8309 44.7289 68.0884 44.8045C68.2702 44.8596 68.3499 45.1028 68.5501 45.1212C68.5873 45.1275 68.6253 45.1275 68.6625 45.1212C69.2918 46.1856 69.4246 48.429 69.1181 49.6467C69.3451 49.4789 69.527 49.2575 69.6476 49.0022C69.7681 48.7469 69.8234 48.4658 69.8087 48.1838Z" fill="url(#paint12_linear)"/>
<path style="mix-blend-mode:multiply" d="M48.8532 59.87C48.8532 59.87 48.7122 60.9426 49.3149 61.4412C49.6521 61.7211 51.6319 62.7508 53.5647 63.5374C53.7138 63.5967 53.8854 63.6825 54.0183 63.6294C54.0275 63.666 54.0467 63.6993 54.0738 63.7256C54.1008 63.7519 54.1347 63.7702 54.1715 63.7785C54.4677 63.895 54.6721 64.0462 55.0603 64.0176C55.7326 64.325 56.4488 64.5256 57.1831 64.6121C58.646 64.6898 59.6921 60.9202 58.8891 60.3787C58.0862 59.8373 51.3765 57.2752 51.0516 56.9973C50.7267 56.7195 50.8289 56.5703 50.8289 56.5703C50.7484 56.6128 50.6753 56.668 50.6123 56.7338C50.312 56.7971 49.7113 57.126 48.8532 59.87Z" fill="url(#paint13_linear)"/>
<path d="M48.7654 59.644C48.7654 59.644 48.6244 60.7166 49.2251 61.2152C49.8258 61.7137 55.6242 64.3064 57.0953 64.3861C58.5663 64.4658 59.6022 60.6942 58.8013 60.1527C58.0004 59.6113 51.2886 57.0492 50.9638 56.7713C50.6389 56.4935 50.784 56.3382 50.784 56.3382C50.784 56.3382 50.0301 55.5986 48.7654 59.644Z" fill="url(#paint14_linear)"/>
<path d="M48.7654 59.644C48.7654 59.644 48.6244 60.7166 49.2251 61.2152C49.7931 61.6851 54.999 64.0224 56.8092 64.3493C57.0953 64.3861 57.3261 64.3923 57.7756 63.7957C58.2251 63.1991 58.5479 62.1387 58.5929 61.8853C58.7972 60.8024 58.5663 60.5185 57.5223 60.0342C56.895 59.7421 56.0676 59.2885 55.4158 59.0637C54.8172 58.8594 52.4348 57.942 51.8648 57.6192C51.5073 57.4149 50.6859 57.1289 50.3856 56.8428C50.167 56.6385 50.4632 56.3218 50.7636 56.3607C50.7681 56.3525 50.7736 56.345 50.7799 56.3382C50.7799 56.3382 50.0301 55.5986 48.7654 59.644Z" fill="url(#paint15_linear)"/>
<path d="M50.2529 56.4693C50.2153 56.5612 50.1859 56.6562 50.165 56.7533V56.8085L50.1814 56.8371C50.2424 56.9119 50.3109 56.9804 50.3857 57.0414C50.7494 57.2089 51.0988 57.45 51.4563 57.6074C52.008 57.8525 52.578 58.0425 53.1317 58.2816C53.6854 58.5206 55.7878 59.3338 55.9921 59.4176C56.5445 59.6439 57.0834 59.9018 57.6062 60.1899C57.9698 60.3942 58.2722 60.5577 58.4132 60.9683C58.6931 61.7856 58.1885 62.9808 57.7226 63.6408C57.5358 63.9357 57.2825 64.1827 56.983 64.362C57.1996 64.362 57.4182 64.266 57.7717 63.796C58.2232 63.2015 58.544 62.139 58.5889 61.8857C58.7932 60.8028 58.5624 60.5188 57.5183 60.0346C56.8911 59.7424 56.0636 59.2889 55.4118 59.0641C54.8132 58.8598 52.4309 57.9424 51.8608 57.6196C51.5033 57.4153 50.682 57.1293 50.3816 56.8432C50.163 56.6389 50.4593 56.3222 50.7596 56.361C50.7641 56.3529 50.7696 56.3454 50.7759 56.3386C50.7759 56.3386 50.5961 56.1547 50.2529 56.4693Z" fill="white"/>
<path style="mix-blend-mode:overlay" d="M47.9228 47.7839C47.9228 47.7839 46.9544 45.5364 48.264 43.5444C49.5737 41.5523 51.5208 41.6483 50.6974 42.247C49.874 42.8456 47.5878 45.1768 47.9228 47.7839Z" fill="url(#paint16_linear)"/>
<path style="mix-blend-mode:overlay" d="M56.1368 61.9794C56.3166 61.3317 56.2901 60.2999 56.1981 60.0854C55.9795 59.5685 51.599 57.9523 50.7756 57.6214C49.9522 57.2904 50.0278 57.0391 50.0278 57.0391C50.0278 57.0391 49.5293 58.1158 49.2412 58.7778C50.3159 60.2917 56.1368 61.9794 56.1368 61.9794Z" fill="url(#paint17_linear)"/>
<path d="M68.6032 52.3221C68.1962 52.2498 67.7768 52.3092 67.4059 52.4916C66.9401 52.7246 66.5703 53.1046 66.18 53.4294C65.8111 53.7405 65.4228 54.0278 65.0175 54.2896C63.5076 55.2601 61.7137 55.9139 59.9096 55.5155C57.6213 55.0088 54.9203 54.1772 54.4544 52.5836C54.2843 52.0312 54.1479 51.4689 54.0458 50.9C53.5146 50.7836 52.5666 50.1543 52.2376 50.6467C51.7841 51.3291 52.2662 53.8912 51.6696 54.5C51.6625 55.0487 51.553 55.5913 51.3468 56.0998C51.3468 56.0998 51.2406 56.8823 56.7162 59.0889C62.1918 61.2955 62.3532 60.5334 62.3532 60.5334C62.3532 60.5334 62.9662 58.5639 66.3169 55.3173C67.2177 54.4328 67.9876 53.4242 68.6032 52.3221Z" fill="url(#paint18_linear)"/>
<g style="mix-blend-mode:multiply">
<path d="M48.0518 47.998C48.0518 47.998 48.869 49.4017 50.0479 50.9872C51.1655 52.497 51.4577 52.5359 51.5578 53.4389C51.5578 53.4389 51.3923 51.2426 50.3053 50.3844C49.2184 49.5263 49.0856 49.5202 48.0518 47.998Z" fill="#666666"/>
</g>
<path d="M48.8548 59.8223C48.8321 60.2628 48.9783 60.6953 49.2635 61.0318C49.7334 61.5222 56.0385 64.1823 56.6719 64.2252C57.3053 64.2681 57.6547 63.4815 57.6547 63.4815C57.6547 63.4815 57.0621 63.6858 54.6655 62.6949C52.2689 61.704 49.8539 60.8479 48.8548 59.8223Z" fill="#BCBCBC"/>
<path d="M57.2861 64.8373C57.2861 64.8373 58.273 65.2459 58.5284 65.1131C58.5284 65.1131 58.937 65.3971 59.1903 65.3174C59.1903 65.3174 59.8625 65.6586 60.0914 65.4829C60.3202 65.3072 60.9658 64.2305 60.9658 64.2305C60.5236 64.4516 60.0565 64.619 59.5744 64.729C59.5744 64.729 59.2966 64.6473 58.8716 64.5655C58.3981 64.8577 57.8299 64.9551 57.2861 64.8373Z" fill="#3C3C3C"/>
<path d="M59.4075 60.4058C59.5607 60.2607 60.3473 60.4568 60.3902 60.6469C60.4003 60.8958 60.3286 61.1413 60.1859 61.3456C60.0899 61.4314 59.5914 61.4089 59.4014 61.1556C59.3168 61.0486 59.2714 60.916 59.2725 60.7796C59.2736 60.6432 59.3212 60.5114 59.4075 60.4058Z" fill="#3C3C3C"/>
<path d="M60.6609 60.6878C60.7086 60.6532 60.7674 60.6376 60.826 60.644C60.8845 60.6504 60.9386 60.6784 60.9776 60.7225C61.045 60.8308 60.9429 61.3354 60.8285 61.4642C60.7141 61.5929 60.5608 61.5602 60.4893 61.3763C60.4607 61.1335 60.5218 60.8887 60.6609 60.6878Z" fill="#3C3C3C"/>
<path d="M61.2471 60.8078C61.3779 60.6729 62.2013 60.8078 62.283 60.7649C62.3647 60.7219 62.2687 61.3778 62.1114 61.5719C61.954 61.766 61.1245 61.7292 61.1 61.5249C61.0681 61.2762 61.1198 61.0239 61.2471 60.8078Z" fill="#3C3C3C"/>
<path d="M43.5257 56.2965C43.5257 56.2965 44.0712 56.1943 44.4308 57.0892C44.7904 57.9841 46.3963 60.7301 45.9876 61.7129C45.579 62.6956 35.6309 66.4877 34.9547 66.1587C34.2784 65.8298 32.2884 61.3655 32.5029 60.7383C32.7174 60.111 42.6491 56.2659 43.5257 56.2965Z" fill="#A69D97"/>
<path d="M38.4269 58.0223C40.0982 57.3726 41.7246 56.7862 42.693 56.4961C42.6812 56.5491 42.6867 56.6046 42.7088 56.6543C42.7308 56.7039 42.7683 56.7452 42.8156 56.7719C43.4285 57.1417 43.5246 57.7118 43.6921 58.3594C43.8285 58.9049 44.07 59.4185 44.4031 59.8714C44.8015 60.421 45.1713 61.0768 44.9732 61.7817C44.8763 62.096 44.744 62.3983 44.5788 62.6827C43.6267 63.171 42.3089 63.7452 40.9502 64.2866L38.4269 58.0223Z" fill="#B0B0B0"/>
<path d="M40.376 64.5085C39.0377 65.0295 37.7035 65.5015 36.6983 65.81L36.6656 65.7691C36.4613 65.4913 36.257 65.2052 36.0895 64.909C35.6567 64.2264 35.2683 63.5166 34.9269 62.7841C34.5511 61.978 34.3459 61.103 34.3242 60.2138C34.3242 60.0463 34.3385 59.8787 34.3569 59.7112C35.3315 59.2678 36.588 58.7448 37.8568 58.2422L40.376 64.5085Z" fill="url(#paint19_linear)"/>
<path d="M33.763 60.4316C33.8439 61.438 34.0896 62.4244 34.4903 63.3512C34.8297 64.1592 35.2595 64.9262 35.7714 65.6375C35.8602 65.7622 35.9572 65.8809 36.0615 65.993C35.4833 66.1483 35.0849 66.2157 34.9664 66.1585C34.2881 65.8316 32.3001 61.3653 32.5146 60.738C32.5616 60.6073 33.0295 60.3294 33.7405 59.9902C33.7507 60.1476 33.7569 60.2967 33.763 60.4316Z" fill="#E1E1E1"/>
<path d="M43.5269 56.2974C43.5269 56.2974 43.6331 57.0799 38.1575 59.2865C32.6819 61.4931 32.5205 60.731 32.5205 60.731C32.5205 60.731 31.9075 58.7614 28.5568 55.5149C24.732 51.8086 23.0791 45.0724 26.0294 42.3529C27.7007 40.8124 31.4723 37.8825 34.8149 36.7445C37.9246 35.6821 44.5587 39.7643 41.0751 42.6982C40.787 43.0742 40.7584 43.3214 40.3866 43.4705C40.2537 44.0835 40.5909 44.8394 41.0526 45.338C41.5532 45.8773 42.8179 46.3881 41.8249 43.9261C41.4163 42.9046 42.2765 40.792 44.8896 42.1425C47.5028 43.493 48.5857 46.6047 45.9398 50.076C43.2939 53.5473 42.7484 54.1051 43.5269 56.2974Z" fill="url(#paint20_linear)"/>
<path d="M41.0663 42.706C40.7782 43.082 40.7496 43.3292 40.3778 43.4783C40.3575 43.5723 40.3486 43.6683 40.3512 43.7644L26.7275 51.3608C26.7275 51.3608 25.2156 49.1951 24.9214 46.5757C24.7559 45.1231 25.2585 43.0718 26.0288 42.3607C27.7001 40.8202 31.4717 37.8903 34.8143 36.7523C37.9158 35.6899 44.558 39.7721 41.0663 42.706Z" fill="url(#paint21_linear)"/>
<path d="M41.827 42.7656C41.8743 42.9791 41.9889 43.1717 42.1539 43.3152C42.4174 43.5706 42.6442 43.9547 43.0651 43.9159C43.3879 43.8853 43.627 43.9159 43.5146 44.3082C43.4515 44.4984 43.4368 44.7013 43.4717 44.8987C43.5452 45.2869 44.0131 45.1949 44.2726 45.199C44.6118 45.199 44.0111 45.7997 43.9723 45.8344C43.8523 45.9285 43.7463 46.0393 43.6576 46.1634C43.6271 46.2006 43.6053 46.2442 43.5939 46.291C43.5825 46.3378 43.5817 46.3865 43.5917 46.4336C43.6018 46.4807 43.6222 46.525 43.6517 46.5631C43.6811 46.6012 43.7188 46.6322 43.7618 46.6537C43.8433 46.6905 43.9219 46.7335 43.9968 46.7824C44.4054 47.1216 43.9437 47.1911 43.7925 47.2197C43.6063 47.2448 43.4243 47.2943 43.251 47.3668C43.0835 47.4505 42.8914 47.5854 42.9548 47.802C43.0304 48.0635 43.2898 48.2106 43.4329 48.4149C43.7843 48.9502 42.683 48.6785 42.446 48.7725C42.2997 48.8353 42.1812 48.9493 42.113 49.0932C42.0783 49.1709 41.8065 50.0413 41.639 49.8819C41.1419 49.4041 40.849 48.7524 40.8217 48.0635C40.7809 47.5098 40.8217 46.9582 40.7931 46.4045C40.7727 46.0347 40.6603 45.4626 40.8299 45.0989C40.8932 45.1827 40.9586 45.2644 41.0342 45.34C41.5348 45.8794 42.7995 46.3902 41.8065 43.9282C41.6758 43.5504 41.683 43.1386 41.827 42.7656Z" fill="#D8D8D8"/>
<path d="M42.5893 43.9724C42.7073 44.0446 42.8414 44.0868 42.9795 44.095C43.237 44.1195 43.1368 44.1992 43.0265 44.3688C42.9658 44.4483 42.9248 44.5409 42.9067 44.6393C42.8886 44.7376 42.8939 44.8388 42.9223 44.9347C42.9696 45.0421 43.0393 45.1382 43.1266 45.2167C43.1593 45.2514 43.19 45.2882 43.2227 45.325C42.9208 45.2146 42.6433 45.0466 42.4054 44.8305C42.171 44.5605 41.9763 44.2585 41.8272 43.9336C41.6922 43.5613 41.6922 43.1535 41.8272 42.7812C41.8292 42.7956 41.8333 43.4351 42.5893 43.9724Z" fill="#666666"/>
<path d="M29.4117 45.7975C29.4194 45.8197 29.4316 45.8401 29.4474 45.8575C29.4632 45.8749 29.4824 45.8889 29.5038 45.8986C29.5252 45.9083 29.5484 45.9136 29.5719 45.9142C29.5954 45.9147 29.6188 45.9105 29.6406 45.9017C30.3741 46.3103 31.4385 46.0794 32.2088 45.9201C33.3673 45.681 34.5421 45.5114 35.6985 45.2601C37.0817 44.9578 38.4669 44.5614 39.7112 43.8708C39.936 43.7462 40.1607 43.6154 40.3773 43.4785C40.269 43.9832 40.4856 44.5982 40.8268 45.0763C40.9575 45.6259 40.7001 45.8813 40.555 47.0867C40.3957 48.4311 39.8808 49.6427 41.7809 53.1651C42.1385 53.8291 42.7821 54.6566 43.2111 54.8813C43.2471 55.3716 43.3566 55.8537 43.536 56.3115C43.536 56.3115 43.6422 57.094 38.1666 59.3006C35.9723 60.1833 34.632 60.5919 33.8127 60.7635C33.6525 60.1695 33.4327 59.5931 33.1568 59.0432C32.3682 57.4659 31.1954 56.1828 29.943 54.9569C28.2206 53.2733 26.157 51.5469 25.967 48.9787C25.8853 47.8631 25.9016 46.2838 26.6269 45.3562C27.3706 44.3918 29.0297 44.5655 29.4117 45.7975Z" fill="url(#paint22_linear)"/>
<path d="M34.2939 46.7513C35.1541 46.5143 36.7559 46.2425 38.3271 47.0251C39.271 47.495 41.1057 53.3466 41.3223 53.888C42.4052 56.5747 42.6892 56.0946 43.0059 56.8894C42.3929 57.3552 41.0587 58.1153 38.1575 59.2941C36.9211 59.8121 35.6548 60.2555 34.3654 60.6222C34.7291 59.4474 31.8462 55.8453 30.3772 54.6337C29.5742 53.9718 26.9263 48.7842 34.2939 46.7513Z" fill="url(#paint23_linear)"/>
<path d="M40.3763 43.4785C40.3488 43.6129 40.3412 43.7506 40.3538 43.8871L40.3191 43.9096C40.0412 44.0874 40.8176 45.4175 40.3068 46.4758C39.8982 47.3155 36.1572 51.2649 34.4655 51.7471C32.7288 52.2395 28.0909 52.548 27.4269 52.1169C25.3612 48.8234 26.201 45.8772 26.6096 45.3603C27.3635 44.3959 29.0246 44.5696 29.4046 45.8016C29.4123 45.8238 29.4245 45.8442 29.4403 45.8616C29.4561 45.879 29.4753 45.8929 29.4967 45.9027C29.5181 45.9124 29.5413 45.9177 29.5648 45.9183C29.5883 45.9188 29.6116 45.9145 29.6334 45.9058C30.3669 46.3144 31.4314 46.0835 32.2017 45.9242C33.3601 45.6851 34.5349 45.5155 35.6914 45.2642C37.0746 44.9618 38.4598 44.5655 39.7041 43.8749C39.935 43.7462 40.1597 43.6154 40.3763 43.4785Z" fill="url(#paint24_linear)"/>
<path d="M43.8928 42.7268C43.6504 42.6438 43.4287 42.5093 43.2431 42.3325C43.1444 42.2081 43.0256 42.1011 42.8917 42.0158C42.7977 41.9632 42.7001 41.9175 42.5995 41.8789C43.1144 41.6235 43.8683 41.6255 44.8879 42.1506C47.5072 43.4991 48.5839 46.6129 45.938 50.0842C44.279 52.2601 43.4474 53.2878 43.2472 54.2951C43.0429 53.958 43.0654 52.1988 42.8631 50.1005C42.8222 49.6796 44.7489 50.3048 45.1106 49.8328C45.2606 49.7081 45.3619 49.5345 45.3966 49.3425C45.44 49.1345 45.4309 48.9189 45.37 48.7152C45.3006 48.4987 45.2127 48.3373 45.3823 48.1289C45.6438 47.8081 45.9053 47.5568 45.9952 47.142C46.0213 47.048 46.0095 46.9476 45.9626 46.8621C45.9548 46.6597 45.9003 46.4618 45.8032 46.2839C45.6929 46.0612 45.3108 45.8038 45.415 45.5565C45.4543 45.4708 45.4636 45.3744 45.4416 45.2828C45.5123 45.1721 45.5541 45.0454 45.563 44.9144C45.5719 44.7833 45.5477 44.6522 45.4926 44.5329C45.3748 44.3113 45.1812 44.1394 44.9471 44.0487C44.6978 43.9568 44.6692 43.9098 44.6488 43.7422C44.8225 43.3704 44.1707 42.8514 43.8928 42.7268Z" fill="#959595"/>
<path style="mix-blend-mode:overlay" d="M37.2292 36.9769C38.3897 37.0913 39.4971 37.8309 40.1999 38.3866C40.6619 38.7611 41.063 39.205 41.389 39.7024C41.6199 39.9067 41.6689 40.3685 41.7241 40.6484C41.7997 41.0284 41.6117 41.4228 41.4197 41.7394C41.1888 42.1236 40.8881 42.4611 40.5329 42.7345C39.6769 43.3398 38.7455 43.8309 37.7624 44.1953C36.4058 44.6734 34.2012 45.0126 33.5229 45.1188C33.0568 45.2668 32.5693 45.3358 32.0805 45.3231H32.06C31.9783 45.3231 31.9865 45.1944 32.06 45.1842C32.4911 45.127 32.9263 45.0718 33.3574 45.0064C33.5832 44.9389 33.8049 44.8584 34.0214 44.7653C34.6548 44.4977 35.1901 44.0298 35.8603 43.8275C36.1708 43.7335 35.0532 40.5258 36.3057 39.5839C37.5581 38.642 37.0698 37.6205 36.8062 37.4999C36.7368 37.4652 36.0707 36.8645 37.2292 36.9769Z" fill="url(#paint25_linear)"/>
<path style="mix-blend-mode:overlay" d="M44.8579 48.1822C44.909 48.4683 44.8722 48.7604 44.9499 49.0465L44.9621 49.0975C44.8852 49.2183 44.7917 49.3277 44.6843 49.4224C44.4975 49.4866 44.3031 49.5258 44.106 49.5389C44.2487 49.3831 44.3486 49.193 44.3962 48.9872C44.4534 48.7134 44.3594 48.409 44.3696 48.1332C44.3736 47.8828 44.4542 47.6397 44.6005 47.4365C44.7 47.3398 44.7761 47.2217 44.8232 47.0912C44.8661 46.8869 44.7006 46.6356 44.6189 46.466C44.4701 46.2126 44.4044 45.9189 44.4309 45.6263C44.4518 45.5293 44.4862 45.4358 44.5331 45.3484C44.5615 45.2826 44.5834 45.2142 44.5984 45.1441C44.627 44.9949 44.4084 44.9867 44.3247 44.9745C44.2371 44.976 44.1505 44.9557 44.0727 44.9154C43.995 44.8751 43.9285 44.8161 43.8793 44.7436C43.7669 44.5556 43.8302 44.3003 43.8323 44.0959C43.8323 43.7098 43.5217 43.6873 43.2561 43.5382C43.1647 43.4785 43.0896 43.3971 43.0375 43.3012C42.9634 43.1688 42.8649 43.0517 42.7473 42.9559C42.6663 42.91 42.6004 42.8415 42.5576 42.7588C42.5148 42.6761 42.4969 42.5827 42.5063 42.49C42.5471 42.2857 42.7821 42.3102 42.9251 42.3552C43.2377 42.4532 43.2786 42.7985 43.5013 42.9926C43.631 43.0829 43.7676 43.1629 43.9099 43.2317C44.0358 43.3128 44.1375 43.4265 44.2041 43.5606C44.3737 43.863 44.4084 44.147 44.721 44.3554C44.8824 44.4657 45.0602 44.5597 45.1031 44.7783C45.1869 45.1686 44.9662 45.5404 45.1031 45.9348C45.208 46.1492 45.331 46.3542 45.4709 46.5477C45.5792 46.7326 45.623 46.9482 45.5955 47.1607C45.5587 47.4671 45.2543 47.6673 45.0561 47.8696C44.967 47.9573 44.8992 48.0642 44.8579 48.1822Z" fill="url(#paint26_linear)"/>
<path d="M42.1323 44.7188C42.1323 44.7188 42.4633 45.4931 42.0485 45.7975C42.0485 45.7975 42.3468 46.9356 43.0047 47.0908C43.6626 47.2461 43.8485 46.9866 43.3337 46.6393C42.8188 46.292 42.5798 45.9222 42.7616 45.8486C42.9434 45.7751 43.0762 45.7955 43.2152 45.6668C43.3541 45.5381 42.5368 45.3848 42.1323 44.7188Z" fill="#666666"/>
<path style="mix-blend-mode:multiply" d="M25.0614 48.3889C25.0982 48.0293 24.7202 47.5431 24.6528 46.9914C24.5854 46.4398 24.7161 45.7655 24.7938 45.9535C24.8714 46.1415 24.9082 45.3201 24.8878 44.9094C24.8755 44.6459 25.2412 44.2005 25.5007 43.9165C25.5007 43.8634 25.4966 43.8102 25.4885 43.7571C25.4701 43.4425 25.4558 42.9889 25.8031 42.8459C25.8167 42.8408 25.8314 42.8393 25.8457 42.8416C25.86 42.8439 25.8735 42.8498 25.8848 42.8589C25.8961 42.868 25.9049 42.8798 25.9103 42.8933C25.9157 42.9068 25.9175 42.9214 25.9155 42.9358C25.846 43.3771 26.1463 43.5855 26.4303 43.8368C26.4998 43.4486 26.5958 42.8316 26.9697 42.7233C26.9809 42.7192 26.9928 42.7177 27.0046 42.7188C27.0164 42.7199 27.0278 42.7236 27.0379 42.7297C27.0481 42.7357 27.0568 42.744 27.0634 42.7538C27.07 42.7637 27.0743 42.7749 27.076 42.7866C27.076 42.8111 27.1618 43.1952 27.2374 43.1421C27.3207 43.072 27.39 42.9867 27.4417 42.8908C27.5279 42.7606 27.6349 42.6453 27.7584 42.5496C27.8912 42.4495 28.1139 42.378 28.167 42.5946C28.1874 42.6824 28.0792 42.7989 28.0342 42.8622C27.9893 42.9256 28.0546 42.9582 28.1343 43.0114C28.7473 42.2186 28.9516 43.3464 29.2601 43.3097C29.6871 43.2586 30.3961 42.901 30.2714 43.183C30.0467 43.7122 29.8179 44.6459 30.3001 45.0218C30.7822 45.3978 31.9346 45.8105 31.9346 45.8105C31.9346 45.8105 30.5411 46.1823 29.7198 45.694C29.3398 45.4672 29.3316 44.9135 28.688 44.6398C28.4535 44.5495 28.236 44.4203 28.0444 44.2577C27.9566 44.3272 27.8932 44.3987 27.9341 44.4804C27.9366 44.4845 27.9382 44.4891 27.9388 44.4938C27.9394 44.4986 27.939 44.5034 27.9377 44.508C27.9363 44.5126 27.9341 44.5169 27.931 44.5206C27.9279 44.5243 27.9241 44.5273 27.9198 44.5294C27.9211 44.5427 27.9189 44.556 27.9135 44.5682C27.9082 44.5803 27.8998 44.5909 27.8892 44.5989C27.7809 44.6847 27.6052 44.5703 27.4805 44.6254C27.2292 44.7296 27.0392 44.934 26.7818 45.0096C26.5999 45.0647 26.5202 45.3079 26.32 45.3262C26.2828 45.3326 26.2448 45.3326 26.2076 45.3262C25.5784 46.3907 25.4455 48.6341 25.752 49.8518C25.525 49.684 25.3431 49.4626 25.2226 49.2073C25.1021 48.952 25.0467 48.6708 25.0614 48.3889Z" fill="url(#paint27_linear)"/>
<path style="mix-blend-mode:multiply" d="M46.0169 60.0751C46.0169 60.0751 46.1579 61.1477 45.5552 61.6462C45.2181 61.9262 43.2383 62.9559 41.3054 63.7425C41.1563 63.8018 40.9847 63.8876 40.8519 63.8345C40.8426 63.871 40.8234 63.9043 40.7963 63.9307C40.7693 63.957 40.7355 63.9753 40.6986 63.9836C40.4024 64.1001 40.1981 64.2513 39.8099 64.2226C39.1375 64.5301 38.4213 64.7307 37.687 64.8172C36.2241 64.8948 35.1781 61.1252 35.981 60.5838C36.784 60.0424 43.4936 57.4803 43.8185 57.2024C44.1434 56.9245 44.0412 56.7754 44.0412 56.7754C44.1217 56.8179 44.1948 56.8731 44.2578 56.9388C44.5581 57.0022 45.1588 57.3311 46.0169 60.0751Z" fill="url(#paint28_linear)"/>
<path d="M46.1048 59.8491C46.1048 59.8491 46.2457 60.9217 45.645 61.4202C45.0444 61.9188 39.2459 64.5115 37.7749 64.5912C36.3038 64.6709 35.2679 60.8992 36.0688 60.3578C36.8698 59.8164 43.5815 57.2543 43.9063 56.9764C44.2312 56.6985 44.0861 56.5433 44.0861 56.5433C44.0861 56.5433 44.84 55.8036 46.1048 59.8491Z" fill="url(#paint29_linear)"/>
<path d="M46.1048 59.8491C46.1048 59.8491 46.2457 60.9217 45.645 61.4202C45.0771 61.8902 39.8711 64.2275 38.0609 64.5544C37.7749 64.5912 37.544 64.5973 37.0945 64.0007C36.645 63.4041 36.3222 62.3437 36.2772 62.0904C36.0729 61.0075 36.3038 60.7235 37.3478 60.2393C37.9751 59.9471 38.8026 59.4936 39.4543 59.2688C40.053 59.0645 42.4353 58.1471 43.0053 57.8243C43.3629 57.62 44.1842 57.334 44.4845 57.0479C44.7032 56.8436 44.4069 56.5269 44.1066 56.5657C44.102 56.5576 44.0966 56.5501 44.0902 56.5433C44.0902 56.5433 44.84 55.8036 46.1048 59.8491Z" fill="url(#paint30_linear)"/>
<path d="M44.6172 56.6744C44.6548 56.7663 44.6842 56.8613 44.7051 56.9584V57.0136L44.6887 57.0422C44.6277 57.117 44.5592 57.1854 44.4844 57.2465C44.1207 57.414 43.7714 57.6551 43.4138 57.8124C42.8622 58.0576 42.2921 58.2476 41.7384 58.4867C41.1847 58.7257 39.0823 59.5389 38.878 59.6227C38.3257 59.849 37.7867 60.1068 37.2639 60.395C36.9003 60.5993 36.5979 60.7627 36.4569 61.1734C36.177 61.9907 36.6817 63.1859 37.1475 63.8458C37.3343 64.1407 37.5876 64.3878 37.8871 64.5671C37.6705 64.5671 37.4519 64.471 37.0985 64.0011C36.6469 63.4066 36.3261 62.3441 36.2812 62.0908C36.0769 61.0079 36.3078 60.7239 37.3518 60.2397C37.9791 59.9475 38.8065 59.4939 39.4583 59.2692C40.0569 59.0649 42.4392 58.1475 43.0093 57.8247C43.3668 57.6204 44.1882 57.3343 44.4885 57.0483C44.7071 56.844 44.4109 56.5273 44.1105 56.5661C44.106 56.558 44.1005 56.5504 44.0942 56.5436C44.0942 56.5436 44.274 56.3598 44.6172 56.6744Z" fill="white"/>
<path style="mix-blend-mode:overlay" d="M46.9473 47.989C46.9473 47.989 47.9157 45.7415 46.6061 43.7494C45.2964 41.7574 43.3493 41.8534 44.1727 42.452C44.9961 43.0507 47.2824 45.3819 46.9473 47.989Z" fill="url(#paint31_linear)"/>
<path style="mix-blend-mode:overlay" d="M38.7362 62.1845C38.5564 61.5368 38.583 60.505 38.6749 60.2905C38.8936 59.7736 43.2741 58.1574 44.0974 57.8264C44.9208 57.4954 44.8452 57.2441 44.8452 57.2441C44.8452 57.2441 45.3438 58.3209 45.6318 58.9829C44.5571 60.4968 38.7362 62.1845 38.7362 62.1845Z" fill="url(#paint32_linear)"/>
<path d="M26.2669 52.5271C26.6739 52.4549 27.0933 52.5143 27.4642 52.6967C27.93 52.9296 28.2998 53.3097 28.6901 53.6345C29.059 53.9456 29.4473 54.2329 29.8526 54.4947C31.3625 55.4652 33.1564 56.119 34.9605 55.7206C37.2488 55.2139 39.9498 54.3823 40.4157 52.7887C40.5858 52.2362 40.7222 51.674 40.8243 51.1051C41.3555 50.9886 42.3035 50.3594 42.6325 50.8518C43.0861 51.5342 42.6039 54.0963 43.2005 54.7051C43.2076 55.2538 43.3171 55.7964 43.5233 56.3049C43.5233 56.3049 43.6295 57.0874 38.1539 59.294C32.6783 61.5006 32.5169 60.7385 32.5169 60.7385C32.5169 60.7385 31.9039 58.7689 28.5532 55.5224C27.6524 54.6379 26.8825 53.6293 26.2669 52.5271Z" fill="url(#paint33_linear)"/>
<g style="mix-blend-mode:multiply">
<path d="M46.8184 48.2031C46.8184 48.2031 46.0011 49.6068 44.8222 51.1922C43.7046 52.7021 43.4124 52.7409 43.3123 53.644C43.3123 53.644 43.4778 51.4476 44.5648 50.5895C45.6517 49.7314 45.7845 49.7253 46.8184 48.2031Z" fill="#666666"/>
</g>
<path d="M46.0153 60.0273C46.038 60.4678 45.8919 60.9004 45.6066 61.2369C45.1367 61.7272 38.8316 64.3874 38.1982 64.4303C37.5648 64.4732 37.2155 63.6866 37.2155 63.6866C37.2155 63.6866 37.808 63.8909 40.2046 62.9C42.6012 61.9091 45.0162 61.053 46.0153 60.0273Z" fill="#BCBCBC"/>
<path d="M37.584 65.0424C37.584 65.0424 36.5971 65.451 36.3418 65.3182C36.3418 65.3182 35.9331 65.6022 35.6798 65.5225C35.6798 65.5225 35.0076 65.8637 34.7788 65.688C34.5499 65.5123 33.9043 64.4355 33.9043 64.4355C34.3465 64.6567 34.8136 64.8241 35.2957 64.9341C35.2957 64.9341 35.5735 64.8524 35.9985 64.7706C36.472 65.0628 37.0402 65.1602 37.584 65.0424Z" fill="#3C3C3C"/>
<path d="M35.4626 60.6108C35.3094 60.4658 34.5228 60.6619 34.4799 60.8519C34.4698 61.1009 34.5415 61.3464 34.6842 61.5507C34.7802 61.6365 35.2787 61.614 35.4687 61.3607C35.5533 61.2537 35.5988 61.121 35.5976 60.9847C35.5965 60.8483 35.5489 60.7164 35.4626 60.6108Z" fill="#3C3C3C"/>
<path d="M34.2092 60.8928C34.1615 60.8583 34.1027 60.8426 34.0441 60.8491C33.9856 60.8555 33.9315 60.8835 33.8925 60.9276C33.8251 61.0359 33.9272 61.5405 34.0416 61.6692C34.1561 61.798 34.3093 61.7653 34.3808 61.5814C34.4094 61.3386 34.3484 61.0938 34.2092 60.8928Z" fill="#3C3C3C"/>
<path d="M33.623 61.0128C33.4922 60.878 32.6689 61.0128 32.5871 60.9699C32.5054 60.927 32.6014 61.5829 32.7588 61.777C32.9161 61.9711 33.7456 61.9343 33.7701 61.73C33.802 61.4812 33.7503 61.2289 33.623 61.0128Z" fill="#3C3C3C"/>
</g>
<defs>
<linearGradient id="paint0_linear" x1="87.2467" y1="84.381" x2="11.0375" y2="26.5601" gradientUnits="userSpaceOnUse">
<stop stop-color="#656565"/>
<stop offset="0.0885417" stop-color="#9B9895"/>
<stop offset="0.229167" stop-color="#CDCDCC"/>
<stop offset="0.411458" stop-color="white"/>
<stop offset="0.651042" stop-color="#8D8D8D"/>
<stop offset="1" stop-color="#D1D0D0"/>
</linearGradient>
<linearGradient id="paint1_linear" x1="12.5696" y1="16.2438" x2="80.8105" y2="73.5539" gradientUnits="userSpaceOnUse">
<stop stop-color="#656565"/>
<stop offset="0.0885417" stop-color="#A69E99"/>
<stop offset="0.229167" stop-color="#C4BEBA"/>
<stop offset="0.411458" stop-color="white"/>
<stop offset="0.651042" stop-color="#8D8D8D"/>
<stop offset="1" stop-color="#D1D0D0"/>
</linearGradient>
<linearGradient id="paint2_linear" x1="23.72" y1="23.7146" x2="71.1501" y2="71.1448" gradientUnits="userSpaceOnUse">
<stop stop-color="#656565"/>
<stop offset="0.0885417" stop-color="#968D87"/>
<stop offset="0.229167" stop-color="#C9C5C1"/>
<stop offset="0.411458" stop-color="white"/>
<stop offset="0.651042" stop-color="#8D8D8D"/>
<stop offset="1" stop-color="#D1D0D0"/>
</linearGradient>
<radialGradient id="paint3_radial" cx="0" cy="0" r="1" gradientUnits="userSpaceOnUse" gradientTransform="translate(47.4361 47.4293) rotate(90) scale(26.4996)">
<stop stop-color="#DA050B"/>
<stop offset="1" stop-color="#5C0204"/>
</radialGradient>
<linearGradient id="paint4_linear" x1="59.0288" y1="65.842" x2="57.9905" y2="59.1415" gradientUnits="userSpaceOnUse">
<stop offset="0.01" stop-color="#A2A2A2"/>
<stop offset="1" stop-color="white"/>
</linearGradient>
<linearGradient id="paint5_linear" x1="58.8778" y1="36.3672" x2="58.8778" y2="60.6531" gradientUnits="userSpaceOnUse">
<stop stop-color="#656565"/>
<stop offset="0.0885417" stop-color="#8B7A6F"/>
<stop offset="0.229167" stop-color="#C2AFA1"/>
<stop offset="0.651042" stop-color="#8D8D8D"/>
<stop offset="1" stop-color="#D1D0D0"/>
</linearGradient>
<linearGradient id="paint6_linear" x1="61.3979" y1="36.375" x2="61.3979" y2="51.1557" gradientUnits="userSpaceOnUse">
<stop stop-color="#656565"/>
<stop offset="0.0885417" stop-color="#8B7A6F"/>
<stop offset="0.229167" stop-color="#C2AFA1"/>
<stop offset="0.411458" stop-color="white"/>
<stop offset="0.651042" stop-color="#8D8D8D"/>
<stop offset="1" stop-color="#D1D0D0"/>
</linearGradient>
<linearGradient id="paint7_linear" x1="60.1353" y1="43.2734" x2="60.1353" y2="60.5584" gradientUnits="userSpaceOnUse">
<stop stop-color="#656565"/>
<stop offset="0.0885417" stop-color="#8B7A6F"/>
<stop offset="0.229167" stop-color="#C2AFA1"/>
<stop offset="0.411458" stop-color="white"/>
<stop offset="0.651042" stop-color="#8D8D8D"/>
<stop offset="1" stop-color="#D1D0D0"/>
</linearGradient>
<linearGradient id="paint8_linear" x1="58.741" y1="46.3008" x2="58.741" y2="60.4171" gradientUnits="userSpaceOnUse">
<stop offset="0.317948" stop-color="#EAEAEA"/>
<stop offset="1" stop-color="#898989"/>
</linearGradient>
<linearGradient id="paint9_linear" x1="62.008" y1="50.6408" x2="62.8978" y2="44.7183" gradientUnits="userSpaceOnUse">
<stop stop-color="white"/>
<stop offset="0.99" stop-color="#B4B4B4"/>
</linearGradient>
<linearGradient id="paint10_linear" x1="-8436.86" y1="10936.9" x2="-8310.18" y2="11238.5" gradientUnits="userSpaceOnUse">
<stop stop-color="white"/>
<stop offset="1" stop-color="white"/>
</linearGradient>
<linearGradient id="paint11_linear" x1="-2740.62" y1="9299.02" x2="-2642.98" y2="9432.94" gradientUnits="userSpaceOnUse">
<stop stop-color="white"/>
<stop offset="1" stop-color="white"/>
</linearGradient>
<linearGradient id="paint12_linear" x1="7175.7" y1="-6709.57" x2="7069.96" y2="-6390.33" gradientUnits="userSpaceOnUse">
<stop stop-color="white"/>
<stop offset="0.99" stop-color="#B4B4B4"/>
</linearGradient>
<linearGradient id="paint13_linear" x1="57.6769" y1="57.8607" x2="53.5452" y2="61.0616" gradientUnits="userSpaceOnUse">
<stop offset="0.01" stop-color="#B4B4B4"/>
<stop offset="1" stop-color="white"/>
</linearGradient>
<linearGradient id="paint14_linear" x1="53.9154" y1="56.2852" x2="53.9154" y2="64.3874" gradientUnits="userSpaceOnUse">
<stop stop-color="#656565"/>
<stop offset="0.0885417" stop-color="#8B7A6F"/>
<stop offset="0.229167" stop-color="#C2AFA1"/>
<stop offset="0.411458" stop-color="white"/>
<stop offset="0.651042" stop-color="#8D8D8D"/>
<stop offset="1" stop-color="#D1D0D0"/>
</linearGradient>
<linearGradient id="paint15_linear" x1="53.7058" y1="56.2852" x2="53.7058" y2="64.3632" gradientUnits="userSpaceOnUse">
<stop offset="0.0885417" stop-color="#8B7A6F"/>
<stop offset="0.229167" stop-color="#C2AFA1"/>
<stop offset="0.651042" stop-color="#8D8D8D"/>
<stop offset="1" stop-color="#D1D0D0"/>
</linearGradient>
<linearGradient id="paint16_linear" x1="-2926.61" y1="7650.35" x2="-2878.95" y2="7705.01" gradientUnits="userSpaceOnUse">
<stop stop-color="white"/>
<stop offset="1" stop-color="white"/>
</linearGradient>
<linearGradient id="paint17_linear" x1="7381.08" y1="-993.115" x2="7393.61" y2="-810.71" gradientUnits="userSpaceOnUse">
<stop stop-color="white"/>
<stop offset="1" stop-color="white"/>
</linearGradient>
<linearGradient id="paint18_linear" x1="59.9749" y1="50.4609" x2="60.5201" y2="66.8093" gradientUnits="userSpaceOnUse">
<stop stop-color="#656565"/>
<stop offset="0.411458" stop-color="white"/>
<stop offset="0.651042" stop-color="#8D8D8D"/>
<stop offset="1" stop-color="#D1D0D0"/>
</linearGradient>
<linearGradient id="paint19_linear" x1="35.8413" y1="66.0471" x2="36.8796" y2="59.3465" gradientUnits="userSpaceOnUse">
<stop offset="0.01" stop-color="#A2A2A2"/>
<stop offset="1" stop-color="white"/>
</linearGradient>
<linearGradient id="paint20_linear" x1="35.9923" y1="36.5723" x2="35.9923" y2="60.8582" gradientUnits="userSpaceOnUse">
<stop stop-color="#656565"/>
<stop offset="0.0885417" stop-color="#8B7A6F"/>
<stop offset="0.229167" stop-color="#C2AFA1"/>
<stop offset="0.651042" stop-color="#8D8D8D"/>
<stop offset="1" stop-color="#D1D0D0"/>
</linearGradient>
<linearGradient id="paint21_linear" x1="33.4723" y1="36.5801" x2="33.4723" y2="51.3608" gradientUnits="userSpaceOnUse">
<stop stop-color="#656565"/>
<stop offset="0.0885417" stop-color="#8B7A6F"/>
<stop offset="0.229167" stop-color="#C2AFA1"/>
<stop offset="0.411458" stop-color="white"/>
<stop offset="0.651042" stop-color="#8D8D8D"/>
<stop offset="1" stop-color="#D1D0D0"/>
</linearGradient>
<linearGradient id="paint22_linear" x1="34.7348" y1="43.4785" x2="34.7348" y2="60.7635" gradientUnits="userSpaceOnUse">
<stop stop-color="#656565"/>
<stop offset="0.0885417" stop-color="#8B7A6F"/>
<stop offset="0.229167" stop-color="#C2AFA1"/>
<stop offset="0.411458" stop-color="white"/>
<stop offset="0.651042" stop-color="#8D8D8D"/>
<stop offset="1" stop-color="#D1D0D0"/>
</linearGradient>
<linearGradient id="paint23_linear" x1="36.1291" y1="46.5059" x2="36.1291" y2="60.6222" gradientUnits="userSpaceOnUse">
<stop offset="0.317948" stop-color="#EAEAEA"/>
<stop offset="1" stop-color="#898989"/>
</linearGradient>
<linearGradient id="paint24_linear" x1="32.8621" y1="50.8459" x2="31.9723" y2="44.9233" gradientUnits="userSpaceOnUse">
<stop stop-color="white"/>
<stop offset="0.99" stop-color="#B4B4B4"/>
</linearGradient>
<linearGradient id="paint25_linear" x1="8531.73" y1="10937.1" x2="8405.05" y2="11238.7" gradientUnits="userSpaceOnUse">
<stop stop-color="white"/>
<stop offset="1" stop-color="white"/>
</linearGradient>
<linearGradient id="paint26_linear" x1="2835.49" y1="9299.23" x2="2737.85" y2="9433.15" gradientUnits="userSpaceOnUse">
<stop stop-color="white"/>
<stop offset="1" stop-color="white"/>
</linearGradient>
<linearGradient id="paint27_linear" x1="-7080.83" y1="-6709.36" x2="-6975.08" y2="-6390.13" gradientUnits="userSpaceOnUse">
<stop stop-color="white"/>
<stop offset="0.99" stop-color="#B4B4B4"/>
</linearGradient>
<linearGradient id="paint28_linear" x1="37.1932" y1="58.0658" x2="41.3249" y2="61.2667" gradientUnits="userSpaceOnUse">
<stop offset="0.01" stop-color="#B4B4B4"/>
<stop offset="1" stop-color="white"/>
</linearGradient>
<linearGradient id="paint29_linear" x1="40.9547" y1="56.4902" x2="40.9547" y2="64.5924" gradientUnits="userSpaceOnUse">
<stop stop-color="#656565"/>
<stop offset="0.0885417" stop-color="#8B7A6F"/>
<stop offset="0.229167" stop-color="#C2AFA1"/>
<stop offset="0.411458" stop-color="white"/>
<stop offset="0.651042" stop-color="#8D8D8D"/>
<stop offset="1" stop-color="#D1D0D0"/>
</linearGradient>
<linearGradient id="paint30_linear" x1="41.1644" y1="56.4902" x2="41.1644" y2="64.5682" gradientUnits="userSpaceOnUse">
<stop offset="0.0885417" stop-color="#8B7A6F"/>
<stop offset="0.229167" stop-color="#C2AFA1"/>
<stop offset="0.651042" stop-color="#8D8D8D"/>
<stop offset="1" stop-color="#D1D0D0"/>
</linearGradient>
<linearGradient id="paint31_linear" x1="3021.48" y1="7650.56" x2="2973.82" y2="7705.21" gradientUnits="userSpaceOnUse">
<stop stop-color="white"/>
<stop offset="1" stop-color="white"/>
</linearGradient>
<linearGradient id="paint32_linear" x1="-7286.21" y1="-992.91" x2="-7298.73" y2="-810.505" gradientUnits="userSpaceOnUse">
<stop stop-color="white"/>
<stop offset="1" stop-color="white"/>
</linearGradient>
<linearGradient id="paint33_linear" x1="34.8952" y1="50.666" x2="34.35" y2="67.0144" gradientUnits="userSpaceOnUse">
<stop stop-color="#656565"/>
<stop offset="0.411458" stop-color="white"/>
<stop offset="0.651042" stop-color="#8D8D8D"/>
<stop offset="1" stop-color="#D1D0D0"/>
</linearGradient>
<clipPath id="clip0">
<rect width="94.8603" height="94.8603" fill="white"/>
</clipPath>
</defs>
</svg>
