<svg viewBox="0 0 63 64" fill="none" xmlns="http://www.w3.org/2000/svg">
<path fill-rule="evenodd" clip-rule="evenodd" d="M6.12868 6.21218C5.25 7.09086 5.25 8.50507 5.25 11.3335L5.25 52.6668C5.25 55.4953 5.25 56.9095 6.12868 57.7882C7.00736 58.6668 8.42157 58.6668 11.25 58.6668L51.75 58.6668C54.5784 58.6668 55.9926 58.6668 56.8713 57.7882C57.75 56.9095 57.75 55.4953 57.75 52.6668L57.75 11.3335C57.75 8.50507 57.75 7.09086 56.8713 6.21218C55.9926 5.3335 54.5784 5.3335 51.75 5.3335L11.25 5.3335C8.42157 5.3335 7.00736 5.3335 6.12868 6.21218ZM46.2971 25.0973C46.9031 24.1738 46.6458 22.9339 45.7223 22.3279C44.7988 21.7219 43.5589 21.9792 42.9529 22.9027L42.0927 24.2134L30.1913 30.3961C29.1483 28.3521 26.2774 28.188 25.0121 30.116L14.6521 45.9027C14.0461 46.8262 14.3034 48.0661 15.2269 48.6721C16.1504 49.2781 17.3903 49.0208 17.9963 48.0973L27.396 33.774L30.7373 40.5628C31.7625 42.6457 34.6634 42.8249 35.9371 40.884L46.2971 25.0973ZM30.1923 30.3981C30.192 30.3974 30.1916 30.3967 30.1913 30.3961L28.3115 31.3726L28.4175 31.3204L30.2119 30.4372L33.5532 37.226L42.0921 24.2143L45.7223 22.3279L42.0927 24.2134L42.0921 24.2143L30.1923 30.3981ZM30.1923 30.3981C30.1989 30.4111 30.2054 30.4241 30.2119 30.4372L28.4175 31.3204L30.1923 30.3981Z" fill="white"/>
</svg>
