<svg viewBox="0 0 60 54" fill="none" xmlns="http://www.w3.org/2000/svg">
<path fill-rule="evenodd" clip-rule="evenodd" d="M1.71193 1.62868C0.833252 2.50736 0.833252 3.92157 0.833252 6.75V47.25C0.833252 50.0784 0.833252 51.4926 1.71193 52.3713C2.59061 53.25 4.00482 53.25 6.83325 53.25H53.1666C55.995 53.25 57.4092 53.25 58.2879 52.3713C59.1666 51.4926 59.1666 50.0784 59.1666 47.25V6.75C59.1666 3.92157 59.1666 2.50736 58.2879 1.62868C57.4092 0.75 55.995 0.75 53.1666 0.75H6.83325C4.00483 0.75 2.59061 0.75 1.71193 1.62868ZM41.6666 16.25C42.7712 16.25 43.6666 17.1454 43.6666 18.25V41.5833C43.6666 42.6879 42.7712 43.5833 41.6666 43.5833C40.562 43.5833 39.6666 42.6879 39.6666 41.5833V18.25C39.6666 17.1454 40.562 16.25 41.6666 16.25ZM20.3333 24.0833C20.3333 22.9788 19.4378 22.0833 18.3333 22.0833C17.2287 22.0833 16.3333 22.9788 16.3333 24.0833V41.5833C16.3333 42.6879 17.2287 43.5833 18.3333 43.5833C19.4378 43.5833 20.3333 42.6879 20.3333 41.5833V24.0833ZM31.9999 29.9167C31.9999 28.8121 31.1045 27.9167 29.9999 27.9167C28.8953 27.9167 27.9999 28.8121 27.9999 29.9167V41.5833C27.9999 42.6879 28.8953 43.5833 29.9999 43.5833C31.1045 43.5833 31.9999 42.6879 31.9999 41.5833V29.9167Z" fill="white"/>
</svg>
