<svg width="57" height="57" viewBox="0 0 57 57" fill="none" xmlns="http://www.w3.org/2000/svg">
<path fill-rule="evenodd" clip-rule="evenodd" d="M52.1242 8.52441L51.0625 40.3749H50.8137C49.1787 40.3749 48.3612 40.3749 47.6261 40.0704C46.891 39.7659 46.313 39.1878 45.1569 38.0317L40.8284 33.7033C39.4951 32.37 38.8284 31.7033 38 31.7033C37.1716 31.7033 36.5049 32.37 35.1716 33.7033L31.8595 37.0153L31.8595 37.0154C30.4556 38.4192 29.7537 39.1212 29.1525 38.8983C29.1289 38.8896 29.1056 38.8799 29.0827 38.8694C28.5 38.6019 28.5 37.6092 28.5 35.6238V52.2498H44.25C48.0212 52.2498 49.9069 52.2498 51.0784 51.0783C52.25 49.9067 52.25 48.0211 52.25 44.2498V12.7499C52.25 10.9573 52.25 9.59075 52.1242 8.52441ZM25.9845 28.4998C24.9545 28.1453 23.5181 28.0017 21.4114 27.791L11.954 26.8453C8.53024 26.5029 6.81838 26.3317 5.78419 25.1889C4.75 24.0462 4.75 22.3258 4.75 18.885V28.4998H25.9845Z" fill="white"/>
<path d="M26.5 27.5H5.75V12.75C5.75 10.8361 5.75212 9.50129 5.88753 8.49416C6.01907 7.51579 6.25966 6.9977 6.62868 6.62868C6.9977 6.25966 7.51579 6.01907 8.49416 5.88753C9.50129 5.75212 10.8361 5.75 12.75 5.75H44.25C46.1639 5.75 47.4987 5.75212 48.5058 5.88753C49.4842 6.01907 50.0023 6.25966 50.3713 6.62868C50.7403 6.9977 50.9809 7.51579 51.1125 8.49416C51.2479 9.50129 51.25 10.8361 51.25 12.75V44.25C51.25 46.1639 51.2479 47.4987 51.1125 48.5058C50.9809 49.4842 50.7403 50.0023 50.3713 50.3713C50.0023 50.7403 49.4842 50.9809 48.5058 51.1125C47.4987 51.2479 46.1639 51.25 44.25 51.25H29.5V30.5L29.5 30.4456C29.5001 30.0215 29.5002 29.6094 29.4545 29.2695C29.403 28.8863 29.2774 28.449 28.9142 28.0858L28.2071 28.7929L28.9142 28.0858C28.551 27.7226 28.1137 27.597 27.7305 27.5455C27.3906 27.4998 26.9785 27.4999 26.5544 27.5L26.5 27.5Z" stroke="white" stroke-width="2"/>
<circle cx="38" cy="19" r="4.75" fill="white"/>
<path d="M19 38V37H20V38H19ZM7.74969 48.2809C7.31843 48.6259 6.68914 48.556 6.34413 48.1247C5.99912 47.6934 6.06904 47.0641 6.50031 46.7191L7.74969 48.2809ZM18 49.875V38H20V49.875H18ZM19 39H7.125V37H19V39ZM19.6247 38.7809L7.74969 48.2809L6.50031 46.7191L18.3753 37.2191L19.6247 38.7809Z" fill="white"/>
</svg>
