<svg width="145" height="136" viewBox="0 0 145 136" fill="none" xmlns="http://www.w3.org/2000/svg">
<path d="M60.762 120.985C60.762 120.985 52.2387 125.103 37.3894 119.242C22.5401 113.382 17.8265 105.631 17.8265 105.631L25.732 101.026C25.732 101.026 17.495 94.5664 14.2002 82.6495C10.9054 70.7326 11.2781 69.2252 11.2781 69.2252H18.609C18.609 69.2252 16.4097 66.6903 20.4438 53.6737C24.4779 40.6572 28.3163 38.1161 28.3163 38.1161L33.8166 43.8058C33.8166 43.8058 36.1971 37.9431 42.2472 32.8114C48.2973 27.6797 54.5307 25.4805 54.5307 25.4805L61.8575 35.9497L60.762 120.985Z" fill="url(#paint0_linear)"/>
<g style="mix-blend-mode:overlay" opacity="0.6">
<path d="M15.5334 84.7555C12.2386 72.8406 12.6113 71.4239 12.6113 71.4239H19.9444C19.9444 71.4239 17.7451 68.7942 21.7771 55.7735C25.8091 42.7529 29.6599 40.1747 29.6599 40.1747L35.1602 45.8417C35.1602 45.8417 37.5427 39.9688 43.6031 34.835C47.1844 31.8185 51.2194 29.3861 55.5592 27.6276L54.5439 25.4922C54.5439 25.4922 48.3106 27.6894 42.2605 32.8231C36.2104 37.9569 33.8299 43.8216 33.8299 43.8216L28.3193 38.1154C28.3193 38.1154 24.4685 40.6524 20.4365 53.669C16.4045 66.6855 18.6017 69.2184 18.6017 69.2184H11.2708C11.2708 69.2184 10.8919 70.7278 14.1928 82.6427C15.3895 86.9398 17.3261 90.9955 19.9155 94.6276C17.9854 91.5659 16.5094 88.2407 15.5334 84.7555Z" fill="white"/>
</g>
<g style="mix-blend-mode:overlay" opacity="0.6">
<path d="M28.1367 100.793C28.1367 100.793 27.9308 100.472 25.2043 101.329L17.8198 105.631C18.2678 106.309 18.7691 106.951 19.319 107.55L28.1367 100.793Z" fill="white"/>
</g>
<g style="mix-blend-mode:overlay" opacity="0.23">
<path d="M61.8605 35.9458L54.5337 25.4766C54.5337 25.4766 48.3003 27.6758 42.2502 32.8075C36.2001 37.9392 33.8196 43.806 33.8196 43.806L28.3193 38.1163C28.3193 38.1163 24.4685 40.6533 20.4365 53.6678C16.4045 66.6823 18.6017 69.2193 18.6017 69.2193H11.2708C11.2708 69.2193 10.8919 70.7287 14.1928 82.6435C17.4938 94.5584 25.7247 101.008 25.7247 101.008L17.8192 105.619C17.8192 105.619 19.3801 108.176 23.5151 111.461C36.0949 114.318 49.2873 112.41 60.5426 106.107L61.8605 35.9458Z" fill="white"/>
</g>
<g style="mix-blend-mode:overlay" opacity="0.35">
<path d="M60.2687 87.2068L61.8605 35.9458L54.5337 25.4766C54.5337 25.4766 48.3003 27.6758 42.2502 32.8075C36.2001 37.9392 33.8196 43.806 33.8196 43.806L28.3193 38.1163C28.3193 38.1163 24.4685 40.6533 20.4365 53.6678C16.4045 66.6823 18.6017 69.2192 18.6017 69.2192H11.2708C11.2708 69.2192 10.8919 70.7287 14.1928 82.6435C14.3494 83.2098 14.5203 83.7741 14.6974 84.3156C21.0939 89.3841 28.8868 92.3765 37.0317 92.8918C45.1766 93.4071 53.2844 91.4206 60.2687 87.1986V87.2068Z" fill="white"/>
</g>
<g style="mix-blend-mode:overlay" opacity="0.35">
<path d="M59.9902 68.3708L61.86 35.9458L54.5332 25.4766C54.5332 25.4766 48.2998 27.6758 42.2497 32.8075C36.1996 37.9392 33.8191 43.806 33.8191 43.806L28.3188 38.1163C28.3188 38.1163 24.5772 40.6141 20.6069 53.1488C23.986 60.2353 29.9492 65.7597 37.2728 68.5884C44.5964 71.4171 52.7248 71.3356 59.9902 68.3605V68.3708Z" fill="white"/>
</g>
<g style="mix-blend-mode:overlay" opacity="0.2">
<path d="M37.9006 37.2658C39.801 41.1857 43.0354 44.3006 47.0241 46.0519C51.0129 47.8033 55.495 48.0766 59.6669 46.8228L61.8539 35.9458L54.5271 25.4766C54.5271 25.4766 48.2937 27.6758 42.2436 32.8075C40.6601 34.1549 39.2061 35.6475 37.9006 37.2658Z" fill="white"/>
</g>
<g style="mix-blend-mode:overlay" opacity="0.49">
<path d="M18.591 67.9022C18.591 67.9022 18.1258 67.3567 18.0167 65.5C17.9734 66.3012 17.9961 67.1047 18.0846 67.9022H18.591Z" fill="white"/>
</g>
<g style="mix-blend-mode:overlay" opacity="0.49">
<path d="M37.3889 117.567C26.0466 113.086 20.6183 107.511 18.6847 105.129L17.8198 105.631C17.8198 105.631 22.5396 113.378 37.3827 119.243C52.2259 125.108 60.7553 120.985 60.7553 120.985L60.7306 119.319C60.2322 119.552 51.7811 123.252 37.3889 117.567Z" fill="white"/>
</g>
<g style="mix-blend-mode:overlay" opacity="0.49">
<path d="M25.6801 101.029L28.1512 100.63C28.1512 100.63 17.4781 92.8929 14.1771 80.976C12.3485 74.3679 11.6751 70.9866 11.4156 69.2383H11.2818C11.2818 69.2383 10.8699 70.7477 14.1771 82.6626C16.7161 91.8345 22.6077 98.5621 25.6801 101.029Z" fill="white"/>
</g>
<path d="M82.6689 120.985C82.6689 120.985 91.1922 125.103 106.041 119.242C120.891 113.382 125.604 105.631 125.604 105.631L117.699 101.026C117.699 101.026 125.936 94.5664 129.231 82.6495C132.526 70.7326 132.151 69.2252 132.151 69.2252H124.826C124.826 69.2252 127.025 66.6903 122.993 53.6737C118.961 40.6572 115.117 38.1161 115.117 38.1161L109.616 43.8058C109.616 43.8058 107.234 37.9431 101.184 32.8114C95.1336 27.6797 88.9003 25.4805 88.9003 25.4805L83.2517 34.2735L82.6689 120.985Z" fill="url(#paint1_linear)"/>
<g style="mix-blend-mode:overlay" opacity="0.6">
<path d="M127.901 84.7555C131.195 72.8406 130.821 71.4239 130.821 71.4239H123.49C123.49 71.4239 125.689 68.7942 121.655 55.7735C117.621 42.7529 113.772 40.1747 113.772 40.1747L108.274 45.8417C108.274 45.8417 105.889 39.9688 99.8309 34.835C96.2486 31.8187 92.213 29.3864 87.8728 27.6276L88.888 25.4922C88.888 25.4922 95.1213 27.6894 101.171 32.8231C107.222 37.9569 109.604 43.8216 109.604 43.8216L115.115 38.1154C115.115 38.1154 118.963 40.6524 122.997 53.669C127.032 66.6855 124.83 69.2184 124.83 69.2184H132.161C132.161 69.2184 132.54 70.7278 129.241 82.6427C128.043 86.9391 126.106 90.9945 123.518 94.6276C125.448 91.5655 126.924 88.2403 127.901 84.7555Z" fill="white"/>
</g>
<g style="mix-blend-mode:overlay" opacity="0.6">
<path d="M115.297 100.793C115.297 100.793 115.503 100.472 118.229 101.329L125.611 105.631C125.163 106.309 124.662 106.951 124.112 107.55L115.297 100.793Z" fill="white"/>
</g>
<g style="mix-blend-mode:overlay" opacity="0.23">
<path d="M83.2538 34.2696L88.9023 25.4766C88.9023 25.4766 95.1357 27.6758 101.186 32.8075C107.236 37.9392 109.618 43.806 109.618 43.806L115.119 38.1225C115.119 38.1225 118.967 40.6594 123.002 53.6739C127.036 66.6884 124.834 69.2254 124.834 69.2254H132.165C132.165 69.2254 132.544 70.7349 129.245 82.6497C125.946 94.5646 117.713 101.014 117.713 101.014L125.619 105.625C125.619 105.625 124.058 108.182 119.923 111.467C107.343 114.324 94.1507 112.416 82.8955 106.113L83.2538 34.2696Z" fill="white"/>
</g>
<g style="mix-blend-mode:overlay" opacity="0.35">
<path d="M83.157 87.2068L83.2414 34.2696L88.89 25.4766C88.89 25.4766 95.1233 27.6758 101.173 32.8075C107.223 37.9392 109.606 43.806 109.606 43.806L115.106 38.1225C115.106 38.1225 118.955 40.6594 122.989 53.6739C127.023 66.6884 124.822 69.2254 124.822 69.2254H132.153C132.153 69.2254 132.532 70.7349 129.233 82.6497C129.076 83.216 128.903 83.7802 128.726 84.3218C122.33 89.3901 114.538 92.3824 106.393 92.8977C98.2484 93.413 90.1409 91.4266 83.157 87.2048V87.2068Z" fill="white"/>
</g>
<g style="mix-blend-mode:overlay" opacity="0.35">
<path d="M83.4266 68.3709L83.2351 34.2696L88.8836 25.4766C88.8836 25.4766 95.117 27.6758 101.167 32.8075C107.217 37.9392 109.6 43.806 109.6 43.806L115.1 38.1225C115.1 38.1225 118.84 40.6203 122.81 53.155C119.431 60.2422 113.469 65.7675 106.145 68.5971C98.8213 71.4266 90.6924 71.3456 83.4266 68.3709Z" fill="white"/>
</g>
<g style="mix-blend-mode:overlay" opacity="0.2">
<path d="M105.522 37.2662C103.621 41.1857 100.387 44.3002 96.3991 46.0515C92.4108 47.8029 87.9292 48.0764 83.7575 46.8232L83.2468 34.2618L88.8953 25.4688C88.8953 25.4688 95.1287 27.668 101.179 32.7997C102.763 34.1497 104.217 35.6451 105.522 37.2662Z" fill="white"/>
</g>
<g style="mix-blend-mode:overlay" opacity="0.49">
<path d="M124.822 67.9022C124.822 67.9022 125.287 67.3567 125.396 65.5C125.439 66.3012 125.417 67.1047 125.328 67.9022H124.822Z" fill="white"/>
</g>
<g style="mix-blend-mode:overlay" opacity="0.49">
<path d="M106.047 117.567C117.389 113.086 122.82 107.511 124.751 105.129L125.616 105.631C125.616 105.631 120.896 113.378 106.053 119.243C91.2101 125.108 82.6807 120.985 82.6807 120.985L82.7053 119.319C83.2057 119.552 91.6549 123.252 106.047 117.567Z" fill="white"/>
</g>
<g style="mix-blend-mode:overlay" opacity="0.49">
<path d="M117.755 101.029L115.297 100.63C115.297 100.63 125.968 92.8929 129.269 80.976C131.099 74.3679 131.773 70.9866 132.03 69.2383H132.164C132.164 69.2383 132.576 70.7477 129.269 82.6626C126.726 91.8345 120.83 98.5621 117.755 101.029Z" fill="white"/>
</g>
<path d="M71.8358 0.492188L54.1365 25.5162L71.8358 50.5403L89.533 25.5162L71.8358 0.492188Z" fill="url(#paint2_linear)"/>
<g style="mix-blend-mode:overlay" opacity="0.49">
<path d="M71.8358 2.86857L88.6908 26.7044L89.533 25.5163L71.8358 0.492188L54.1365 25.5163L54.9787 26.7044L71.8358 2.86857Z" fill="white"/>
</g>
<path opacity="0.25" d="M71.6487 50.3815L89.2347 25.516L71.6487 0.648438V50.3815Z" fill="#B55F09"/>
<g style="mix-blend-mode:overlay" opacity="0.49">
<path d="M72.2899 30.9177L71.9563 0.671342L71.8287 0.492188L54.675 24.7461L70.8505 14.4436L72.2899 30.9177Z" fill="white"/>
</g>
<path d="M71.8368 0.96875L70.7742 20.3237L71.9479 30.9186L72.298 20.2578L71.8368 0.96875Z" fill="white"/>
<path d="M105.051 22.4102L72.043 44.5739L99.0295 40.4884L105.051 22.4102Z" fill="url(#paint3_linear)"/>
<path d="M105.051 22.411L72.043 44.5747L86.0356 21.1445L105.051 22.411Z" fill="url(#paint4_linear)"/>
<g style="mix-blend-mode:overlay" opacity="0.61">
<path d="M105.053 22.4087L86.155 21.1484L99.0665 40.3798L105.053 22.4087Z" fill="white"/>
</g>
<g style="mix-blend-mode:overlay" opacity="0.97">
<path d="M91.6121 30.1L86.153 21.1484L105.051 22.4087L72.043 44.5725L91.6121 30.1Z" fill="white"/>
</g>
<path d="M39.2866 22.4102L72.2944 44.5739L45.3099 40.4884L39.2866 22.4102Z" fill="url(#paint5_linear)"/>
<path d="M39.2866 22.411L72.2944 44.5747L58.3038 21.1445L39.2866 22.411Z" fill="url(#paint6_linear)"/>
<g style="mix-blend-mode:overlay" opacity="0.61">
<path d="M39.2866 22.4087L58.1865 21.1484L45.2729 40.3798L39.2866 22.4087Z" fill="white"/>
</g>
<g style="mix-blend-mode:overlay" opacity="0.97">
<path d="M52.7274 30.1L58.1865 21.1484L39.2866 22.4087L72.2944 44.5725L52.7274 30.1Z" fill="white"/>
</g>
<path d="M72.2972 33.0195C46.8181 33.0195 26.1699 53.0993 26.1699 77.8681C26.1699 102.637 46.8222 122.721 72.2972 122.721C97.7723 122.721 118.425 102.637 118.425 77.8681C118.425 53.0993 97.7702 33.0195 72.2972 33.0195Z" fill="url(#paint7_linear)"/>
<path d="M72.1554 120.707C47.0325 120.707 26.5882 101.165 26.0281 76.8594C26.0281 77.195 26.0137 77.5286 26.0137 77.8664C26.0137 102.635 46.668 122.719 72.141 122.719C97.614 122.719 118.268 102.635 118.268 77.8664C118.268 77.5286 118.268 77.195 118.256 76.8594C117.718 101.165 97.2824 120.707 72.1554 120.707Z" fill="#FFF064"/>
<g style="mix-blend-mode:overlay" opacity="0.35">
<path d="M72.2972 33.0195C46.8181 33.0195 26.1699 53.0993 26.1699 77.8681C26.1699 78.4158 26.1946 78.9492 26.2152 79.4928C37.9653 89.7396 54.1449 96.076 72.0007 96.076C90.1736 96.076 106.596 89.5131 118.4 78.9471C118.4 78.5847 118.431 78.2325 118.431 77.8681C118.427 53.0993 97.7702 33.0195 72.2972 33.0195Z" fill="white"/>
</g>
<g style="mix-blend-mode:overlay" opacity="0.49">
<path d="M109.099 50.7252C100.677 39.9697 87.3656 33.0156 72.3846 33.0156C57.2882 33.0156 43.8865 40.0706 35.4724 50.9662C45.9005 57.2263 58.5072 60.8938 72.086 60.8938C85.8459 60.8979 98.5927 57.1357 109.099 50.7252Z" fill="white"/>
</g>
<g style="mix-blend-mode:overlay" opacity="0.49">
<path d="M72.2991 35.5854C97.3293 35.5854 117.691 54.9815 118.391 79.151C118.408 78.7268 118.428 78.2985 118.428 77.8681C118.428 53.0993 97.7721 33.0195 72.3011 33.0195C46.8302 33.0195 26.1738 53.0993 26.1738 77.8681C26.1738 78.2985 26.1944 78.7268 26.2068 79.151C26.9069 54.9815 47.2647 35.5854 72.2991 35.5854Z" fill="white"/>
</g>
<path d="M66.1067 35.9666C68.2524 35.8018 70.4661 36.6194 69.4015 37.5522C68.3369 38.485 61.0677 42.6736 57.9006 40.0851C54.7334 37.4966 63.58 36.1601 66.1067 35.9666Z" fill="white"/>
<path d="M41.1354 47.3729C34.414 53.0276 28.9858 63.4742 29.1196 69.5778C29.2535 75.6814 32.5174 66.1038 34.2101 62.6237C35.9028 59.1435 44.3148 48.5569 50.4164 45.3507C56.518 42.1444 51.6458 38.5304 41.1354 47.3729Z" fill="white"/>
<path d="M72.3012 44.4727C53.356 44.4727 38.0022 59.4064 38.0022 77.8223C38.0022 96.2382 53.3581 111.17 72.3012 111.17C91.2442 111.17 106.596 96.2403 106.596 77.8223C106.596 59.4043 91.2442 44.4727 72.3012 44.4727Z" fill="url(#paint8_linear)"/>
<g style="mix-blend-mode:overlay" opacity="0.35">
<path d="M72.2411 113.392C52.2664 113.392 36.0229 97.575 36.0229 78.1336C36.0229 58.6921 52.2705 42.875 72.2411 42.875C92.2118 42.875 108.457 58.6921 108.457 78.1336C108.457 97.575 92.2097 113.392 72.2411 113.392ZM72.2411 46.0751C54.0353 46.0751 39.221 60.4569 39.221 78.1336C39.221 95.8102 54.0353 110.192 72.2411 110.192C90.447 110.192 105.259 95.8102 105.259 78.1336C105.259 60.4569 90.445 46.0751 72.2411 46.0751Z" fill="white"/>
</g>
<path d="M72.291 44.473C67.538 44.4533 62.8319 45.4121 58.4654 47.2897C54.099 49.1674 50.1658 51.9237 46.9106 55.387C53.3137 49.6241 61.6317 46.4495 70.2461 46.4807C89.1913 46.4807 104.539 61.4083 104.539 79.8283C104.535 88.1691 101.345 96.1933 95.6202 102.26C102.366 96.1685 106.582 87.4784 106.582 77.8226C106.586 59.4067 91.234 44.473 72.291 44.473Z" fill="#B06518"/>
<path opacity="0.25" d="M50.9411 97.5479C50.9411 76.0266 66.297 64.2024 85.2359 64.2024C92.6455 64.1804 99.8683 66.5259 105.851 70.897C102.575 55.8027 88.7984 44.4727 72.2853 44.4727C53.3401 44.4727 37.9905 59.4064 37.9905 77.8223C37.9905 88.7219 43.3651 98.3922 51.6722 104.479C51.1845 102.201 50.9394 99.8777 50.9411 97.5479Z" fill="#B55F09"/>
<path d="M72.3012 109.349C53.6896 109.349 38.552 94.9343 38.031 76.957C38.0187 77.2762 38.0022 77.5933 38.0022 77.9146C38.0022 96.3367 53.3581 111.275 72.3012 111.275C91.2442 111.275 106.596 96.347 106.596 77.9146C106.596 77.5933 106.584 77.2762 106.573 76.957C106.048 94.9302 90.9127 109.349 72.3012 109.349Z" fill="#FFF064"/>
<path d="M93.2526 106.609L71.8281 120.993L89.3441 118.341L93.2526 106.609Z" fill="url(#paint9_linear)"/>
<path d="M93.2526 106.613L71.8281 120.997L80.9094 105.789L93.2526 106.613Z" fill="url(#paint10_linear)"/>
<g style="mix-blend-mode:overlay" opacity="0.61">
<path d="M93.2575 106.613L80.9905 105.793L89.3696 118.274L93.2575 106.613Z" fill="white"/>
</g>
<g style="mix-blend-mode:overlay" opacity="0.97">
<path d="M84.5296 111.602L80.9856 105.793L93.2526 106.613L71.8281 120.996L84.5296 111.602Z" fill="white"/>
</g>
<path d="M50.4316 106.609L71.8541 120.993L54.3401 118.341L50.4316 106.609Z" fill="url(#paint11_linear)"/>
<path d="M50.4316 106.613L71.8541 120.997L62.7728 105.789L50.4316 106.613Z" fill="url(#paint12_linear)"/>
<g style="mix-blend-mode:overlay" opacity="0.61">
<path d="M50.4316 106.613L62.6966 105.793L54.3175 118.274L50.4316 106.613Z" fill="white"/>
</g>
<g style="mix-blend-mode:overlay" opacity="0.97">
<path d="M59.1526 111.602L62.6966 105.793L50.4316 106.613L71.8541 120.996L59.1526 111.602Z" fill="white"/>
</g>
<path d="M50.4316 134.618L71.852 120.234L54.3401 122.885L50.4316 134.618Z" fill="url(#paint13_linear)"/>
<path d="M50.4316 134.618L71.852 120.234L62.7728 135.44L50.4316 134.618Z" fill="url(#paint14_linear)"/>
<g style="mix-blend-mode:overlay" opacity="0.61">
<path d="M50.4316 134.617L62.6966 135.434L54.3175 122.953L50.4316 134.617Z" fill="white"/>
</g>
<path d="M59.6633 130.915L62.6966 135.435L50.4316 134.617L58.506 129.195L59.6633 130.915Z" fill="#CE7C1D"/>
<path d="M93.2526 134.618L71.8281 120.234L89.3441 122.885L93.2526 134.618Z" fill="url(#paint15_linear)"/>
<path d="M93.2526 134.618L71.8281 120.234L80.9094 135.44L93.2526 134.618Z" fill="url(#paint16_linear)"/>
<g style="mix-blend-mode:overlay" opacity="0.61">
<path d="M93.2575 134.617L80.9905 135.434L89.3696 122.953L93.2575 134.617Z" fill="white"/>
</g>
<path d="M84.3368 130.449L80.9905 135.435L93.2575 134.617L85.1811 129.195L84.3368 130.449Z" fill="#CE7C1D"/>
<path d="M71.8358 108.742L54.1365 119.71L71.8358 130.677L89.533 119.71L71.8358 108.742Z" fill="url(#paint17_linear)"/>
<g style="mix-blend-mode:overlay" opacity="0.49">
<path d="M71.8358 109.784L88.6908 120.231L89.533 119.71L71.8358 108.742L54.1365 119.71L54.9787 120.231L71.8358 109.784Z" fill="white"/>
</g>
<path opacity="0.25" d="M71.6487 130.604L89.2347 119.706L71.6487 108.809V130.604Z" fill="#B55F09"/>
<g style="mix-blend-mode:overlay" opacity="0.49">
<path d="M71.8389 130.453L71.5053 117.198L71.8287 108.742L54.675 119.372L66.0174 122.397L71.8389 130.453Z" fill="white"/>
</g>
<g style="mix-blend-mode:overlay" opacity="0.41">
<path d="M71.8358 108.949L54.1365 119.709L71.8358 119.015L89.533 119.709L71.8358 108.949Z" fill="white"/>
</g>
<path d="M71.8307 113.305C68.2909 113.305 65.4182 116.095 65.4182 119.536C65.4182 122.977 68.3012 125.769 71.8307 125.769C75.3603 125.769 78.2391 122.979 78.2391 119.536C78.2391 116.093 75.3706 113.305 71.8307 113.305Z" fill="url(#paint18_linear)"/>
<g style="mix-blend-mode:overlay" opacity="0.35">
<path d="M71.82 126.187C68.0866 126.187 65.0513 123.23 65.0513 119.597C65.0513 115.965 68.0866 113.008 71.82 113.008C75.5535 113.008 78.5888 115.963 78.5888 119.597C78.5888 123.232 75.5514 126.187 71.82 126.187ZM71.82 113.605C68.4181 113.605 65.6423 116.282 65.6423 119.595C65.6423 122.909 68.412 125.588 71.82 125.588C75.2281 125.588 77.9978 122.911 77.9978 119.595C77.9978 116.28 75.2219 113.605 71.82 113.605Z" fill="white"/>
</g>
<path d="M71.8527 113.305C70.9656 113.302 70.0875 113.482 69.2728 113.833C68.4581 114.185 67.7241 114.699 67.1165 115.345C68.3132 114.268 69.8678 113.674 71.478 113.679C75.0178 113.679 77.8884 116.47 77.8884 119.911C77.8871 121.469 77.2913 122.969 76.2225 124.103C76.8655 123.529 77.3802 122.825 77.7329 122.038C78.0856 121.251 78.2684 120.398 78.2694 119.536C78.2612 116.095 75.3926 113.305 71.8527 113.305Z" fill="#B06518"/>
<path opacity="0.25" d="M67.8378 123.224C67.8378 119.203 70.7084 116.991 74.2462 116.991C75.6311 116.987 76.981 117.426 78.0991 118.243C77.4813 115.422 74.9134 113.301 71.8287 113.301C68.2888 113.301 65.4182 116.091 65.4182 119.532C65.4208 120.506 65.6542 121.465 66.0991 122.331C66.5441 123.196 67.1879 123.945 67.9779 124.513C67.8854 124.09 67.8385 123.658 67.8378 123.224Z" fill="#B55F09"/>
<path d="M31.3423 98.7941C31.3423 98.7941 33.0618 101.642 34.911 104.323L44.5092 98.2031L31.3423 98.7941Z" fill="#CE7C1D"/>
<path d="M39.8238 109.859L44.6157 98.1953H44.5106L34.9104 104.315C35.0999 104.587 35.2872 104.857 35.4767 105.123C36.725 106.875 38.1851 108.465 39.8238 109.859Z" fill="url(#paint19_linear)"/>
<path d="M44.7526 98.2031L41.2621 111.17L39.833 109.861L44.7526 98.2031Z" fill="#FFF064"/>
<path d="M31.0847 97.7773L31.3462 98.7926L44.7479 98.2016L31.0847 97.7773Z" fill="#FFF064"/>
<path d="M112.55 98.7941C112.55 98.7941 110.825 101.642 108.972 104.323L99.3733 98.2031L112.55 98.7941Z" fill="#CE7C1D"/>
<path d="M104.07 109.859L99.2756 98.1953H99.3827L108.973 104.322C108.785 104.593 108.596 104.863 108.408 105.129C107.162 106.878 105.705 108.467 104.07 109.859Z" fill="url(#paint20_linear)"/>
<path d="M99.135 98.2031L102.625 111.17L104.055 109.861L99.135 98.2031Z" fill="#FFF064"/>
<path d="M112.798 97.7773L112.537 98.7926L99.135 98.2016L112.798 97.7773Z" fill="#FFF064"/>
<path d="M72.0606 23.2617L61.8425 33.8834L72.0606 44.505L82.2786 33.8834L72.0606 23.2617Z" fill="url(#paint21_linear)"/>
<g style="mix-blend-mode:overlay" opacity="0.49">
<path d="M72.0606 24.2708L81.7947 34.3879L82.2786 33.8834L72.0606 23.2617L61.8425 33.8834L62.3264 34.3879L72.0606 24.2708Z" fill="white"/>
</g>
<path opacity="0.25" d="M72.0859 44.4376L82.2401 33.8839L72.0859 23.3281V44.4376Z" fill="#B55F09"/>
<g style="mix-blend-mode:overlay" opacity="0.49">
<path d="M72.3255 36.1753L72.1298 23.3379L72.0578 23.2617L62.1548 33.5559L71.4935 29.1821L72.3255 36.1753Z" fill="white"/>
</g>
<path d="M72.0595 23.4648L71.4458 31.6792L72.1254 36.1766L72.3272 31.6524L72.0595 23.4648Z" fill="white"/>
<path style="mix-blend-mode:overlay" d="M60.3715 31.6289C55.281 31.6289 51.1501 35.4735 51.1501 40.2201C51.1501 44.9667 55.2851 48.8031 60.3715 48.8031C65.4579 48.8031 69.5928 44.9564 69.5928 40.2201C69.5928 35.4838 65.4661 31.6289 60.3715 31.6289Z" fill="url(#paint22_radial)"/>
<path opacity="0.7" d="M51.958 51.5179C54.4291 48.7421 61.7086 40.2188 61.7086 40.2188C61.7086 40.2188 67.7875 28.8126 67.9337 28.481C67.9749 28.3904 60.1662 39.2056 60.1662 39.2056L51.958 51.5179Z" fill="white"/>
<path d="M62.3833 38.18C60.1408 36.4255 60.5506 31.4977 60.53 30.1016V31.438C60.53 31.2321 60.5114 30.9953 60.5114 30.9438V30.1016C60.5045 30.6917 60.4633 31.281 60.3879 31.8663C60.3879 31.8663 59.7289 36.8086 58.5449 37.8382C55.8678 40.1816 49.1505 39.7286 51.7287 39.7883C60.4353 39.9757 60.4353 48.4722 60.5114 51.2604V49.856C60.5114 49.9548 60.53 50.0393 60.53 50.0887V51.2583C60.7132 44.6687 60.6906 40.4864 68.2872 39.9324C70.8036 39.7368 65.0068 40.2228 62.3833 38.18Z" fill="white"/>
<path d="M144.923 76.9087L106.798 76.7852L116.604 88.5147L144.923 76.9087Z" fill="url(#paint23_linear)"/>
<path d="M144.923 76.9057L106.798 76.7821L116.672 65.207L144.923 76.9057Z" fill="url(#paint24_linear)"/>
<g style="mix-blend-mode:overlay" opacity="0.61">
<path d="M144.922 76.906L116.766 65.2773L118.271 76.8586L116.694 88.4419L144.922 76.906Z" fill="white"/>
</g>
<g style="mix-blend-mode:overlay" opacity="0.97">
<path d="M117.817 75.7507L116.767 65.2773L144.923 76.906L106.798 76.7824L117.817 75.7507Z" fill="white"/>
</g>
<path d="M126.061 35.0625L99.5996 57.6237L114.68 60.1339L126.061 35.0625Z" fill="url(#paint25_linear)"/>
<path d="M126.062 35.0625L99.6003 57.6237L99.5488 42.4099L126.062 35.0625Z" fill="url(#paint26_linear)"/>
<g style="mix-blend-mode:overlay" opacity="0.61">
<path d="M126.065 35.0625L99.6699 42.4017L108.358 50.2083L114.707 60.0227L126.065 35.0625Z" fill="white"/>
</g>
<g style="mix-blend-mode:overlay" opacity="0.97">
<path d="M107.287 49.6626L99.6655 42.4017L126.061 35.0625L99.5996 57.6237L107.287 49.6626Z" fill="white"/>
</g>
<path d="M18.4131 35.0625L44.8725 57.6237L29.7925 60.1339L18.4131 35.0625Z" fill="url(#paint27_linear)"/>
<path d="M18.4131 35.0625L44.8725 57.6237L44.9239 42.4099L18.4131 35.0625Z" fill="url(#paint28_linear)"/>
<g style="mix-blend-mode:overlay" opacity="0.61">
<path d="M18.4131 35.0625L44.8066 42.4017L36.1186 50.2083L29.7699 60.0227L18.4131 35.0625Z" fill="white"/>
</g>
<g style="mix-blend-mode:overlay" opacity="0.97">
<path d="M37.1853 49.6626L44.8066 42.4017L18.4131 35.0625L44.8725 57.6237L37.1853 49.6626Z" fill="white"/>
</g>
<path d="M0.432373 76.9087L38.5595 76.7852L28.7513 88.5147L0.432373 76.9087Z" fill="url(#paint29_linear)"/>
<path d="M0.432373 76.9057L38.5595 76.7821L28.6833 65.207L0.432373 76.9057Z" fill="url(#paint30_linear)"/>
<g style="mix-blend-mode:overlay" opacity="0.61">
<path d="M0.432373 76.906L28.5906 65.2773L27.0853 76.8586L28.6627 88.4419L0.432373 76.906Z" fill="white"/>
</g>
<g style="mix-blend-mode:overlay" opacity="0.97">
<path d="M27.5404 75.7507L28.5906 65.2773L0.432373 76.906L38.5595 76.7824L27.5404 75.7507Z" fill="white"/>
</g>
<path d="M26.0356 70.8477C22.4978 70.8477 19.6272 73.6379 19.6272 77.079C19.6272 80.52 22.4978 83.3123 26.0356 83.3123C29.5734 83.3123 32.4461 80.522 32.4461 77.079C32.4461 73.6359 29.5775 70.8477 26.0356 70.8477Z" fill="url(#paint31_linear)"/>
<g style="mix-blend-mode:overlay" opacity="0.35">
<path d="M26.0231 83.7261C22.2917 83.7261 19.2563 80.769 19.2563 77.1365C19.2563 73.504 22.2917 70.5469 26.0231 70.5469C29.7544 70.5469 32.7918 73.5019 32.7918 77.1365C32.7918 80.7711 29.7565 83.7261 26.0231 83.7261ZM26.0231 71.1441C22.6212 71.1441 19.8453 73.8314 19.8453 77.1344C19.8453 80.4375 22.6129 83.1269 26.0231 83.1269C29.4332 83.1269 32.2008 80.4395 32.2008 77.1344C32.2008 73.8293 29.427 71.1441 26.0231 71.1441Z" fill="white"/>
</g>
<path d="M26.038 70.8477C25.1508 70.8447 24.2725 71.0243 23.4576 71.3754C22.6428 71.7265 21.909 72.2415 21.3018 72.8884C22.4981 71.8105 24.0529 71.2166 25.6632 71.2225C29.201 71.2225 32.0716 74.0128 32.0716 77.4538C32.0712 79.013 31.4744 80.513 30.4037 81.6464C31.0491 81.073 31.5661 80.3697 31.921 79.5826C32.2759 78.7955 32.4605 77.9424 32.4629 77.079C32.4485 73.638 29.58 70.8477 26.038 70.8477Z" fill="#B06518"/>
<path opacity="0.25" d="M22.0448 80.7673C22.0448 76.7435 24.9154 74.5339 28.4532 74.5339C29.8382 74.5293 31.1883 74.968 32.306 75.786C31.6882 72.9648 29.1204 70.8438 26.0356 70.8438C22.4957 70.8438 19.6272 73.634 19.6272 77.0751C19.6307 78.0485 19.8643 79.0073 20.3087 79.8733C20.7532 80.7393 21.396 81.488 22.1848 82.0585C22.0925 81.6342 22.0456 81.2014 22.0448 80.7673Z" fill="#B55F09"/>
<path d="M118.432 70.8477C114.892 70.8477 112.021 73.6379 112.021 77.079C112.021 80.52 114.892 83.3123 118.432 83.3123C121.972 83.3123 124.84 80.522 124.84 77.079C124.84 73.6359 121.968 70.8477 118.432 70.8477Z" fill="url(#paint32_linear)"/>
<g style="mix-blend-mode:overlay" opacity="0.35">
<path d="M118.427 83.7261C114.694 83.7261 111.658 80.769 111.658 77.1365C111.658 73.504 114.694 70.5469 118.427 70.5469C122.16 70.5469 125.194 73.5019 125.194 77.1365C125.194 80.7711 122.158 83.7261 118.427 83.7261ZM118.427 71.1441C115.023 71.1441 112.249 73.8314 112.249 77.1344C112.249 80.4375 115.017 83.1269 118.427 83.1269C121.837 83.1269 124.605 80.4395 124.605 77.1344C124.605 73.8293 121.829 71.1441 118.427 71.1441Z" fill="white"/>
</g>
<path d="M118.44 70.8477C117.553 70.8452 116.675 71.025 115.86 71.3761C115.045 71.7271 114.311 72.2419 113.704 72.8884C114.901 71.8112 116.455 71.2174 118.065 71.2225C121.605 71.2225 124.476 74.0128 124.476 77.4538C124.474 79.0128 123.878 80.5124 122.808 81.6464C123.451 81.0718 123.966 80.368 124.319 79.5811C124.672 78.7941 124.855 77.9415 124.857 77.079C124.844 73.638 121.976 70.8477 118.44 70.8477Z" fill="#B06518"/>
<path opacity="0.25" d="M114.437 80.7673C114.437 76.7435 117.308 74.5339 120.846 74.5339C122.231 74.5293 123.581 74.968 124.698 75.786C124.081 72.9648 121.513 70.8438 118.428 70.8438C114.888 70.8438 112.018 73.634 112.018 77.0751C112.021 78.0485 112.255 79.0073 112.699 79.8733C113.144 80.7393 113.786 81.488 114.575 82.0585C114.485 81.634 114.438 81.2013 114.437 80.7673Z" fill="#B55F09"/>
<g style="mix-blend-mode:overlay" opacity="0.35">
<path d="M50.8806 55.0648L56.3768 67.6139L63.2835 65.0852V102.675H80.8881V48.5391H66.6978L50.8806 55.0648Z" fill="white"/>
</g>
<path d="M52.8677 55.9568L57.1118 65.8907L64.5951 63.2528V101.355H79.119V49.8594H66.9983L52.8677 55.9568Z" fill="#B06518"/>
<path d="M65.8309 100.102V61.969L57.7854 64.7676L54.2847 56.7221L67.2271 51.125H78.4192V100.102H65.8309Z" fill="url(#paint33_linear)"/>
<path d="M65.9219 100.473H66.8012V61.5L65.9219 61.9572V100.473Z" fill="white"/>
<path d="M67.231 51.1797L54.2886 56.8221L57.7852 64.8882L58.2341 64.744L55.6024 58.6136L68.5427 52.9424H77.8094V51.1797H67.231Z" fill="white"/>
<g style="mix-blend-mode:overlay" opacity="0.35">
<path d="M54.2886 56.7479L57.8325 64.779L65.9254 61.9681V84.7394C70.7667 83.9774 74.7287 81.9903 78.248 79.1155V51.1797H67.231L54.2886 56.7479Z" fill="white"/>
</g>
<defs>
<linearGradient id="paint0_linear" x1="35.6102" y1="29.6978" x2="39.4651" y2="123.579" gradientUnits="userSpaceOnUse">
<stop stop-color="#F7E436"/>
<stop offset="1" stop-color="#CE7C1D"/>
</linearGradient>
<linearGradient id="paint1_linear" x1="-24862.4" y1="62656.6" x2="-28397.6" y2="106628" gradientUnits="userSpaceOnUse">
<stop stop-color="#F7E436"/>
<stop offset="1" stop-color="#CE7C1D"/>
</linearGradient>
<linearGradient id="paint2_linear" x1="71.8337" y1="-8.00224" x2="71.8337" y2="44.8485" gradientUnits="userSpaceOnUse">
<stop offset="0.02" stop-color="#FFED5E"/>
<stop offset="0.51" stop-color="#F7E436"/>
<stop offset="1" stop-color="#CE7C1D"/>
</linearGradient>
<linearGradient id="paint3_linear" x1="86.2662" y1="29.494" x2="97.1062" y2="48.4927" gradientUnits="userSpaceOnUse">
<stop stop-color="#F7E436"/>
<stop offset="1" stop-color="#D58D21"/>
</linearGradient>
<linearGradient id="paint4_linear" x1="66441.2" y1="15519.3" x2="71732" y2="15519.3" gradientUnits="userSpaceOnUse">
<stop offset="0.02" stop-color="#FFED5E"/>
<stop offset="0.51" stop-color="#F7E436"/>
<stop offset="1" stop-color="#CE7C1D"/>
</linearGradient>
<linearGradient id="paint5_linear" x1="-159604" y1="14320.7" x2="-160509" y2="16684.3" gradientUnits="userSpaceOnUse">
<stop stop-color="#F7E436"/>
<stop offset="1" stop-color="#D58D21"/>
</linearGradient>
<linearGradient id="paint6_linear" x1="63824.2" y1="14794.1" x2="63797.1" y2="16816.3" gradientUnits="userSpaceOnUse">
<stop offset="0.02" stop-color="#FFED5E"/>
<stop offset="0.51" stop-color="#F7E436"/>
<stop offset="1" stop-color="#CE7C1D"/>
</linearGradient>
<linearGradient id="paint7_linear" x1="184722" y1="57371.8" x2="186355" y2="98269.4" gradientUnits="userSpaceOnUse">
<stop stop-color="#F7E436"/>
<stop offset="1" stop-color="#CE7C1D"/>
</linearGradient>
<linearGradient id="paint8_linear" x1="140004" y1="68187" x2="137094" y2="53332.6" gradientUnits="userSpaceOnUse">
<stop stop-color="#F7E436"/>
<stop offset="1" stop-color="#D58D21"/>
</linearGradient>
<linearGradient id="paint9_linear" x1="44088.2" y1="15093.8" x2="44469.6" y2="16089.4" gradientUnits="userSpaceOnUse">
<stop stop-color="#F7E436"/>
<stop offset="1" stop-color="#D58D21"/>
</linearGradient>
<linearGradient id="paint10_linear" x1="43127.7" y1="16112.4" x2="45356.7" y2="16112.4" gradientUnits="userSpaceOnUse">
<stop offset="0.02" stop-color="#FFED5E"/>
<stop offset="0.51" stop-color="#F7E436"/>
<stop offset="1" stop-color="#CE7C1D"/>
</linearGradient>
<linearGradient id="paint11_linear" x1="-102885" y1="15093.8" x2="-103266" y2="16089.3" gradientUnits="userSpaceOnUse">
<stop stop-color="#F7E436"/>
<stop offset="1" stop-color="#D58D21"/>
</linearGradient>
<linearGradient id="paint12_linear" x1="41999.4" y1="15807" x2="41988" y2="16658.9" gradientUnits="userSpaceOnUse">
<stop offset="0.02" stop-color="#FFED5E"/>
<stop offset="0.51" stop-color="#F7E436"/>
<stop offset="1" stop-color="#CE7C1D"/>
</linearGradient>
<linearGradient id="paint13_linear" x1="-89200.1" y1="33145.3" x2="-89581.7" y2="32149.5" gradientUnits="userSpaceOnUse">
<stop stop-color="#F7E436"/>
<stop offset="1" stop-color="#D58D21"/>
</linearGradient>
<linearGradient id="paint14_linear" x1="42658.6" y1="17837.6" x2="42188.7" y2="16898.9" gradientUnits="userSpaceOnUse">
<stop stop-color="#F7E436"/>
<stop offset="1" stop-color="#D58D21"/>
</linearGradient>
<linearGradient id="paint15_linear" x1="57765.2" y1="33145.1" x2="58146.7" y2="32149.5" gradientUnits="userSpaceOnUse">
<stop stop-color="#F7E436"/>
<stop offset="1" stop-color="#D58D21"/>
</linearGradient>
<linearGradient id="paint16_linear" x1="43675.8" y1="18124.2" x2="43979.2" y2="17099.8" gradientUnits="userSpaceOnUse">
<stop stop-color="#F7E436"/>
<stop offset="1" stop-color="#D58D21"/>
</linearGradient>
<linearGradient id="paint17_linear" x1="71161.9" y1="22993.7" x2="71215.5" y2="27386" gradientUnits="userSpaceOnUse">
<stop stop-color="#F7E436"/>
<stop offset="1" stop-color="#CE7C1D"/>
</linearGradient>
<linearGradient id="paint18_linear" x1="25900.5" y1="13935.4" x2="25798.8" y2="13416.5" gradientUnits="userSpaceOnUse">
<stop stop-color="#F7E436"/>
<stop offset="1" stop-color="#D58D21"/>
</linearGradient>
<linearGradient id="paint19_linear" x1="18171.2" y1="11972.6" x2="17644.1" y2="11245.5" gradientUnits="userSpaceOnUse">
<stop stop-color="#F7E436"/>
<stop offset="1" stop-color="#CE7C1D"/>
</linearGradient>
<linearGradient id="paint20_linear" x1="-33786.7" y1="11972.6" x2="-33259.5" y2="11245.8" gradientUnits="userSpaceOnUse">
<stop stop-color="#F7E436"/>
<stop offset="1" stop-color="#CE7C1D"/>
</linearGradient>
<linearGradient id="paint21_linear" x1="41154.6" y1="12713.1" x2="41154.6" y2="15027.2" gradientUnits="userSpaceOnUse">
<stop offset="0.02" stop-color="#FFED5E"/>
<stop offset="0.51" stop-color="#F7E436"/>
<stop offset="1" stop-color="#CE7C1D"/>
</linearGradient>
<radialGradient id="paint22_radial" cx="0" cy="0" r="1" gradientUnits="userSpaceOnUse" gradientTransform="translate(60.3756 40.216) scale(8.9104)">
<stop offset="0.09" stop-color="white"/>
<stop offset="1" stop-color="white"/>
</radialGradient>
<linearGradient id="paint23_linear" x1="99503.8" y1="82358.9" x2="98881.9" y2="83752.5" gradientUnits="userSpaceOnUse">
<stop stop-color="#F7E436"/>
<stop offset="1" stop-color="#D58D21"/>
</linearGradient>
<linearGradient id="paint24_linear" x1="97329.3" y1="81123" x2="102194" y2="84404.9" gradientUnits="userSpaceOnUse">
<stop offset="0.02" stop-color="#FFED5E"/>
<stop offset="0.51" stop-color="#F7E436"/>
<stop offset="1" stop-color="#CE7C1D"/>
</linearGradient>
<linearGradient id="paint25_linear" x1="54530.1" y1="8419.58" x2="56167.8" y2="10758.9" gradientUnits="userSpaceOnUse">
<stop stop-color="#F7E436"/>
<stop offset="1" stop-color="#D58D21"/>
</linearGradient>
<linearGradient id="paint26_linear" x1="52960.4" y1="7574.53" x2="56653.4" y2="7147.24" gradientUnits="userSpaceOnUse">
<stop offset="0.02" stop-color="#FFED5E"/>
<stop offset="0.51" stop-color="#F7E436"/>
<stop offset="1" stop-color="#CE7C1D"/>
</linearGradient>
<linearGradient id="paint27_linear" x1="-106703" y1="8564.17" x2="-108323" y2="10901.9" gradientUnits="userSpaceOnUse">
<stop stop-color="#F7E436"/>
<stop offset="1" stop-color="#D58D21"/>
</linearGradient>
<linearGradient id="paint28_linear" x1="-105181" y1="7128.69" x2="-108861" y2="6719.75" gradientUnits="userSpaceOnUse">
<stop offset="0.02" stop-color="#FFED5E"/>
<stop offset="0.51" stop-color="#F7E436"/>
<stop offset="1" stop-color="#CE7C1D"/>
</linearGradient>
<linearGradient id="paint29_linear" x1="-158405" y1="106674" x2="-157783" y2="108068" gradientUnits="userSpaceOnUse">
<stop stop-color="#F7E436"/>
<stop offset="1" stop-color="#D58D21"/>
</linearGradient>
<linearGradient id="paint30_linear" x1="-156211" y1="105467" x2="-161076" y2="108749" gradientUnits="userSpaceOnUse">
<stop offset="0.02" stop-color="#FFED5E"/>
<stop offset="0.51" stop-color="#F7E436"/>
<stop offset="1" stop-color="#CE7C1D"/>
</linearGradient>
<linearGradient id="paint31_linear" x1="22999" y1="11322.8" x2="22897.3" y2="10804.1" gradientUnits="userSpaceOnUse">
<stop stop-color="#F7E436"/>
<stop offset="1" stop-color="#D58D21"/>
</linearGradient>
<linearGradient id="paint32_linear" x1="28843.2" y1="11322.8" x2="28741.5" y2="10804.1" gradientUnits="userSpaceOnUse">
<stop stop-color="#F7E436"/>
<stop offset="1" stop-color="#D58D21"/>
</linearGradient>
<linearGradient id="paint33_linear" x1="47915.1" y1="36508.4" x2="47915.1" y2="49232.7" gradientUnits="userSpaceOnUse">
<stop stop-color="#F7E436"/>
<stop offset="1" stop-color="#D58D21"/>
</linearGradient>
</defs>
</svg>
